<?xml version="1.0" encoding="UTF-8" standalone="no"?>
<!-- Generator: Adobe Illustrator 19.0.0, SVG Export Plug-In . SVG Version: 6.00 Build 0)  -->

<svg
   version="1.1"
   id="svg8"
   x="0px"
   y="0px"
   width="315"
   height="665"
   viewBox="67 220 315 665"
   xml:space="preserve"
   sodipodi:docname="ExtrasPage.svg"
   inkscape:version="1.4 (86a8ad7, 2024-10-11)"
   inkscape:export-filename="..\artwork\background.png"
   inkscape:export-xdpi="168"
   inkscape:export-ydpi="168"
   xmlns:inkscape="http://www.inkscape.org/namespaces/inkscape"
   xmlns:sodipodi="http://sodipodi.sourceforge.net/DTD/sodipodi-0.dtd"
   xmlns="http://www.w3.org/2000/svg"
   xmlns:svg="http://www.w3.org/2000/svg"
   xmlns:rdf="http://www.w3.org/1999/02/22-rdf-syntax-ns#"
   xmlns:cc="http://creativecommons.org/ns#"
   xmlns:dc="http://purl.org/dc/elements/1.1/"><sodipodi:namedview
     id="namedview7"
     pagecolor="#000000"
     bordercolor="#000000"
     borderopacity="0.25"
     inkscape:showpageshadow="2"
     inkscape:pageopacity="0.0"
     inkscape:pagecheckerboard="0"
     inkscape:deskcolor="#d1d1d1"
     showgrid="false"
     inkscape:zoom="1.9054667"
     inkscape:cx="171.6115"
     inkscape:cy="289.16801"
     inkscape:window-width="1920"
     inkscape:window-height="1017"
     inkscape:window-x="-8"
     inkscape:window-y="-8"
     inkscape:window-maximized="1"
     inkscape:current-layer="layer1" /><metadata
     id="metadata186"><rdf:RDF><cc:Work
         rdf:about=""><dc:format>image/svg+xml</dc:format><dc:type
           rdf:resource="http://purl.org/dc/dcmitype/StillImage" /></cc:Work></rdf:RDF></metadata><style
     type="text/css"
     id="style2">
	.st0{fill:#282828;}
	.st1{fill:none;stroke:#FFFFFF;stroke-miterlimit:10;}
	.st2{fill:#FFFFFF;stroke:#FFFFFF;stroke-miterlimit:10;}
	.st3{fill:#FFFFFF;}
	.st4{font-family:'AlteDIN1451Mittelschrift';}
	.st5{font-size:18px;}
	.st6{font-size:11px;}
	.st7{font-size:7px;}
	.st8{font-size:10px;}
	.st9{fill:none;stroke:#FFFFFF;}
</style><defs
     id="defs6"><linearGradient
       id="SVGID_1_-5"
       gradientUnits="userSpaceOnUse"
       x1="19.841801"
       y1="6.9124599e-06"
       x2="19.841801"
       y2="39.683609"
       gradientTransform="matrix(0.8,0,0,0.8,1.5279541e-7,-7.4839478e-6)"><stop
         offset="0"
         style="stop-color:#FFFBFD"
         id="stop3-0" /><stop
         offset="1"
         style="stop-color:#000000"
         id="stop5-2" /></linearGradient><linearGradient
       id="SVGID_2_"
       gradientUnits="userSpaceOnUse"
       x1="-1249.2573"
       y1="-1000.3318"
       x2="-1249.2573"
       y2="-999.22754"
       gradientTransform="matrix(-3.1365719,0,0,-3.1365719,-3693.0118,-2583.9395)">
	<stop
   offset="0"
   style="stop-color:#FDFDFF"
   id="stop12" />
	<stop
   offset="1"
   style="stop-color:#FCFEFF;stop-opacity:0"
   id="stop14" />
</linearGradient><linearGradient
       id="SVGID_1_"
       gradientUnits="userSpaceOnUse"
       x1="1.5"
       y1="0.27405"
       x2="1.5"
       y2="1.37839"
       gradientTransform="matrix(3.1365719,0,0,3.1365719,220.6685,545.05198)">
	<stop
   offset="0"
   style="stop-color:#FDFDFF"
   id="stop5" />
	<stop
   offset="1"
   style="stop-color:#FCFEFF;stop-opacity:0"
   id="stop7" />
</linearGradient><filter
       style="color-interpolation-filters:sRGB"
       inkscape:label="Feather"
       id="filter20"
       x="-0.66132945"
       y="-0.66132945"
       width="2.322659"
       height="2.322659"><feGaussianBlur
         stdDeviation="1.8236882"
         result="blur"
         id="feGaussianBlur18" /><feComposite
         in="SourceGraphic"
         in2="blur"
         operator="atop"
         result="composite1"
         id="feComposite18" /><feComposite
         in2="composite1"
         operator="in"
         result="composite2"
         id="feComposite19" /><feComposite
         in2="composite2"
         operator="in"
         result="composite3"
         id="feComposite20" /></filter><linearGradient
       id="SVGID_2_-1"
       gradientUnits="userSpaceOnUse"
       x1="-1249.2573"
       y1="-1000.3318"
       x2="-1249.2573"
       y2="-999.22754"
       gradientTransform="matrix(-3.1365719,0,0,-3.1365719,-3692.8647,-2584.1069)">
	<stop
   offset="0"
   style="stop-color:#FDFDFF"
   id="stop12-8" />
	<stop
   offset="1"
   style="stop-color:#FCFEFF;stop-opacity:0"
   id="stop14-9" />
</linearGradient><linearGradient
       id="SVGID_1_-2"
       gradientUnits="userSpaceOnUse"
       x1="1.5"
       y1="0.27405"
       x2="1.5"
       y2="1.37839"
       gradientTransform="matrix(3.1365719,0,0,3.1365719,220.8156,544.88457)">
	<stop
   offset="0"
   style="stop-color:#FDFDFF"
   id="stop5-7" />
	<stop
   offset="1"
   style="stop-color:#FCFEFF;stop-opacity:0"
   id="stop7-9" />
</linearGradient><filter
       style="color-interpolation-filters:sRGB"
       inkscape:label="Feather"
       id="filter20-5"
       x="-0.66132945"
       y="-0.66132945"
       width="2.322659"
       height="2.322659"><feGaussianBlur
         stdDeviation="1.8236882"
         result="blur"
         id="feGaussianBlur18-4" /><feComposite
         in="SourceGraphic"
         in2="blur"
         operator="atop"
         result="composite1"
         id="feComposite18-3" /><feComposite
         in2="composite1"
         operator="in"
         result="composite2"
         id="feComposite19-1" /><feComposite
         in2="composite2"
         operator="in"
         result="composite3"
         id="feComposite20-2" /></filter><clipPath
       id="clip444"><path
         d="m 1201.582,338.19922 h 18 v 18 h -18 z m 0,0"
         id="path24586"
         inkscape:connector-curvature="0" /></clipPath><linearGradient
       id="SVGID_2_-3"
       gradientUnits="userSpaceOnUse"
       x1="-1249.2573"
       y1="-1000.3318"
       x2="-1249.2573"
       y2="-999.22754"
       gradientTransform="matrix(-3.1365719,0,0,-3.1365719,-3692.0508,-2583.0405)"><stop
         offset="0"
         style="stop-color:#FDFDFF"
         id="stop12-3" /><stop
         offset="1"
         style="stop-color:#FCFEFF;stop-opacity:0"
         id="stop14-4" /></linearGradient><linearGradient
       id="SVGID_1_-1"
       gradientUnits="userSpaceOnUse"
       x1="1.5"
       y1="0.27405"
       x2="1.5"
       y2="1.37839"
       gradientTransform="matrix(3.1365719,0,0,3.1365719,221.62954,545.95101)"><stop
         offset="0"
         style="stop-color:#FDFDFF"
         id="stop5-1" /><stop
         offset="1"
         style="stop-color:#FCFEFF;stop-opacity:0"
         id="stop7-3" /></linearGradient><filter
       style="color-interpolation-filters:sRGB"
       inkscape:label="Feather"
       id="filter20-8"
       x="-0.66132945"
       y="-0.66132945"
       width="2.322659"
       height="2.322659"><feGaussianBlur
         stdDeviation="1.8236882"
         result="blur"
         id="feGaussianBlur18-7" /><feComposite
         in="SourceGraphic"
         in2="blur"
         operator="atop"
         result="composite1"
         id="feComposite18-4" /><feComposite
         in2="composite1"
         operator="in"
         result="composite2"
         id="feComposite19-2" /><feComposite
         in2="composite2"
         operator="in"
         result="composite3"
         id="feComposite20-7" /></filter><filter
       style="color-interpolation-filters:sRGB"
       inkscape:label="Feather"
       id="filter20-2"
       x="-0.66132945"
       y="-0.66132945"
       width="2.322659"
       height="2.322659"><feGaussianBlur
         stdDeviation="1.8236882"
         result="blur"
         id="feGaussianBlur18-8" /><feComposite
         in="SourceGraphic"
         in2="blur"
         operator="atop"
         result="composite1"
         id="feComposite18-6" /><feComposite
         in2="composite1"
         operator="in"
         result="composite2"
         id="feComposite19-0" /><feComposite
         in2="composite2"
         operator="in"
         result="composite3"
         id="feComposite20-24" /></filter><linearGradient
       id="SVGID_2_-8"
       gradientUnits="userSpaceOnUse"
       x1="-1249.2573"
       y1="-1000.3318"
       x2="-1249.2573"
       y2="-999.22754"
       gradientTransform="matrix(-3.1365719,0,0,-3.1365719,-3674.7467,-2447.3843)"><stop
         offset="0"
         style="stop-color:#FDFDFF"
         id="stop12-6" /><stop
         offset="1"
         style="stop-color:#FCFEFF;stop-opacity:0"
         id="stop14-5" /></linearGradient><linearGradient
       id="SVGID_1_-0"
       gradientUnits="userSpaceOnUse"
       x1="1.5"
       y1="0.27405"
       x2="1.5"
       y2="1.37839"
       gradientTransform="matrix(3.1365719,0,0,3.1365719,238.93364,681.60722)"><stop
         offset="0"
         style="stop-color:#FDFDFF"
         id="stop5-9" /><stop
         offset="1"
         style="stop-color:#FCFEFF;stop-opacity:0"
         id="stop7-0" /></linearGradient><filter
       style="color-interpolation-filters:sRGB"
       inkscape:label="Feather"
       id="filter20-0"
       x="-0.46162084"
       y="-0.46162084"
       width="1.9232417"
       height="1.9232417"><feGaussianBlur
         stdDeviation="1.2729698"
         result="blur"
         id="feGaussianBlur18-6" /><feComposite
         in="SourceGraphic"
         in2="blur"
         operator="atop"
         result="composite1"
         id="feComposite18-1" /><feComposite
         in2="composite1"
         operator="in"
         result="composite2"
         id="feComposite19-3" /><feComposite
         in2="composite2"
         operator="in"
         result="composite3"
         id="feComposite20-8" /></filter><linearGradient
       id="SVGID_2_-9"
       gradientUnits="userSpaceOnUse"
       x1="-1249.2573"
       y1="-1000.3318"
       x2="-1249.2573"
       y2="-999.22754"
       gradientTransform="matrix(-3.1365719,0,0,-3.1365719,-3830.336,-2688.1827)"><stop
         offset="0"
         style="stop-color:#FDFDFF"
         id="stop12-34" /><stop
         offset="1"
         style="stop-color:#FCFEFF;stop-opacity:0"
         id="stop14-46" /></linearGradient><linearGradient
       id="SVGID_1_-06"
       gradientUnits="userSpaceOnUse"
       x1="1.5"
       y1="0.27405"
       x2="1.5"
       y2="1.37839"
       gradientTransform="matrix(3.1365719,0,0,3.1365719,83.344517,440.80902)"><stop
         offset="0"
         style="stop-color:#FDFDFF"
         id="stop5-6" /><stop
         offset="1"
         style="stop-color:#FCFEFF;stop-opacity:0"
         id="stop7-1" /></linearGradient><clipPath
       clipPathUnits="userSpaceOnUse"
       id="clipPath1"><rect
         style="opacity:0.396947;fill:#0f2435;stroke-width:1.11601;stroke-linecap:square;stroke-miterlimit:4.2"
         id="rect2"
         width="9.0521126"
         height="9.0521126"
         x="44.115078"
         y="66.184074" /></clipPath><filter
       style="color-interpolation-filters:sRGB"
       inkscape:label="Feather"
       id="filter20-84"
       x="-0.46162084"
       y="-0.46162084"
       width="1.9232417"
       height="1.9232417"><feGaussianBlur
         stdDeviation="1.2729698"
         result="blur"
         id="feGaussianBlur18-9" /><feComposite
         in="SourceGraphic"
         in2="blur"
         operator="atop"
         result="composite1"
         id="feComposite18-63" /><feComposite
         in2="composite1"
         operator="in"
         result="composite2"
         id="feComposite19-7" /><feComposite
         in2="composite2"
         operator="in"
         result="composite3"
         id="feComposite20-88" /></filter><linearGradient
       id="SVGID_2_-2"
       gradientUnits="userSpaceOnUse"
       x1="-1249.2573"
       y1="-1000.3318"
       x2="-1249.2573"
       y2="-999.22754"
       gradientTransform="matrix(-0.82988463,0,0,-0.82988463,-988.09828,-758.42311)"><stop
         offset="0"
         style="stop-color:#FDFDFF"
         id="stop12-9" /><stop
         offset="1"
         style="stop-color:#FCFEFF;stop-opacity:0"
         id="stop14-1" /></linearGradient><clipPath
       clipPathUnits="userSpaceOnUse"
       id="clipPath11"><rect
         style="opacity:0.396947;fill:#0f2435;stroke-width:1.89517;stroke-linecap:square;stroke-miterlimit:4.2"
         id="rect11"
         width="15.372027"
         height="15.372027"
         x="40.955151"
         y="63.024132" /></clipPath><linearGradient
       id="SVGID_1_-3"
       gradientUnits="userSpaceOnUse"
       x1="1.5"
       y1="0.27405"
       x2="1.5"
       y2="1.37839"
       gradientTransform="matrix(0.82988463,0,0,0.82988463,47.396309,69.455888)"><stop
         offset="0"
         style="stop-color:#FDFDFF"
         id="stop5-5" /><stop
         offset="1"
         style="stop-color:#FCFEFF;stop-opacity:0"
         id="stop7-98" /></linearGradient><clipPath
       clipPathUnits="userSpaceOnUse"
       id="clipPath12"><rect
         style="opacity:0.396947;fill:#0f2435;stroke-width:1.89517;stroke-linecap:square;stroke-miterlimit:4.2"
         id="rect12"
         width="15.372027"
         height="15.372027"
         x="40.955151"
         y="63.024132" /></clipPath><clipPath
       clipPathUnits="userSpaceOnUse"
       id="clipPath13"><rect
         style="opacity:0.396947;fill:#0f2435;stroke-width:1.89517;stroke-linecap:square;stroke-miterlimit:4.2"
         id="rect13"
         width="15.372027"
         height="15.372027"
         x="40.955151"
         y="63.024132" /></clipPath><clipPath
       clipPathUnits="userSpaceOnUse"
       id="clipPath14"><rect
         style="opacity:0.396947;fill:#0f2435;stroke-width:1.11601;stroke-linecap:square;stroke-miterlimit:4.2"
         id="rect14"
         width="9.0521126"
         height="9.0521126"
         x="44.115078"
         y="66.184074" /></clipPath><filter
       style="color-interpolation-filters:sRGB"
       inkscape:label="Feather"
       id="filter20-4"
       x="-0.46162084"
       y="-0.46162084"
       width="1.9232417"
       height="1.9232417"><feGaussianBlur
         stdDeviation="1.2729698"
         result="blur"
         id="feGaussianBlur18-0" /><feComposite
         in="SourceGraphic"
         in2="blur"
         operator="atop"
         result="composite1"
         id="feComposite18-7" /><feComposite
         in2="composite1"
         operator="in"
         result="composite2"
         id="feComposite19-6" /><feComposite
         in2="composite2"
         operator="in"
         result="composite3"
         id="feComposite20-3" /></filter><clipPath
       clipPathUnits="userSpaceOnUse"
       id="clipPath11-2"><rect
         style="opacity:0.396947;fill:#0f2435;stroke-width:1.89517;stroke-linecap:square;stroke-miterlimit:4.2"
         id="rect11-0"
         width="15.372027"
         height="15.372027"
         x="40.955151"
         y="63.024132" /></clipPath><clipPath
       clipPathUnits="userSpaceOnUse"
       id="clipPath12-2"><rect
         style="opacity:0.396947;fill:#0f2435;stroke-width:1.89517;stroke-linecap:square;stroke-miterlimit:4.2"
         id="rect12-6"
         width="15.372027"
         height="15.372027"
         x="40.955151"
         y="63.024132" /></clipPath><clipPath
       clipPathUnits="userSpaceOnUse"
       id="clipPath13-0"><rect
         style="opacity:0.396947;fill:#0f2435;stroke-width:1.89517;stroke-linecap:square;stroke-miterlimit:4.2"
         id="rect13-1"
         width="15.372027"
         height="15.372027"
         x="40.955151"
         y="63.024132" /></clipPath><clipPath
       clipPathUnits="userSpaceOnUse"
       id="clipPath14-6"><rect
         style="opacity:0.396947;fill:#0f2435;stroke-width:1.11601;stroke-linecap:square;stroke-miterlimit:4.2"
         id="rect14-5"
         width="9.0521126"
         height="9.0521126"
         x="44.115078"
         y="66.184074" /></clipPath><filter
       style="color-interpolation-filters:sRGB"
       inkscape:label="Feather"
       id="filter20-7"
       x="-0.46162084"
       y="-0.46162084"
       width="1.9232417"
       height="1.9232417"><feGaussianBlur
         stdDeviation="1.2729698"
         result="blur"
         id="feGaussianBlur18-5" /><feComposite
         in="SourceGraphic"
         in2="blur"
         operator="atop"
         result="composite1"
         id="feComposite18-41" /><feComposite
         in2="composite1"
         operator="in"
         result="composite2"
         id="feComposite19-20" /><feComposite
         in2="composite2"
         operator="in"
         result="composite3"
         id="feComposite20-0" /></filter><linearGradient
       id="SVGID_2_-20"
       gradientUnits="userSpaceOnUse"
       x1="-1249.2573"
       y1="-1000.3318"
       x2="-1249.2573"
       y2="-999.22754"
       gradientTransform="matrix(-0.82988463,0,0,-0.82988463,-988.09828,-758.42311)"><stop
         offset="0"
         style="stop-color:#FDFDFF"
         id="stop12-97" /><stop
         offset="1"
         style="stop-color:#FCFEFF;stop-opacity:0"
         id="stop14-3" /></linearGradient><clipPath
       clipPathUnits="userSpaceOnUse"
       id="clipPath11-7"><rect
         style="opacity:0.396947;fill:#0f2435;stroke-width:1.89517;stroke-linecap:square;stroke-miterlimit:4.2"
         id="rect11-2"
         width="15.372027"
         height="15.372027"
         x="40.955151"
         y="63.024132" /></clipPath><linearGradient
       id="SVGID_1_-6"
       gradientUnits="userSpaceOnUse"
       x1="1.5"
       y1="0.27405"
       x2="1.5"
       y2="1.37839"
       gradientTransform="matrix(0.82988463,0,0,0.82988463,47.396309,69.455888)"><stop
         offset="0"
         style="stop-color:#FDFDFF"
         id="stop5-0" /><stop
         offset="1"
         style="stop-color:#FCFEFF;stop-opacity:0"
         id="stop7-16" /></linearGradient><clipPath
       clipPathUnits="userSpaceOnUse"
       id="clipPath12-5"><rect
         style="opacity:0.396947;fill:#0f2435;stroke-width:1.89517;stroke-linecap:square;stroke-miterlimit:4.2"
         id="rect12-7"
         width="15.372027"
         height="15.372027"
         x="40.955151"
         y="63.024132" /></clipPath><clipPath
       clipPathUnits="userSpaceOnUse"
       id="clipPath14-5"><rect
         style="opacity:0.396947;fill:#0f2435;stroke-width:1.11601;stroke-linecap:square;stroke-miterlimit:4.2"
         id="rect14-4"
         width="9.0521126"
         height="9.0521126"
         x="44.115078"
         y="66.184074" /></clipPath><filter
       style="color-interpolation-filters:sRGB"
       inkscape:label="Feather"
       id="filter20-1"
       x="-0.46162084"
       y="-0.46162084"
       width="1.9232417"
       height="1.9232417"><feGaussianBlur
         stdDeviation="1.2729698"
         result="blur"
         id="feGaussianBlur18-2" /><feComposite
         in="SourceGraphic"
         in2="blur"
         operator="atop"
         result="composite1"
         id="feComposite18-0" /><feComposite
         in2="composite1"
         operator="in"
         result="composite2"
         id="feComposite19-01" /><feComposite
         in2="composite2"
         operator="in"
         result="composite3"
         id="feComposite20-4" /></filter></defs><g
     id="layer1"
     transform="translate(0,-196.5)"
     inkscape:groupmode="layer"
     inkscape:label="Layer 1"><path
       id="rect485"
       style="display:none;fill:#ffffff;stroke-width:2"
       d="m 184.33203,534.88672 c -0.90121,0 -1.60116,0.24023 -2.09961,0.71875 -0.49448,0.47852 -0.74023,1.09033 -0.74023,1.83203 0,0.63402 0.19506,1.17637 0.58984,1.62695 0.39477,0.44659 0.969,0.71856 1.72266,0.82227 0.22731,0.0319 0.42814,0.0619 0.59961,0.0859 0.1715,0.024 0.35726,0.0484 0.55664,0.0723 0.75764,0.0998 1.13867,0.49186 1.13867,1.17774 0,0.36289 -0.15582,0.65559 -0.46289,0.8789 -0.30704,0.22333 -0.72924,0.33594 -1.26758,0.33594 -0.46655,0 -0.91316,-0.0808 -1.33984,-0.24023 -0.42667,-0.15944 -0.80387,-0.3716 -1.13086,-0.63477 l -0.8711,0.99414 c 0.90918,0.79751 2.01619,1.19531 3.32813,1.19531 0.9331,0 1.67816,-0.2195 2.23242,-0.66211 0.55427,-0.44263 0.83008,-1.06566 0.83008,-1.86718 0,-0.59416 -0.1932,-1.13647 -0.58399,-1.62696 -0.3868,-0.49047 -0.98729,-0.78508 -1.80078,-0.88476 -0.21133,-0.024 -0.39703,-0.0485 -0.56054,-0.0684 -0.16345,-0.024 -0.30624,-0.0445 -0.42188,-0.0645 -0.44263,-0.0677 -0.75782,-0.20846 -0.94922,-0.42382 -0.19139,-0.21532 -0.28711,-0.44612 -0.28711,-0.69336 0,-0.41469 0.1407,-0.72624 0.42383,-0.9336 0.28312,-0.20737 0.62843,-0.31054 1.03516,-0.31054 0.38282,0 0.75813,0.0599 1.125,0.18359 0.36689,0.12356 0.71028,0.28697 1.02929,0.48633 l 0.73438,-1.0918 c -0.39876,-0.26319 -0.83408,-0.47694 -1.30859,-0.64844 -0.47453,-0.1715 -0.98317,-0.25976 -1.52149,-0.25976 z m 4.37891,0.0781 v 8.7168 h 1.25 v -3.69922 c 0,-0.41871 0.1184,-0.74521 0.34961,-0.98047 0.23527,-0.23528 0.52979,-0.35156 0.88867,-0.35156 0.34693,0 0.63593,0.11622 0.86719,0.35156 0.23529,0.23526 0.35156,0.56176 0.35156,0.98047 v 3.69922 h 1.25195 v -4.12891 c 0,-0.7018 -0.22714,-1.23665 -0.67773,-1.60351 -0.4466,-0.36688 -0.90814,-0.55078 -1.39063,-0.55078 -0.68985,0 -1.23037,0.24781 -1.61718,0.73828 h -0.0234 v -3.17188 z m 52.46484,0 v 8.7168 H 246.75 v -1.24414 h -4.25195 v -7.47266 z m -33.67773,0.19922 -1.25,1.33203 v 0.97461 H 205.625 v 0.95703 h 0.62305 v 5.25977 h 1.25 v -5.25977 h 0.91015 v -0.95703 h -0.91015 z m 54.57031,2.14649 c -0.2211,0.0931 -0.47571,0.25804 -0.61328,0.34179 -0.27116,0.16345 -0.47958,0.33431 -0.61914,0.50977 -0.17943,0.23527 -0.30135,0.48104 -0.36914,0.74023 -0.0639,0.25919 -0.0957,0.81643 -0.0957,1.67774 0,0.86134 0.0319,1.42246 0.0957,1.68164 0.0677,0.25919 0.1897,0.50505 0.36914,0.73633 0.13965,0.17946 0.34798,0.35213 0.61914,0.51562 0.27514,0.1596 0.61474,0.24024 1.02148,0.24024 0.63404,0 1.16887,-0.24026 1.60352,-0.71875 v 0.63867 c 0,0.43064 -0.1333,0.76481 -0.40039,0.99609 -0.26318,0.23128 -0.60287,0.34375 -1.01758,0.34375 -0.23926,0 -0.46638,-0.0543 -0.67773,-0.16601 -0.20736,-0.11165 -0.38558,-0.24301 -0.53711,-0.39454 l -0.97071,0.76954 c 0.27515,0.31103 0.60546,0.56445 0.98828,0.75586 0.38281,0.1914 0.7731,0.2871 1.17188,0.2871 0.70581,0 1.33076,-0.22143 1.87305,-0.66406 0.54633,-0.44264 0.82031,-1.13134 0.82031,-2.06445 v -6.06641 h -1.25 v 0.66602 c -0.46258,-0.49047 -1.60352,-0.13213 -1.60352,-0.73828 0,-0.20337 -0.1871,-0.18102 -0.4082,-0.0879 z m -64.52344,0.0879 c -0.4865,0 -0.87859,0.0884 -1.18164,0.25976 -0.29907,0.1715 -0.53557,0.34971 -0.70703,0.53711 -0.23926,0.26319 -0.41,0.55778 -0.51367,0.88477 -0.10378,0.32697 -0.15625,0.82428 -0.15625,1.49023 0,0.67788 0.0527,1.18083 0.15625,1.50781 0.1036,0.327 0.27441,0.62157 0.51367,0.88477 0.1715,0.1914 0.40796,0.36964 0.70703,0.53711 0.30305,0.16748 0.69514,0.25391 1.18164,0.25391 0.4785,0 0.87076,-0.0864 1.17383,-0.25391 0.30304,-0.16747 0.53948,-0.34571 0.71094,-0.53711 0.23925,-0.2632 0.41194,-0.55777 0.51562,-0.88477 0.1036,-0.32699 0.1543,-0.82993 0.1543,-1.50781 0,-0.66595 -0.0505,-1.16326 -0.1543,-1.49023 -0.1036,-0.32699 -0.27636,-0.62158 -0.51562,-0.88477 -0.1715,-0.1874 -0.4079,-0.36564 -0.71094,-0.53711 -0.30307,-0.1715 -0.69533,-0.25976 -1.17383,-0.25976 z m 6.76172,0 c -0.68986,0 -1.23039,0.24781 -1.61719,0.73828 h -0.0234 v -0.66602 h -1.25196 v 6.21094 h 1.25196 v -3.73242 c 0,-0.45457 0.12579,-0.78491 0.37304,-0.98828 0.25122,-0.20734 0.5289,-0.31055 0.83594,-0.31055 0.27914,0 0.55306,0.10129 0.82422,0.30469 l 0.90234,-1.07813 c -0.41072,-0.31902 -0.84034,-0.47851 -1.29492,-0.47851 z m 45.83398,0 c -0.48648,0 -0.87858,0.0884 -1.18164,0.25976 -0.29908,0.1715 -0.53556,0.34971 -0.70703,0.53711 -0.23926,0.26319 -0.41,0.55778 -0.51367,0.88477 -0.10377,0.32697 -0.15625,0.82428 -0.15625,1.49023 0,0.67788 0.0525,1.18083 0.15625,1.50781 0.1036,0.327 0.27441,0.62157 0.51367,0.88477 0.1715,0.1914 0.40795,0.36964 0.70703,0.53711 0.30306,0.16748 0.69517,0.25391 1.18164,0.25391 0.47853,0 0.87077,-0.0864 1.17383,-0.25391 0.30305,-0.16747 0.54143,-0.34571 0.71289,-0.53711 0.23926,-0.2632 0.40999,-0.55777 0.51368,-0.88477 0.1036,-0.32699 0.15625,-0.82993 0.15625,-1.50781 0,-0.66595 -0.0527,-1.16326 -0.15625,-1.49023 -0.1036,-0.32699 -0.27442,-0.62158 -0.51368,-0.88477 -0.1715,-0.1874 -0.40984,-0.36564 -0.71289,-0.53711 -0.30306,-0.1715 -0.69531,-0.25976 -1.17383,-0.25976 z m 6.76172,0 c -0.68985,0 -1.23038,0.24781 -1.61718,0.73828 h -0.0234 v -0.66602 h -1.24805 v 6.21094 h 1.24805 v -3.69922 c 0,-0.4187 0.11645,-0.74522 0.34766,-0.98047 0.23527,-0.23529 0.53368,-0.35156 0.89257,-0.35156 0.34692,0 0.63396,0.11622 0.86524,0.35156 0.23527,0.23525 0.35547,0.56177 0.35547,0.98047 v 3.69922 h 1.24804 v -4.12891 c 0,-0.70181 -0.22322,-1.23666 -0.67382,-1.60351 -0.44662,-0.3669 -0.91203,-0.55078 -1.39454,-0.55078 z m -59.35742,1.25195 c 0.45059,0 0.78653,0.1501 1.00586,0.45313 0.11165,0.16748 0.18855,0.34392 0.23242,0.52734 0.0478,0.18343 0.0723,0.49865 0.0723,0.94922 0,0.45063 -0.0245,0.77167 -0.0723,0.95508 -0.0439,0.18346 -0.12075,0.35605 -0.23242,0.51953 -0.21933,0.30307 -0.55527,0.45508 -1.00586,0.45508 -0.45859,0 -0.79255,-0.15203 -1.0039,-0.45508 -0.1197,-0.16345 -0.20223,-0.33607 -0.2461,-0.51953 -0.0399,-0.18739 -0.0586,-0.51026 -0.0586,-0.96485 0,-0.44265 0.0187,-0.75602 0.0586,-0.93945 0.0439,-0.18342 0.12652,-0.35985 0.2461,-0.52734 0.21135,-0.30305 0.54531,-0.45313 1.0039,-0.45313 z m 52.5957,0 c 0.45062,0 0.78655,0.1501 1.00586,0.45313 0.11165,0.16748 0.19245,0.34392 0.23633,0.52734 0.0478,0.18343 0.0703,0.49865 0.0703,0.94922 0,0.45063 -0.0225,0.77167 -0.0703,0.95508 -0.0439,0.18346 -0.12473,0.35605 -0.23633,0.51953 -0.21931,0.30307 -0.55524,0.45508 -1.00586,0.45508 -0.45857,0 -0.79255,-0.15203 -1.0039,-0.45508 -0.1197,-0.16345 -0.19832,-0.33607 -0.24219,-0.51953 -0.0399,-0.18739 -0.0625,-0.51026 -0.0625,-0.96485 0,-0.44265 0.0228,-0.75602 0.0625,-0.93945 0.0439,-0.18342 0.12254,-0.35985 0.24219,-0.52734 0.21135,-0.30305 0.54533,-0.45313 1.0039,-0.45313 z m 12.71876,0 c 0.24324,0 0.44597,0.0525 0.60546,0.16016 0.16345,0.10378 0.28727,0.21072 0.375,0.31836 0.10763,0.1435 0.17528,0.29741 0.19922,0.46093 0.028,0.16345 0.041,0.49374 0.041,0.99219 0,0.49845 -0.0123,0.83067 -0.041,0.99414 -0.024,0.16345 -0.0915,0.31552 -0.19922,0.45508 -0.0877,0.11165 -0.21149,0.21664 -0.375,0.32031 -0.15942,0.10378 -0.36221,0.15821 -0.60546,0.15821 -0.25122,0 -0.4576,-0.0544 -0.6211,-0.15821 -0.16345,-0.1036 -0.2893,-0.20866 -0.37305,-0.32031 -0.11165,-0.13948 -0.18107,-0.29157 -0.20898,-0.45508 -0.024,-0.16345 -0.0332,-0.49569 -0.0332,-0.99414 0,-0.49845 0.01,-0.82872 0.0332,-0.99219 0.028,-0.16345 0.0973,-0.31736 0.20898,-0.46093 0.0836,-0.10762 0.20958,-0.21467 0.37305,-0.31836 0.16345,-0.10762 0.36989,-0.16016 0.6211,-0.16016 z m -57.2754,7.91211 v 13.69531 h 2.07618 v -5.34765 h 3.1582 c 1.40364,0 2.46843,-0.44068 3.19531,-1.32422 0.73316,-0.88356 1.09961,-1.81349 1.09961,-2.79102 0,-0.73943 -0.14146,-1.3876 -0.42969,-1.94531 -0.28824,-0.56394 -0.63915,-1.00656 -1.05273,-1.32617 -0.53263,-0.41358 -1.04598,-0.67627 -1.54102,-0.78906 -0.48876,-0.11289 -1.00252,-0.17188 -1.53515,-0.17188 z m 28.5,0 v 13.69531 h 4.66211 c 1.01514,0 1.87589,-0.21606 2.58399,-0.64843 0.71435,-0.43864 1.27434,-0.97802 1.68164,-1.61719 0.30703,-0.47621 0.51106,-0.96858 0.61133,-1.48242 0.10658,-0.5201 0.16015,-1.55223 0.16015,-3.09375 0,-1.43497 -0.0362,-2.40454 -0.11132,-2.91211 -0.0752,-0.50756 -0.28467,-1.05591 -0.62305,-1.63868 -0.90862,-1.53524 -2.30021,-2.30274 -4.17383,-2.30273 z m -26.42382,1.96484 h 3.00781 c 0.60157,0 1.09432,0.12982 1.47656,0.38672 0.59529,0.38852 0.89063,0.99513 0.89063,1.82227 0,0.54516 -0.18809,1.04999 -0.57032,1.51367 -0.37599,0.46371 -0.9519,0.69727 -1.72265,0.69727 h -3.08203 z m 28.49804,0 h 2.49219 c 1.059,0 1.87314,0.38397 2.44336,1.14844 0.27572,0.37597 0.4471,0.79957 0.50977,1.26953 0.069,0.46997 0.10156,1.31672 0.10156,2.54492 0,1.27204 -0.0331,2.10872 -0.0957,2.50977 -0.0564,0.39478 -0.19435,0.76669 -0.41993,1.11133 -0.55142,0.79582 -1.3986,1.1914 -2.53906,1.1914 h -2.49219 z m -14.77539,1.86328 c -1.02845,-0.34281 -1.92929,0.3855 -2.53711,1.15626 h -0.0371 v -1.04297 h -1.96484 v 9.7539 h 1.96484 v -5.86523 c 0,-0.71436 0.19349,-1.2312 0.58203,-1.55078 0.39476,-0.32585 0.83197,-0.48828 1.31446,-0.48828 0.43866,0 0.87274,0.16093 1.29883,0.48046 l 1.41992,-1.6914 c -0.64544,-0.50132 -1.3633,-0.52605 -2.04102,-0.75196 z m 6.43946,0 c -0.94621,0 -1.8536,0.36297 -2.72461,1.08985 -0.86475,0.72688 -1.29883,2.03882 -1.29883,3.9375 0,2.00521 0.47216,3.33465 1.41211,3.98633 0.93994,0.64545 1.90952,0.96679 2.91211,0.96679 0.65797,0 1.28906,-0.1174 1.89062,-0.35547 0.60783,-0.24437 1.15032,-0.64892 1.63281,-1.21289 l -1.41796,-1.21289 c -0.62036,0.62663 -1.33424,0.93946 -2.14258,0.93946 -0.67676,0 -1.23324,-0.20053 -1.67188,-0.60157 -0.43237,-0.40103 -0.65039,-1.00259 -0.65039,-1.80468 h 6.07031 v -1.61719 c 0,-1.2595 -0.40104,-2.25863 -1.20312,-2.99805 -0.80209,-0.74571 -1.73707,-1.1172 -2.80859,-1.11719 z m 0,1.84961 c 0.57648,0 1.05722,0.19545 1.43945,0.58399 0.38224,0.38848 0.58585,0.94851 0.61719,1.68164 h -4.11524 c 0.0187,-0.73313 0.2193,-1.29316 0.60156,-1.68164 0.3885,-0.38854 0.87427,-0.58399 1.45704,-0.58399 z" /><path
       id="rect485-8"
       style="display:inline;fill:#ffffff;stroke-width:2"
       d="m 184.33169,587.88708 c -0.90121,0 -1.60116,0.24023 -2.09961,0.71875 -0.49448,0.47852 -0.74023,1.09033 -0.74023,1.83203 0,0.63402 0.19506,1.17637 0.58984,1.62695 0.39477,0.44659 0.969,0.71856 1.72266,0.82227 0.22731,0.0319 0.42814,0.0619 0.59961,0.0859 0.1715,0.024 0.35726,0.0484 0.55664,0.0723 0.75764,0.0998 1.13867,0.49186 1.13867,1.17774 0,0.36289 -0.15582,0.65559 -0.46289,0.8789 -0.30704,0.22333 -0.72924,0.33594 -1.26758,0.33594 -0.46655,0 -0.91316,-0.0808 -1.33984,-0.24023 -0.42667,-0.15944 -0.80387,-0.3716 -1.13086,-0.63477 l -0.8711,0.99414 c 0.90918,0.79751 2.01619,1.19531 3.32813,1.19531 0.9331,0 1.67816,-0.2195 2.23242,-0.66211 0.55427,-0.44263 0.83008,-1.06566 0.83008,-1.86718 0,-0.59416 -0.1932,-1.13647 -0.58399,-1.62696 -0.3868,-0.49047 -0.98729,-0.78508 -1.80078,-0.88476 -0.21133,-0.024 -0.39703,-0.0485 -0.56054,-0.0684 -0.16345,-0.024 -0.30624,-0.0445 -0.42188,-0.0645 -0.44263,-0.0677 -0.75782,-0.20846 -0.94922,-0.42382 -0.19139,-0.21532 -0.28711,-0.44612 -0.28711,-0.69336 0,-0.41469 0.1407,-0.72624 0.42383,-0.9336 0.28312,-0.20737 0.62843,-0.31054 1.03516,-0.31054 0.38282,0 0.75813,0.0599 1.125,0.18359 0.36689,0.12356 0.71028,0.28697 1.02929,0.48633 l 0.73438,-1.0918 c -0.39876,-0.26319 -0.83408,-0.47694 -1.30859,-0.64844 -0.47453,-0.1715 -0.98317,-0.25976 -1.52149,-0.25976 z m 4.37891,0.0781 v 8.7168 h 1.25 v -3.69922 c 0,-0.41871 0.1184,-0.74521 0.34961,-0.98047 0.23527,-0.23528 0.52979,-0.35156 0.88867,-0.35156 0.34693,0 0.63593,0.11622 0.86719,0.35156 0.23529,0.23526 0.35156,0.56176 0.35156,0.98047 v 3.69922 h 1.25195 v -4.12891 c 0,-0.7018 -0.22714,-1.23665 -0.67773,-1.60351 -0.4466,-0.36688 -0.90814,-0.55078 -1.39063,-0.55078 -0.68985,0 -1.23037,0.24781 -1.61718,0.73828 h -0.0234 v -3.17188 z m 52.46484,0 v 8.7168 h 5.57422 v -1.24414 h -4.25195 v -7.47266 z m -33.67773,0.19922 -1.25,1.33203 v 0.97461 h -0.62305 v 0.95703 h 0.62305 v 5.25977 h 1.25 v -5.25977 h 0.91015 v -0.95703 h -0.91015 z m 54.57031,2.14649 c -0.2211,0.0931 -0.47571,0.25804 -0.61328,0.34179 -0.27116,0.16345 -0.47958,0.33431 -0.61914,0.50977 -0.17943,0.23527 -0.30135,0.48104 -0.36914,0.74023 -0.0639,0.25919 -0.0957,0.81643 -0.0957,1.67774 0,0.86134 0.0319,1.42246 0.0957,1.68164 0.0677,0.25919 0.1897,0.50505 0.36914,0.73633 0.13965,0.17946 0.34798,0.35213 0.61914,0.51562 0.27514,0.1596 0.61474,0.24024 1.02148,0.24024 0.63404,0 1.16887,-0.24026 1.60352,-0.71875 v 0.63867 c 0,0.43064 -0.1333,0.76481 -0.40039,0.99609 -0.26318,0.23128 -0.60287,0.34375 -1.01758,0.34375 -0.23926,0 -0.46638,-0.0543 -0.67773,-0.16601 -0.20736,-0.11165 -0.38558,-0.24301 -0.53711,-0.39454 l -0.97071,0.76954 c 0.27515,0.31103 0.60546,0.56445 0.98828,0.75586 0.38281,0.1914 0.7731,0.2871 1.17188,0.2871 0.70581,0 1.33076,-0.22143 1.87305,-0.66406 0.54633,-0.44264 0.82031,-1.13134 0.82031,-2.06445 v -6.06641 h -1.25 v 0.66602 c -0.46258,-0.49047 -1.60352,-0.13213 -1.60352,-0.73828 0,-0.20337 -0.1871,-0.18102 -0.4082,-0.0879 z m -64.52344,0.0879 c -0.4865,0 -0.87859,0.0884 -1.18164,0.25976 -0.29907,0.1715 -0.53557,0.34971 -0.70703,0.53711 -0.23926,0.26319 -0.41,0.55778 -0.51367,0.88477 -0.10378,0.32697 -0.15625,0.82428 -0.15625,1.49023 0,0.67788 0.0527,1.18083 0.15625,1.50781 0.1036,0.327 0.27441,0.62157 0.51367,0.88477 0.1715,0.1914 0.40796,0.36964 0.70703,0.53711 0.30305,0.16748 0.69514,0.25391 1.18164,0.25391 0.4785,0 0.87076,-0.0864 1.17383,-0.25391 0.30304,-0.16747 0.53948,-0.34571 0.71094,-0.53711 0.23925,-0.2632 0.41194,-0.55777 0.51562,-0.88477 0.1036,-0.32699 0.1543,-0.82993 0.1543,-1.50781 0,-0.66595 -0.0505,-1.16326 -0.1543,-1.49023 -0.1036,-0.32699 -0.27636,-0.62158 -0.51562,-0.88477 -0.1715,-0.1874 -0.4079,-0.36564 -0.71094,-0.53711 -0.30307,-0.1715 -0.69533,-0.25976 -1.17383,-0.25976 z m 6.76172,0 c -0.68986,0 -1.23039,0.24781 -1.61719,0.73828 h -0.0234 v -0.66602 h -1.25196 v 6.21094 h 1.25196 v -3.73242 c 0,-0.45457 0.12579,-0.78491 0.37304,-0.98828 0.25122,-0.20734 0.5289,-0.31055 0.83594,-0.31055 0.27914,0 0.55306,0.10129 0.82422,0.30469 l 0.90234,-1.07813 c -0.41072,-0.31902 -0.84034,-0.47851 -1.29492,-0.47851 z m 45.83398,0 c -0.48648,0 -0.87858,0.0884 -1.18164,0.25976 -0.29908,0.1715 -0.53556,0.34971 -0.70703,0.53711 -0.23926,0.26319 -0.41,0.55778 -0.51367,0.88477 -0.10377,0.32697 -0.15625,0.82428 -0.15625,1.49023 0,0.67788 0.0525,1.18083 0.15625,1.50781 0.1036,0.327 0.27441,0.62157 0.51367,0.88477 0.1715,0.1914 0.40795,0.36964 0.70703,0.53711 0.30306,0.16748 0.69517,0.25391 1.18164,0.25391 0.47853,0 0.87077,-0.0864 1.17383,-0.25391 0.30305,-0.16747 0.54143,-0.34571 0.71289,-0.53711 0.23926,-0.2632 0.40999,-0.55777 0.51368,-0.88477 0.1036,-0.32699 0.15625,-0.82993 0.15625,-1.50781 0,-0.66595 -0.0527,-1.16326 -0.15625,-1.49023 -0.1036,-0.32699 -0.27442,-0.62158 -0.51368,-0.88477 -0.1715,-0.1874 -0.40984,-0.36564 -0.71289,-0.53711 -0.30306,-0.1715 -0.69531,-0.25976 -1.17383,-0.25976 z m 6.76172,0 c -0.68985,0 -1.23038,0.24781 -1.61718,0.73828 h -0.0234 v -0.66602 h -1.24805 v 6.21094 h 1.24805 v -3.69922 c 0,-0.4187 0.11645,-0.74522 0.34766,-0.98047 0.23527,-0.23529 0.53368,-0.35156 0.89257,-0.35156 0.34692,0 0.63396,0.11622 0.86524,0.35156 0.23527,0.23525 0.35547,0.56177 0.35547,0.98047 v 3.69922 h 1.24804 v -4.12891 c 0,-0.70181 -0.22322,-1.23666 -0.67382,-1.60351 -0.44662,-0.3669 -0.91203,-0.55078 -1.39454,-0.55078 z m -59.35742,1.25195 c 0.45059,0 0.78653,0.1501 1.00586,0.45313 0.11165,0.16748 0.18855,0.34392 0.23242,0.52734 0.0478,0.18343 0.0723,0.49865 0.0723,0.94922 0,0.45063 -0.0245,0.77167 -0.0723,0.95508 -0.0439,0.18346 -0.12075,0.35605 -0.23242,0.51953 -0.21933,0.30307 -0.55527,0.45508 -1.00586,0.45508 -0.45859,0 -0.79255,-0.15203 -1.0039,-0.45508 -0.1197,-0.16345 -0.20223,-0.33607 -0.2461,-0.51953 -0.0399,-0.18739 -0.0586,-0.51026 -0.0586,-0.96485 0,-0.44265 0.0187,-0.75602 0.0586,-0.93945 0.0439,-0.18342 0.12652,-0.35985 0.2461,-0.52734 0.21135,-0.30305 0.54531,-0.45313 1.0039,-0.45313 z m 52.5957,0 c 0.45062,0 0.78655,0.1501 1.00586,0.45313 0.11165,0.16748 0.19245,0.34392 0.23633,0.52734 0.0478,0.18343 0.0703,0.49865 0.0703,0.94922 0,0.45063 -0.0225,0.77167 -0.0703,0.95508 -0.0439,0.18346 -0.12473,0.35605 -0.23633,0.51953 -0.21931,0.30307 -0.55524,0.45508 -1.00586,0.45508 -0.45857,0 -0.79255,-0.15203 -1.0039,-0.45508 -0.1197,-0.16345 -0.19832,-0.33607 -0.24219,-0.51953 -0.0399,-0.18739 -0.0625,-0.51026 -0.0625,-0.96485 0,-0.44265 0.0228,-0.75602 0.0625,-0.93945 0.0439,-0.18342 0.12254,-0.35985 0.24219,-0.52734 0.21135,-0.30305 0.54533,-0.45313 1.0039,-0.45313 z m 12.71876,0 c 0.24324,0 0.44597,0.0525 0.60546,0.16016 0.16345,0.10378 0.28727,0.21072 0.375,0.31836 0.10763,0.1435 0.17528,0.29741 0.19922,0.46093 0.028,0.16345 0.041,0.49374 0.041,0.99219 0,0.49845 -0.0123,0.83067 -0.041,0.99414 -0.024,0.16345 -0.0915,0.31552 -0.19922,0.45508 -0.0877,0.11165 -0.21149,0.21664 -0.375,0.32031 -0.15942,0.10378 -0.36221,0.15821 -0.60546,0.15821 -0.25122,0 -0.4576,-0.0544 -0.6211,-0.15821 -0.16345,-0.1036 -0.2893,-0.20866 -0.37305,-0.32031 -0.11165,-0.13948 -0.18107,-0.29157 -0.20898,-0.45508 -0.024,-0.16345 -0.0332,-0.49569 -0.0332,-0.99414 0,-0.49845 0.01,-0.82872 0.0332,-0.99219 0.028,-0.16345 0.0973,-0.31736 0.20898,-0.46093 0.0836,-0.10762 0.20958,-0.21467 0.37305,-0.31836 0.16345,-0.10762 0.36989,-0.16016 0.6211,-0.16016 z m -57.2754,7.91211 v 13.69531 h 2.07618 v -5.34765 h 3.1582 c 1.40364,0 2.46843,-0.44068 3.19531,-1.32422 0.73316,-0.88356 1.09961,-1.81349 1.09961,-2.79102 0,-0.73943 -0.14146,-1.3876 -0.42969,-1.94531 -0.28824,-0.56394 -0.63915,-1.00656 -1.05273,-1.32617 -0.53263,-0.41358 -1.04598,-0.67627 -1.54102,-0.78906 -0.48876,-0.11289 -1.00252,-0.17188 -1.53515,-0.17188 z m 28.5,0 v 13.69531 h 4.66211 c 1.01514,0 1.87589,-0.21606 2.58399,-0.64843 0.71435,-0.43864 1.27434,-0.97802 1.68164,-1.61719 0.30703,-0.47621 0.51106,-0.96858 0.61133,-1.48242 0.10658,-0.5201 0.16015,-1.55223 0.16015,-3.09375 0,-1.43497 -0.0362,-2.40454 -0.11132,-2.91211 -0.0752,-0.50756 -0.28467,-1.05591 -0.62305,-1.63868 -0.90862,-1.53524 -2.30021,-2.30274 -4.17383,-2.30273 z m -26.42382,1.96484 h 3.00781 c 0.60157,0 1.09432,0.12982 1.47656,0.38672 0.59529,0.38852 0.89063,0.99513 0.89063,1.82227 0,0.54516 -0.18809,1.04999 -0.57032,1.51367 -0.37599,0.46371 -0.9519,0.69727 -1.72265,0.69727 h -3.08203 z m 28.49804,0 h 2.49219 c 1.059,0 1.87314,0.38397 2.44336,1.14844 0.27572,0.37597 0.4471,0.79957 0.50977,1.26953 0.069,0.46997 0.10156,1.31672 0.10156,2.54492 0,1.27204 -0.0331,2.10872 -0.0957,2.50977 -0.0564,0.39478 -0.19435,0.76669 -0.41993,1.11133 -0.55142,0.79582 -1.3986,1.1914 -2.53906,1.1914 h -2.49219 z m -14.77539,1.86328 c -1.02845,-0.34281 -1.92929,0.3855 -2.53711,1.15626 h -0.0371 v -1.04297 h -1.96484 v 9.7539 h 1.96484 v -5.86523 c 0,-0.71436 0.19349,-1.2312 0.58203,-1.55078 0.39476,-0.32585 0.83197,-0.48828 1.31446,-0.48828 0.43866,0 0.87274,0.16093 1.29883,0.48046 l 1.41992,-1.6914 c -0.64544,-0.50132 -1.3633,-0.52605 -2.04102,-0.75196 z m 6.43946,0 c -0.94621,0 -1.8536,0.36297 -2.72461,1.08985 -0.86475,0.72688 -1.29883,2.03882 -1.29883,3.9375 0,2.00521 0.47216,3.33465 1.41211,3.98633 0.93994,0.64545 1.90952,0.96679 2.91211,0.96679 0.65797,0 1.28906,-0.1174 1.89062,-0.35547 0.60783,-0.24437 1.15032,-0.64892 1.63281,-1.21289 l -1.41796,-1.21289 c -0.62036,0.62663 -1.33424,0.93946 -2.14258,0.93946 -0.67676,0 -1.23324,-0.20053 -1.67188,-0.60157 -0.43237,-0.40103 -0.65039,-1.00259 -0.65039,-1.80468 h 6.07031 v -1.61719 c 0,-1.2595 -0.40104,-2.25863 -1.20312,-2.99805 -0.80209,-0.74571 -1.73707,-1.1172 -2.80859,-1.11719 z m 0,1.84961 c 0.57648,0 1.05722,0.19545 1.43945,0.58399 0.38224,0.38848 0.58585,0.94851 0.61719,1.68164 h -4.11524 c 0.0187,-0.73313 0.2193,-1.29316 0.60156,-1.68164 0.3885,-0.38854 0.87427,-0.58399 1.45704,-0.58399 z" /></g></svg>
