<?xml version="1.0" encoding="UTF-8" standalone="no"?>
<!-- Created with Inkscape (http://www.inkscape.org/) -->

<svg
   width="21.77685mm"
   height="7.9372659mm"
   viewBox="0 0 21.77685 7.9372659"
   version="1.1"
   id="svg1"
   inkscape:version="1.4 (86a8ad7, 2024-10-11)"
   sodipodi:docname="ExtrasNext.svg"
   xmlns:inkscape="http://www.inkscape.org/namespaces/inkscape"
   xmlns:sodipodi="http://sodipodi.sourceforge.net/DTD/sodipodi-0.dtd"
   xmlns="http://www.w3.org/2000/svg"
   xmlns:svg="http://www.w3.org/2000/svg">
  <sodipodi:namedview
     id="namedview1"
     pagecolor="#000000"
     bordercolor="#000000"
     borderopacity="0.25"
     inkscape:showpageshadow="2"
     inkscape:pageopacity="0.0"
     inkscape:pagecheckerboard="0"
     inkscape:deskcolor="#d1d1d1"
     inkscape:document-units="px"
     inkscape:zoom="4.5153252"
     inkscape:cx="21.260927"
     inkscape:cy="42.521854"
     inkscape:window-width="1920"
     inkscape:window-height="1017"
     inkscape:window-x="-8"
     inkscape:window-y="-8"
     inkscape:window-maximized="1"
     inkscape:current-layer="layer1" />
  <defs
     id="defs1" />
  <g
     inkscape:label="Layer 1"
     inkscape:groupmode="layer"
     id="layer1"
     transform="translate(-153.45833,-36.5125)">
    <g
       style="fill:none"
       id="g26"
       transform="matrix(-1.3818132,0,0,1.3818132,189.94931,14.862458)">
      <path
         d="m 13.64612,15.795345 c -0.169979,-0.169993 -0.445561,-0.169993 -0.615584,0 l -2.127432,2.129522 c -0.339694,0.340047 -0.339559,0.891034 3e-4,1.230863 l 2.128699,2.12873 c 0.170024,0.16998 0.445605,0.16998 0.615628,0 0.16998,-0.16998 0.16998,-0.445604 0,-0.615584 l -1.821983,-1.821982 c -0.169988,-0.16998 -0.169988,-0.445561 0,-0.615584 l 1.820372,-1.820377 c 0.170024,-0.169988 0.170024,-0.445599 0,-0.615588 z"
         fill="#0f0f0f"
         id="path26"
         style="fill:#ffffff;fill-opacity:1;stroke-width:0.435288" />
    </g>
    <path
       d="m 153.45833,42.289787 v -3.616433 h 2.31333 v 0.518763 h -1.76478 v 1.030073 h 1.50416 v 0.488977 h -1.50416 v 1.062341 h 1.76478 v 0.516279 z m 3.37319,-1.315516 -0.84392,-1.260912 h 0.62053 l 0.5138,0.833988 0.51379,-0.833988 h 0.62053 l -0.84392,1.260912 0.87867,1.315516 h -0.62053 l -0.54854,-0.856326 -0.54855,0.856326 h -0.62053 z m 1.87647,1.318001 v -2.181776 h -0.25813 v -0.397137 h 0.25813 v -0.404584 l 0.51876,-0.553511 v 0.958095 h 0.37729 v 0.397137 h -0.37729 v 2.181776 z m 1.38254,-0.0024 v -2.576427 h 0.51876 v 0.275513 h 0.01 q 0.24077,-0.3053 0.67017,-0.3053 0.28296,0 0.53862,0.19857 l -0.3748,0.44678 q -0.16878,-0.12659 -0.34253,-0.12659 -0.19112,0 -0.3475,0.129072 -0.15389,0.126587 -0.15389,0.409549 v 1.548833 z m 3.34092,0.0099 v -0.228354 h -0.01 q -0.072,0.134033 -0.21595,0.193604 -0.15389,0.06453 -0.4021,0.06453 -0.42692,-0.0099 -0.64535,-0.228353 -0.23828,-0.218425 -0.23828,-0.558475 0,-0.322673 0.20602,-0.541099 0.20601,-0.218424 0.60811,-0.223391 h 0.69748 v -0.273031 q 0.002,-0.34253 -0.5138,-0.332603 -0.17871,0 -0.29785,0.03971 -0.11666,0.05212 -0.17623,0.161338 l -0.39714,-0.312745 q 0.28792,-0.384728 0.8464,-0.374801 0.46912,-0.005 0.75456,0.183676 0.28048,0.196088 0.28544,0.665208 v 1.764778 z m 0,-0.90597 v -0.18864 h -0.60315 q -0.44182,0.01241 -0.43686,0.312745 0,0.129069 0.11418,0.223391 0.10921,0.101766 0.35991,0.101766 0.31771,0.005 0.44678,-0.07695 0.11914,-0.08191 0.11914,-0.372316 z m 0.79179,0.466638 0.36239,-0.357426 q 0.33757,0.330121 0.81165,0.330121 0.22091,0 0.36487,-0.08191 0.14396,-0.08439 0.14396,-0.248211 0,-0.225872 -0.31523,-0.253174 l -0.4567,-0.0422 q -0.3202,-0.02482 -0.53117,-0.210979 -0.21099,-0.186158 -0.21099,-0.518761 0,-0.392173 0.27552,-0.593224 0.27551,-0.201052 0.68506,-0.201052 0.33757,0 0.57833,0.0968 0.24077,0.09432 0.43189,0.253175 l -0.32019,0.377282 q -0.15389,-0.104251 -0.31771,-0.171267 -0.16382,-0.06702 -0.37232,-0.06702 -0.24821,0 -0.34501,0.08936 -0.0968,0.08688 -0.0968,0.220909 0,0.08439 0.072,0.156374 0.072,0.07198 0.26807,0.08687 l 0.42692,0.02979 q 0.39962,0.0273 0.57336,0.24821 0.17375,0.218427 0.17375,0.523727 0,0.379762 -0.31026,0.585777 -0.31026,0.206015 -0.75704,0.206015 -0.64287,0 -1.13433,-0.459189 z"
       id="text29"
       style="font-size:19.2127px;font-family:'Alte DIN 1451 Mittelschrift';-inkscape-font-specification:'Alte DIN 1451 Mittelschrift';text-align:end;text-anchor:end;fill:#ffffff;stroke-width:0.303271"
       aria-label="Extras" />
  </g>
</svg>
