<?xml version="1.0" encoding="UTF-8" standalone="no"?>
<!-- Uploaded to: SVG Repo, www.svgrepo.com, Generator: SVG Repo Mixer Tools -->

<svg
   width="800px"
   height="800px"
   viewBox="0 0 24 24"
   role="img"
   aria-labelledby="dangerIconTitle"
   stroke="#000000"
   stroke-width="2"
   stroke-linecap="round"
   stroke-linejoin="round"
   fill="none"
   color="#000000"
   version="1.1"
   id="svg2"
   sodipodi:docname="DangerOff.svg"
   inkscape:version="1.2.2 (732a01da63, 2022-12-09)"
   xmlns:inkscape="http://www.inkscape.org/namespaces/inkscape"
   xmlns:sodipodi="http://sodipodi.sourceforge.net/DTD/sodipodi-0.dtd"
   xmlns:xlink="http://www.w3.org/1999/xlink"
   xmlns="http://www.w3.org/2000/svg"
   xmlns:svg="http://www.w3.org/2000/svg"
   xmlns:rdf="http://www.w3.org/1999/02/22-rdf-syntax-ns#"
   xmlns:cc="http://creativecommons.org/ns#"
   xmlns:dc="http://purl.org/dc/elements/1.1/">
  <defs
     id="defs2">
    <linearGradient
       id="linearGradient6"
       inkscape:collect="always">
      <stop
         style="stop-color:#769cb4;stop-opacity:1;"
         offset="0"
         id="stop6" />
      <stop
         style="stop-color:#001122;stop-opacity:1;"
         offset="1"
         id="stop7" />
    </linearGradient>
    <linearGradient
       inkscape:collect="always"
       xlink:href="#linearGradient6"
       id="linearGradient7"
       x1="11.999721"
       y1="3.8228671"
       x2="11.999721"
       y2="20.15"
       gradientUnits="userSpaceOnUse" />
  </defs>
  <sodipodi:namedview
     id="namedview2"
     pagecolor="#ffffff"
     bordercolor="#000000"
     borderopacity="0.25"
     inkscape:showpageshadow="2"
     inkscape:pageopacity="0.0"
     inkscape:pagecheckerboard="0"
     inkscape:deskcolor="#d1d1d1"
     inkscape:zoom="0.7919596"
     inkscape:cx="224.12759"
     inkscape:cy="372.49375"
     inkscape:window-width="1440"
     inkscape:window-height="837"
     inkscape:window-x="-8"
     inkscape:window-y="-8"
     inkscape:window-maximized="1"
     inkscape:current-layer="svg2"
     showgrid="false" />
  <title
     id="dangerIconTitle">Danger</title>
  <path
     id="path5"
     style="fill:#000000;stroke:none;fill-opacity:1"
     sodipodi:type="inkscape:offset"
     inkscape:radius="0"
     inkscape:original="M 11.5 3.0429688 C 11.002509 3.1719479 10.552407 3.4880559 10.275391 3.9589844 L 2.0253906 17.986328 C 1.8446224 18.293634 1.7480469 18.643469 1.7480469 19 C 1.7480469 20.092725 2.655322 21 3.7480469 21 L 20.251953 21 C 20.608484 21 20.958319 20.90538 21.265625 20.724609 C 22.207482 20.170576 22.528643 18.928185 21.974609 17.986328 L 13.724609 3.9589844 C 13.552215 3.6659144 13.306742 3.4204409 13.013672 3.2480469 C 12.542743 2.9710301 11.997491 2.9139896 11.5 3.0429688 z M 12 4.9726562 L 20.251953 19 L 3.7480469 19 L 12 4.9726562 z "
     d="M 11.5,3.0429688 C 11.002509,3.1719479 10.552407,3.4880559 10.275391,3.9589844 L 2.0253906,17.986328 C 1.8446224,18.293634 1.7480469,18.643469 1.7480469,19 c 0,1.092725 0.9072751,2 2,2 H 20.251953 c 0.356531,0 0.706366,-0.09462 1.013672,-0.275391 0.941857,-0.554033 1.263018,-1.796424 0.708984,-2.738281 l -8.25,-14.0273436 C 13.552215,3.6659144 13.306742,3.4204409 13.013672,3.2480469 12.542743,2.9710301 11.997491,2.9139896 11.5,3.0429688 Z M 12,4.9726562 20.251953,19 H 3.7480469 Z"
     transform="matrix(0.98152006,0,0,0.98152006,0.22451471,0.23292485)" />
  <path
     style="fill:#0f2435;stroke:url(#linearGradient7);stroke-opacity:1;stroke-width:0.6;stroke-dasharray:none"
     d="M 12.861934,4.4652882 21.113518,18.49298 c 0.280019,0.476033 0.121119,1.088935 -0.354915,1.368954 C 20.604927,19.952332 20.429876,20 20.251583,20 H 3.7484166 c -0.5522847,0 -1,-0.447715 -1,-1 0,-0.178293 0.047668,-0.353344 0.1380658,-0.50702 L 11.138066,4.4652882 c 0.280019,-0.4760332 0.892921,-0.6349336 1.368954,-0.3549141 0.146554,0.086208 0.268706,0.2083604 0.354914,0.3549141 z"
     id="path4" />
  <path
     id="path1"
     style="fill:#3b566b;stroke:none;fill-opacity:1"
     d="M 12 9 A 1 1 0 0 0 10.99998 10.00002 L 10.99998 13.00002 A 1 1 0 0 0 12 13.99998 A 1 1 0 0 0 13.00002 13.00002 L 13.00002 10.00002 A 1 1 0 0 0 12 9 z M 12 15 A 1 1 0 0 0 10.99998 16.00002 A 1 1 0 0 0 12 16.99998 A 1 1 0 0 0 13.00002 16.00002 A 1 1 0 0 0 12 15 z " />
  <metadata
     id="metadata8">
    <rdf:RDF>
      <cc:Work
         rdf:about="">
        <dc:title>Danger</dc:title>
      </cc:Work>
    </rdf:RDF>
  </metadata>
</svg>
