<?xml version="1.0" encoding="UTF-8" standalone="no"?>
<!-- Created with Inkscape (http://www.inkscape.org/) -->

<svg
   width="90"
   height="30"
   viewBox="0 0 23.812501 7.9375001"
   version="1.1"
   id="svg1"
   inkscape:version="1.4 (86a8ad7, 2024-10-11)"
   sodipodi:docname="ExtrasNext.svg"
   xmlns:inkscape="http://www.inkscape.org/namespaces/inkscape"
   xmlns:sodipodi="http://sodipodi.sourceforge.net/DTD/sodipodi-0.dtd"
   xmlns="http://www.w3.org/2000/svg"
   xmlns:svg="http://www.w3.org/2000/svg">
  <sodipodi:namedview
     id="namedview1"
     pagecolor="#000000"
     bordercolor="#000000"
     borderopacity="0.25"
     inkscape:showpageshadow="2"
     inkscape:pageopacity="0.0"
     inkscape:pagecheckerboard="0"
     inkscape:deskcolor="#d1d1d1"
     inkscape:document-units="px"
     inkscape:zoom="4.5153252"
     inkscape:cx="27.019095"
     inkscape:cy="35.434879"
     inkscape:window-width="1920"
     inkscape:window-height="1017"
     inkscape:window-x="-8"
     inkscape:window-y="-8"
     inkscape:window-maximized="1"
     inkscape:current-layer="layer1" />
  <defs
     id="defs1" />
  <g
     inkscape:label="Layer 1"
     inkscape:groupmode="layer"
     id="layer1"
     transform="translate(-154.13773,-36.5125)">
    <g
       style="fill:none"
       id="g26"
       transform="matrix(-1.3818132,0,0,1.3818132,192.66435,14.862458)">
      <path
         d="m 13.64612,15.795345 c -0.169979,-0.169993 -0.445561,-0.169993 -0.615584,0 l -2.127432,2.129522 c -0.339694,0.340047 -0.339559,0.891034 3e-4,1.230863 l 2.128699,2.12873 c 0.170024,0.16998 0.445605,0.16998 0.615628,0 0.16998,-0.16998 0.16998,-0.445604 0,-0.615584 l -1.821983,-1.821982 c -0.169988,-0.16998 -0.169988,-0.445561 0,-0.615584 l 1.820372,-1.820377 c 0.170024,-0.169988 0.170024,-0.445599 0,-0.615588 z"
         fill="#0f0f0f"
         id="path26"
         style="fill:#ffffff;fill-opacity:1;stroke-width:0.435288" />
    </g>
    <path
       d="m 157.01809,42.228262 v -3.532819 h 2.25984 v 0.506767 h -1.72398 v 1.006259 h 1.46939 v 0.47767 h -1.46939 v 1.037781 h 1.72398 v 0.504342 z m 3.2952,-1.285102 -0.82441,-1.231759 h 0.60618 l 0.50192,0.814707 0.50192,-0.814707 h 0.60618 l -0.82441,1.231759 0.85835,1.285102 h -0.60618 l -0.53586,-0.836529 -0.53586,0.836529 h -0.60618 z m 1.83309,1.287527 v -2.13133 h -0.25217 v -0.387956 h 0.25217 v -0.395229 l 0.50676,-0.540713 v 0.935942 h 0.36856 v 0.387956 h -0.36856 v 2.13133 z m 1.35057,-0.0024 v -2.516861 h 0.50676 v 0.269145 h 0.01 q 0.2352,-0.298241 0.65468,-0.298241 0.27642,0 0.52616,0.193977 l -0.36613,0.43645 q -0.16488,-0.12366 -0.33461,-0.12366 -0.18671,0 -0.33946,0.126085 -0.15034,0.123661 -0.15034,0.400079 v 1.513026 z m 3.26367,0.0097 v -0.223074 h -0.01 q -0.0703,0.130935 -0.21095,0.189128 -0.15033,0.06304 -0.3928,0.06304 -0.41705,-0.0097 -0.63043,-0.223074 -0.23277,-0.213376 -0.23277,-0.545563 0,-0.315214 0.20125,-0.528589 0.20125,-0.213376 0.59405,-0.218225 h 0.68135 v -0.266719 q 0.002,-0.334612 -0.50192,-0.324913 -0.17458,0 -0.29096,0.0388 -0.11396,0.05092 -0.17216,0.157607 l -0.38795,-0.305515 q 0.28126,-0.375831 0.82683,-0.366133 0.45827,-0.0048 0.73711,0.17943 0.274,0.191553 0.27885,0.649825 v 1.723977 z m 0,-0.885023 v -0.184279 h -0.58921 q -0.4316,0.01212 -0.42675,0.305515 0,0.126086 0.11154,0.218225 0.10669,0.09941 0.35159,0.09941 0.31036,0.0048 0.43645,-0.07517 0.11638,-0.08002 0.11638,-0.363708 z m 0.77349,0.455848 0.35401,-0.34916 q 0.32976,0.322488 0.79288,0.322488 0.2158,0 0.35644,-0.08002 0.14063,-0.08244 0.14063,-0.242472 0,-0.22065 -0.30794,-0.247322 l -0.44615,-0.04122 q -0.31279,-0.02425 -0.51889,-0.206102 -0.2061,-0.181854 -0.2061,-0.506766 0,-0.383106 0.26914,-0.579509 0.26915,-0.196402 0.66923,-0.196402 0.32976,0 0.56496,0.09456 0.23519,0.09214 0.4219,0.247321 l -0.31279,0.368558 q -0.15033,-0.101838 -0.31037,-0.167306 -0.16003,-0.06547 -0.3637,-0.06547 -0.24248,0 -0.33704,0.08729 -0.0946,0.08487 -0.0946,0.2158 0,0.08244 0.0703,0.152758 0.0703,0.07032 0.26187,0.08487 l 0.41705,0.0291 q 0.39039,0.02667 0.56012,0.242473 0.16973,0.213375 0.16973,0.511616 0,0.370982 -0.30309,0.572234 -0.30309,0.201252 -0.73954,0.201252 -0.62801,0 -1.1081,-0.448573 z"
       id="text2"
       style="font-size:4.96583px;font-family:'Alte DIN 1451 Mittelschrift';-inkscape-font-specification:'Alte DIN 1451 Mittelschrift';fill:#ffffff;stroke-width:0.33858"
       aria-label="Extras" />
  </g>
</svg>
