<?xml version="1.0" encoding="UTF-8" standalone="no"?>
<!-- Generator: Adobe Illustrator 19.0.0, SVG Export Plug-In . SVG Version: 6.00 Build 0)  -->

<svg
   version="1.1"
   id="svg8"
   x="0px"
   y="0px"
   width="315"
   height="665"
   viewBox="67 220 315 665"
   xml:space="preserve"
   sodipodi:docname="ExtrasPage.svg"
   inkscape:version="1.4 (86a8ad7, 2024-10-11)"
   inkscape:export-filename="..\artwork\background.png"
   inkscape:export-xdpi="168"
   inkscape:export-ydpi="168"
   xmlns:inkscape="http://www.inkscape.org/namespaces/inkscape"
   xmlns:sodipodi="http://sodipodi.sourceforge.net/DTD/sodipodi-0.dtd"
   xmlns:xlink="http://www.w3.org/1999/xlink"
   xmlns="http://www.w3.org/2000/svg"
   xmlns:svg="http://www.w3.org/2000/svg"
   xmlns:rdf="http://www.w3.org/1999/02/22-rdf-syntax-ns#"
   xmlns:cc="http://creativecommons.org/ns#"
   xmlns:dc="http://purl.org/dc/elements/1.1/"><sodipodi:namedview
     id="namedview7"
     pagecolor="#000000"
     bordercolor="#000000"
     borderopacity="0.25"
     inkscape:showpageshadow="2"
     inkscape:pageopacity="0.0"
     inkscape:pagecheckerboard="0"
     inkscape:deskcolor="#d1d1d1"
     showgrid="false"
     inkscape:zoom="3.8109334"
     inkscape:cx="207.2983"
     inkscape:cy="329.84045"
     inkscape:window-width="1920"
     inkscape:window-height="1017"
     inkscape:window-x="-8"
     inkscape:window-y="-8"
     inkscape:window-maximized="1"
     inkscape:current-layer="layer1" /><metadata
     id="metadata186"><rdf:RDF><cc:Work
         rdf:about=""><dc:format>image/svg+xml</dc:format><dc:type
           rdf:resource="http://purl.org/dc/dcmitype/StillImage" /></cc:Work></rdf:RDF></metadata><style
     type="text/css"
     id="style2">
	.st0{fill:#282828;}
	.st1{fill:none;stroke:#FFFFFF;stroke-miterlimit:10;}
	.st2{fill:#FFFFFF;stroke:#FFFFFF;stroke-miterlimit:10;}
	.st3{fill:#FFFFFF;}
	.st4{font-family:'AlteDIN1451Mittelschrift';}
	.st5{font-size:18px;}
	.st6{font-size:11px;}
	.st7{font-size:7px;}
	.st8{font-size:10px;}
	.st9{fill:none;stroke:#FFFFFF;}
</style><defs
     id="defs6"><linearGradient
       id="linearGradient8"
       inkscape:collect="always"><stop
         style="stop-color:#a50000;stop-opacity:1;"
         offset="0"
         id="stop8" /><stop
         style="stop-color:#a50000;stop-opacity:1;"
         offset="0.5"
         id="stop10" /><stop
         style="stop-color:#ff6868;stop-opacity:1;"
         offset="0.5"
         id="stop11" /><stop
         style="stop-color:#ff6868;stop-opacity:1;"
         offset="1"
         id="stop9" /></linearGradient><linearGradient
       id="SVGID_1_-5"
       gradientUnits="userSpaceOnUse"
       x1="19.841801"
       y1="6.9124599e-06"
       x2="19.841801"
       y2="39.683609"
       gradientTransform="matrix(0.8,0,0,0.8,1.5279541e-7,-7.4839478e-6)"><stop
         offset="0"
         style="stop-color:#FFFBFD"
         id="stop3-0" /><stop
         offset="1"
         style="stop-color:#000000"
         id="stop5-2" /></linearGradient><linearGradient
       id="SVGID_2_"
       gradientUnits="userSpaceOnUse"
       x1="-1249.2573"
       y1="-1000.3318"
       x2="-1249.2573"
       y2="-999.22754"
       gradientTransform="matrix(-3.1365719,0,0,-3.1365719,-3693.0118,-2583.9395)">
	<stop
   offset="0"
   style="stop-color:#FDFDFF"
   id="stop12" />
	<stop
   offset="1"
   style="stop-color:#FCFEFF;stop-opacity:0"
   id="stop14" />
</linearGradient><linearGradient
       id="SVGID_1_"
       gradientUnits="userSpaceOnUse"
       x1="1.5"
       y1="0.27405"
       x2="1.5"
       y2="1.37839"
       gradientTransform="matrix(3.1365719,0,0,3.1365719,220.6685,545.05198)">
	<stop
   offset="0"
   style="stop-color:#FDFDFF"
   id="stop5" />
	<stop
   offset="1"
   style="stop-color:#FCFEFF;stop-opacity:0"
   id="stop7" />
</linearGradient><filter
       style="color-interpolation-filters:sRGB"
       inkscape:label="Feather"
       id="filter20"
       x="-0.66132945"
       y="-0.66132945"
       width="2.322659"
       height="2.322659"><feGaussianBlur
         stdDeviation="1.8236882"
         result="blur"
         id="feGaussianBlur18" /><feComposite
         in="SourceGraphic"
         in2="blur"
         operator="atop"
         result="composite1"
         id="feComposite18" /><feComposite
         in2="composite1"
         operator="in"
         result="composite2"
         id="feComposite19" /><feComposite
         in2="composite2"
         operator="in"
         result="composite3"
         id="feComposite20" /></filter><linearGradient
       id="SVGID_2_-1"
       gradientUnits="userSpaceOnUse"
       x1="-1249.2573"
       y1="-1000.3318"
       x2="-1249.2573"
       y2="-999.22754"
       gradientTransform="matrix(-3.1365719,0,0,-3.1365719,-3692.8647,-2584.1069)">
	<stop
   offset="0"
   style="stop-color:#FDFDFF"
   id="stop12-8" />
	<stop
   offset="1"
   style="stop-color:#FCFEFF;stop-opacity:0"
   id="stop14-9" />
</linearGradient><linearGradient
       id="SVGID_1_-2"
       gradientUnits="userSpaceOnUse"
       x1="1.5"
       y1="0.27405"
       x2="1.5"
       y2="1.37839"
       gradientTransform="matrix(3.1365719,0,0,3.1365719,220.8156,544.88457)">
	<stop
   offset="0"
   style="stop-color:#FDFDFF"
   id="stop5-7" />
	<stop
   offset="1"
   style="stop-color:#FCFEFF;stop-opacity:0"
   id="stop7-9" />
</linearGradient><filter
       style="color-interpolation-filters:sRGB"
       inkscape:label="Feather"
       id="filter20-5"
       x="-0.66132945"
       y="-0.66132945"
       width="2.322659"
       height="2.322659"><feGaussianBlur
         stdDeviation="1.8236882"
         result="blur"
         id="feGaussianBlur18-4" /><feComposite
         in="SourceGraphic"
         in2="blur"
         operator="atop"
         result="composite1"
         id="feComposite18-3" /><feComposite
         in2="composite1"
         operator="in"
         result="composite2"
         id="feComposite19-1" /><feComposite
         in2="composite2"
         operator="in"
         result="composite3"
         id="feComposite20-2" /></filter><clipPath
       id="clip444"><path
         d="m 1201.582,338.19922 h 18 v 18 h -18 z m 0,0"
         id="path24586"
         inkscape:connector-curvature="0" /></clipPath><linearGradient
       id="SVGID_2_-3"
       gradientUnits="userSpaceOnUse"
       x1="-1249.2573"
       y1="-1000.3318"
       x2="-1249.2573"
       y2="-999.22754"
       gradientTransform="matrix(-3.1365719,0,0,-3.1365719,-3692.0508,-2583.0405)"><stop
         offset="0"
         style="stop-color:#FDFDFF"
         id="stop12-3" /><stop
         offset="1"
         style="stop-color:#FCFEFF;stop-opacity:0"
         id="stop14-4" /></linearGradient><linearGradient
       id="SVGID_1_-1"
       gradientUnits="userSpaceOnUse"
       x1="1.5"
       y1="0.27405"
       x2="1.5"
       y2="1.37839"
       gradientTransform="matrix(3.1365719,0,0,3.1365719,221.62954,545.95101)"><stop
         offset="0"
         style="stop-color:#FDFDFF"
         id="stop5-1" /><stop
         offset="1"
         style="stop-color:#FCFEFF;stop-opacity:0"
         id="stop7-3" /></linearGradient><filter
       style="color-interpolation-filters:sRGB"
       inkscape:label="Feather"
       id="filter20-8"
       x="-0.66132945"
       y="-0.66132945"
       width="2.322659"
       height="2.322659"><feGaussianBlur
         stdDeviation="1.8236882"
         result="blur"
         id="feGaussianBlur18-7" /><feComposite
         in="SourceGraphic"
         in2="blur"
         operator="atop"
         result="composite1"
         id="feComposite18-4" /><feComposite
         in2="composite1"
         operator="in"
         result="composite2"
         id="feComposite19-2" /><feComposite
         in2="composite2"
         operator="in"
         result="composite3"
         id="feComposite20-7" /></filter><filter
       style="color-interpolation-filters:sRGB"
       inkscape:label="Feather"
       id="filter20-2"
       x="-0.66132945"
       y="-0.66132945"
       width="2.322659"
       height="2.322659"><feGaussianBlur
         stdDeviation="1.8236882"
         result="blur"
         id="feGaussianBlur18-8" /><feComposite
         in="SourceGraphic"
         in2="blur"
         operator="atop"
         result="composite1"
         id="feComposite18-6" /><feComposite
         in2="composite1"
         operator="in"
         result="composite2"
         id="feComposite19-0" /><feComposite
         in2="composite2"
         operator="in"
         result="composite3"
         id="feComposite20-24" /></filter><linearGradient
       id="SVGID_2_-8"
       gradientUnits="userSpaceOnUse"
       x1="-1249.2573"
       y1="-1000.3318"
       x2="-1249.2573"
       y2="-999.22754"
       gradientTransform="matrix(-3.1365719,0,0,-3.1365719,-3674.7467,-2447.3843)"><stop
         offset="0"
         style="stop-color:#FDFDFF"
         id="stop12-6" /><stop
         offset="1"
         style="stop-color:#FCFEFF;stop-opacity:0"
         id="stop14-5" /></linearGradient><linearGradient
       id="SVGID_1_-0"
       gradientUnits="userSpaceOnUse"
       x1="1.5"
       y1="0.27405"
       x2="1.5"
       y2="1.37839"
       gradientTransform="matrix(3.1365719,0,0,3.1365719,238.93364,681.60722)"><stop
         offset="0"
         style="stop-color:#FDFDFF"
         id="stop5-9" /><stop
         offset="1"
         style="stop-color:#FCFEFF;stop-opacity:0"
         id="stop7-0" /></linearGradient><filter
       style="color-interpolation-filters:sRGB"
       inkscape:label="Feather"
       id="filter20-0"
       x="-0.46162084"
       y="-0.46162084"
       width="1.9232417"
       height="1.9232417"><feGaussianBlur
         stdDeviation="1.2729698"
         result="blur"
         id="feGaussianBlur18-6" /><feComposite
         in="SourceGraphic"
         in2="blur"
         operator="atop"
         result="composite1"
         id="feComposite18-1" /><feComposite
         in2="composite1"
         operator="in"
         result="composite2"
         id="feComposite19-3" /><feComposite
         in2="composite2"
         operator="in"
         result="composite3"
         id="feComposite20-8" /></filter><linearGradient
       id="SVGID_2_-9"
       gradientUnits="userSpaceOnUse"
       x1="-1249.2573"
       y1="-1000.3318"
       x2="-1249.2573"
       y2="-999.22754"
       gradientTransform="matrix(-3.1365719,0,0,-3.1365719,-3830.336,-2688.1827)"><stop
         offset="0"
         style="stop-color:#FDFDFF"
         id="stop12-34" /><stop
         offset="1"
         style="stop-color:#FCFEFF;stop-opacity:0"
         id="stop14-46" /></linearGradient><linearGradient
       id="SVGID_1_-06"
       gradientUnits="userSpaceOnUse"
       x1="1.5"
       y1="0.27405"
       x2="1.5"
       y2="1.37839"
       gradientTransform="matrix(3.1365719,0,0,3.1365719,83.344517,440.80902)"><stop
         offset="0"
         style="stop-color:#FDFDFF"
         id="stop5-6" /><stop
         offset="1"
         style="stop-color:#FCFEFF;stop-opacity:0"
         id="stop7-1" /></linearGradient><clipPath
       clipPathUnits="userSpaceOnUse"
       id="clipPath1"><rect
         style="opacity:0.396947;fill:#0f2435;stroke-width:1.11601;stroke-linecap:square;stroke-miterlimit:4.2"
         id="rect2"
         width="9.0521126"
         height="9.0521126"
         x="44.115078"
         y="66.184074" /></clipPath><filter
       style="color-interpolation-filters:sRGB"
       inkscape:label="Feather"
       id="filter20-84"
       x="-0.46162084"
       y="-0.46162084"
       width="1.9232417"
       height="1.9232417"><feGaussianBlur
         stdDeviation="1.2729698"
         result="blur"
         id="feGaussianBlur18-9" /><feComposite
         in="SourceGraphic"
         in2="blur"
         operator="atop"
         result="composite1"
         id="feComposite18-63" /><feComposite
         in2="composite1"
         operator="in"
         result="composite2"
         id="feComposite19-7" /><feComposite
         in2="composite2"
         operator="in"
         result="composite3"
         id="feComposite20-88" /></filter><linearGradient
       id="SVGID_2_-2"
       gradientUnits="userSpaceOnUse"
       x1="-1249.2573"
       y1="-1000.3318"
       x2="-1249.2573"
       y2="-999.22754"
       gradientTransform="matrix(-0.82988463,0,0,-0.82988463,-988.09828,-758.42311)"><stop
         offset="0"
         style="stop-color:#FDFDFF"
         id="stop12-9" /><stop
         offset="1"
         style="stop-color:#FCFEFF;stop-opacity:0"
         id="stop14-1" /></linearGradient><clipPath
       clipPathUnits="userSpaceOnUse"
       id="clipPath11"><rect
         style="opacity:0.396947;fill:#0f2435;stroke-width:1.89517;stroke-linecap:square;stroke-miterlimit:4.2"
         id="rect11"
         width="15.372027"
         height="15.372027"
         x="40.955151"
         y="63.024132" /></clipPath><linearGradient
       id="SVGID_1_-3"
       gradientUnits="userSpaceOnUse"
       x1="1.5"
       y1="0.27405"
       x2="1.5"
       y2="1.37839"
       gradientTransform="matrix(0.82988463,0,0,0.82988463,47.396309,69.455888)"><stop
         offset="0"
         style="stop-color:#FDFDFF"
         id="stop5-5" /><stop
         offset="1"
         style="stop-color:#FCFEFF;stop-opacity:0"
         id="stop7-98" /></linearGradient><clipPath
       clipPathUnits="userSpaceOnUse"
       id="clipPath12"><rect
         style="opacity:0.396947;fill:#0f2435;stroke-width:1.89517;stroke-linecap:square;stroke-miterlimit:4.2"
         id="rect12"
         width="15.372027"
         height="15.372027"
         x="40.955151"
         y="63.024132" /></clipPath><clipPath
       clipPathUnits="userSpaceOnUse"
       id="clipPath13"><rect
         style="opacity:0.396947;fill:#0f2435;stroke-width:1.89517;stroke-linecap:square;stroke-miterlimit:4.2"
         id="rect13"
         width="15.372027"
         height="15.372027"
         x="40.955151"
         y="63.024132" /></clipPath><clipPath
       clipPathUnits="userSpaceOnUse"
       id="clipPath14"><rect
         style="opacity:0.396947;fill:#0f2435;stroke-width:1.11601;stroke-linecap:square;stroke-miterlimit:4.2"
         id="rect14"
         width="9.0521126"
         height="9.0521126"
         x="44.115078"
         y="66.184074" /></clipPath><filter
       style="color-interpolation-filters:sRGB"
       inkscape:label="Feather"
       id="filter20-4"
       x="-0.46162084"
       y="-0.46162084"
       width="1.9232417"
       height="1.9232417"><feGaussianBlur
         stdDeviation="1.2729698"
         result="blur"
         id="feGaussianBlur18-0" /><feComposite
         in="SourceGraphic"
         in2="blur"
         operator="atop"
         result="composite1"
         id="feComposite18-7" /><feComposite
         in2="composite1"
         operator="in"
         result="composite2"
         id="feComposite19-6" /><feComposite
         in2="composite2"
         operator="in"
         result="composite3"
         id="feComposite20-3" /></filter><clipPath
       clipPathUnits="userSpaceOnUse"
       id="clipPath11-2"><rect
         style="opacity:0.396947;fill:#0f2435;stroke-width:1.89517;stroke-linecap:square;stroke-miterlimit:4.2"
         id="rect11-0"
         width="15.372027"
         height="15.372027"
         x="40.955151"
         y="63.024132" /></clipPath><clipPath
       clipPathUnits="userSpaceOnUse"
       id="clipPath12-2"><rect
         style="opacity:0.396947;fill:#0f2435;stroke-width:1.89517;stroke-linecap:square;stroke-miterlimit:4.2"
         id="rect12-6"
         width="15.372027"
         height="15.372027"
         x="40.955151"
         y="63.024132" /></clipPath><clipPath
       clipPathUnits="userSpaceOnUse"
       id="clipPath13-0"><rect
         style="opacity:0.396947;fill:#0f2435;stroke-width:1.89517;stroke-linecap:square;stroke-miterlimit:4.2"
         id="rect13-1"
         width="15.372027"
         height="15.372027"
         x="40.955151"
         y="63.024132" /></clipPath><clipPath
       clipPathUnits="userSpaceOnUse"
       id="clipPath14-6"><rect
         style="opacity:0.396947;fill:#0f2435;stroke-width:1.11601;stroke-linecap:square;stroke-miterlimit:4.2"
         id="rect14-5"
         width="9.0521126"
         height="9.0521126"
         x="44.115078"
         y="66.184074" /></clipPath><filter
       style="color-interpolation-filters:sRGB"
       inkscape:label="Feather"
       id="filter20-7"
       x="-0.46162084"
       y="-0.46162084"
       width="1.9232417"
       height="1.9232417"><feGaussianBlur
         stdDeviation="1.2729698"
         result="blur"
         id="feGaussianBlur18-5" /><feComposite
         in="SourceGraphic"
         in2="blur"
         operator="atop"
         result="composite1"
         id="feComposite18-41" /><feComposite
         in2="composite1"
         operator="in"
         result="composite2"
         id="feComposite19-20" /><feComposite
         in2="composite2"
         operator="in"
         result="composite3"
         id="feComposite20-0" /></filter><linearGradient
       id="SVGID_2_-20"
       gradientUnits="userSpaceOnUse"
       x1="-1249.2573"
       y1="-1000.3318"
       x2="-1249.2573"
       y2="-999.22754"
       gradientTransform="matrix(-0.82988463,0,0,-0.82988463,-988.09828,-758.42311)"><stop
         offset="0"
         style="stop-color:#FDFDFF"
         id="stop12-97" /><stop
         offset="1"
         style="stop-color:#FCFEFF;stop-opacity:0"
         id="stop14-3" /></linearGradient><clipPath
       clipPathUnits="userSpaceOnUse"
       id="clipPath11-7"><rect
         style="opacity:0.396947;fill:#0f2435;stroke-width:1.89517;stroke-linecap:square;stroke-miterlimit:4.2"
         id="rect11-2"
         width="15.372027"
         height="15.372027"
         x="40.955151"
         y="63.024132" /></clipPath><linearGradient
       id="SVGID_1_-6"
       gradientUnits="userSpaceOnUse"
       x1="1.5"
       y1="0.27405"
       x2="1.5"
       y2="1.37839"
       gradientTransform="matrix(0.82988463,0,0,0.82988463,47.396309,69.455888)"><stop
         offset="0"
         style="stop-color:#FDFDFF"
         id="stop5-0" /><stop
         offset="1"
         style="stop-color:#FCFEFF;stop-opacity:0"
         id="stop7-16" /></linearGradient><clipPath
       clipPathUnits="userSpaceOnUse"
       id="clipPath12-5"><rect
         style="opacity:0.396947;fill:#0f2435;stroke-width:1.89517;stroke-linecap:square;stroke-miterlimit:4.2"
         id="rect12-7"
         width="15.372027"
         height="15.372027"
         x="40.955151"
         y="63.024132" /></clipPath><clipPath
       clipPathUnits="userSpaceOnUse"
       id="clipPath14-5"><rect
         style="opacity:0.396947;fill:#0f2435;stroke-width:1.11601;stroke-linecap:square;stroke-miterlimit:4.2"
         id="rect14-4"
         width="9.0521126"
         height="9.0521126"
         x="44.115078"
         y="66.184074" /></clipPath><filter
       style="color-interpolation-filters:sRGB"
       inkscape:label="Feather"
       id="filter20-1"
       x="-0.46162084"
       y="-0.46162084"
       width="1.9232417"
       height="1.9232417"><feGaussianBlur
         stdDeviation="1.2729698"
         result="blur"
         id="feGaussianBlur18-2" /><feComposite
         in="SourceGraphic"
         in2="blur"
         operator="atop"
         result="composite1"
         id="feComposite18-0" /><feComposite
         in2="composite1"
         operator="in"
         result="composite2"
         id="feComposite19-01" /><feComposite
         in2="composite2"
         operator="in"
         result="composite3"
         id="feComposite20-4" /></filter><linearGradient
       inkscape:collect="always"
       xlink:href="#linearGradient8"
       id="linearGradient9"
       x1="308.79218"
       y1="760.64514"
       x2="311.79633"
       y2="763.64929"
       gradientUnits="userSpaceOnUse"
       spreadMethod="repeat"
       gradientTransform="translate(30.000433)" /><linearGradient
       inkscape:collect="always"
       xlink:href="#linearGradient8"
       id="linearGradient20"
       gradientUnits="userSpaceOnUse"
       x1="308.79218"
       y1="760.64514"
       x2="311.79633"
       y2="763.64929"
       spreadMethod="repeat"
       gradientTransform="translate(30.000433)" /></defs><g
     id="layer1"
     transform="translate(0,-196.5)"
     inkscape:groupmode="layer"
     inkscape:label="Layer 1"><path
       id="rect485"
       style="display:none;fill:#ffffff;stroke-width:2"
       d="m 184.33203,534.88672 c -0.90121,0 -1.60116,0.24023 -2.09961,0.71875 -0.49448,0.47852 -0.74023,1.09033 -0.74023,1.83203 0,0.63402 0.19506,1.17637 0.58984,1.62695 0.39477,0.44659 0.969,0.71856 1.72266,0.82227 0.22731,0.0319 0.42814,0.0619 0.59961,0.0859 0.1715,0.024 0.35726,0.0484 0.55664,0.0723 0.75764,0.0998 1.13867,0.49186 1.13867,1.17774 0,0.36289 -0.15582,0.65559 -0.46289,0.8789 -0.30704,0.22333 -0.72924,0.33594 -1.26758,0.33594 -0.46655,0 -0.91316,-0.0808 -1.33984,-0.24023 -0.42667,-0.15944 -0.80387,-0.3716 -1.13086,-0.63477 l -0.8711,0.99414 c 0.90918,0.79751 2.01619,1.19531 3.32813,1.19531 0.9331,0 1.67816,-0.2195 2.23242,-0.66211 0.55427,-0.44263 0.83008,-1.06566 0.83008,-1.86718 0,-0.59416 -0.1932,-1.13647 -0.58399,-1.62696 -0.3868,-0.49047 -0.98729,-0.78508 -1.80078,-0.88476 -0.21133,-0.024 -0.39703,-0.0485 -0.56054,-0.0684 -0.16345,-0.024 -0.30624,-0.0445 -0.42188,-0.0645 -0.44263,-0.0677 -0.75782,-0.20846 -0.94922,-0.42382 -0.19139,-0.21532 -0.28711,-0.44612 -0.28711,-0.69336 0,-0.41469 0.1407,-0.72624 0.42383,-0.9336 0.28312,-0.20737 0.62843,-0.31054 1.03516,-0.31054 0.38282,0 0.75813,0.0599 1.125,0.18359 0.36689,0.12356 0.71028,0.28697 1.02929,0.48633 l 0.73438,-1.0918 c -0.39876,-0.26319 -0.83408,-0.47694 -1.30859,-0.64844 -0.47453,-0.1715 -0.98317,-0.25976 -1.52149,-0.25976 z m 4.37891,0.0781 v 8.7168 h 1.25 v -3.69922 c 0,-0.41871 0.1184,-0.74521 0.34961,-0.98047 0.23527,-0.23528 0.52979,-0.35156 0.88867,-0.35156 0.34693,0 0.63593,0.11622 0.86719,0.35156 0.23529,0.23526 0.35156,0.56176 0.35156,0.98047 v 3.69922 h 1.25195 v -4.12891 c 0,-0.7018 -0.22714,-1.23665 -0.67773,-1.60351 -0.4466,-0.36688 -0.90814,-0.55078 -1.39063,-0.55078 -0.68985,0 -1.23037,0.24781 -1.61718,0.73828 h -0.0234 v -3.17188 z m 52.46484,0 v 8.7168 H 246.75 v -1.24414 h -4.25195 v -7.47266 z m -33.67773,0.19922 -1.25,1.33203 v 0.97461 H 205.625 v 0.95703 h 0.62305 v 5.25977 h 1.25 v -5.25977 h 0.91015 v -0.95703 h -0.91015 z m 54.57031,2.14649 c -0.2211,0.0931 -0.47571,0.25804 -0.61328,0.34179 -0.27116,0.16345 -0.47958,0.33431 -0.61914,0.50977 -0.17943,0.23527 -0.30135,0.48104 -0.36914,0.74023 -0.0639,0.25919 -0.0957,0.81643 -0.0957,1.67774 0,0.86134 0.0319,1.42246 0.0957,1.68164 0.0677,0.25919 0.1897,0.50505 0.36914,0.73633 0.13965,0.17946 0.34798,0.35213 0.61914,0.51562 0.27514,0.1596 0.61474,0.24024 1.02148,0.24024 0.63404,0 1.16887,-0.24026 1.60352,-0.71875 v 0.63867 c 0,0.43064 -0.1333,0.76481 -0.40039,0.99609 -0.26318,0.23128 -0.60287,0.34375 -1.01758,0.34375 -0.23926,0 -0.46638,-0.0543 -0.67773,-0.16601 -0.20736,-0.11165 -0.38558,-0.24301 -0.53711,-0.39454 l -0.97071,0.76954 c 0.27515,0.31103 0.60546,0.56445 0.98828,0.75586 0.38281,0.1914 0.7731,0.2871 1.17188,0.2871 0.70581,0 1.33076,-0.22143 1.87305,-0.66406 0.54633,-0.44264 0.82031,-1.13134 0.82031,-2.06445 v -6.06641 h -1.25 v 0.66602 c -0.46258,-0.49047 -1.60352,-0.13213 -1.60352,-0.73828 0,-0.20337 -0.1871,-0.18102 -0.4082,-0.0879 z m -64.52344,0.0879 c -0.4865,0 -0.87859,0.0884 -1.18164,0.25976 -0.29907,0.1715 -0.53557,0.34971 -0.70703,0.53711 -0.23926,0.26319 -0.41,0.55778 -0.51367,0.88477 -0.10378,0.32697 -0.15625,0.82428 -0.15625,1.49023 0,0.67788 0.0527,1.18083 0.15625,1.50781 0.1036,0.327 0.27441,0.62157 0.51367,0.88477 0.1715,0.1914 0.40796,0.36964 0.70703,0.53711 0.30305,0.16748 0.69514,0.25391 1.18164,0.25391 0.4785,0 0.87076,-0.0864 1.17383,-0.25391 0.30304,-0.16747 0.53948,-0.34571 0.71094,-0.53711 0.23925,-0.2632 0.41194,-0.55777 0.51562,-0.88477 0.1036,-0.32699 0.1543,-0.82993 0.1543,-1.50781 0,-0.66595 -0.0505,-1.16326 -0.1543,-1.49023 -0.1036,-0.32699 -0.27636,-0.62158 -0.51562,-0.88477 -0.1715,-0.1874 -0.4079,-0.36564 -0.71094,-0.53711 -0.30307,-0.1715 -0.69533,-0.25976 -1.17383,-0.25976 z m 6.76172,0 c -0.68986,0 -1.23039,0.24781 -1.61719,0.73828 h -0.0234 v -0.66602 h -1.25196 v 6.21094 h 1.25196 v -3.73242 c 0,-0.45457 0.12579,-0.78491 0.37304,-0.98828 0.25122,-0.20734 0.5289,-0.31055 0.83594,-0.31055 0.27914,0 0.55306,0.10129 0.82422,0.30469 l 0.90234,-1.07813 c -0.41072,-0.31902 -0.84034,-0.47851 -1.29492,-0.47851 z m 45.83398,0 c -0.48648,0 -0.87858,0.0884 -1.18164,0.25976 -0.29908,0.1715 -0.53556,0.34971 -0.70703,0.53711 -0.23926,0.26319 -0.41,0.55778 -0.51367,0.88477 -0.10377,0.32697 -0.15625,0.82428 -0.15625,1.49023 0,0.67788 0.0525,1.18083 0.15625,1.50781 0.1036,0.327 0.27441,0.62157 0.51367,0.88477 0.1715,0.1914 0.40795,0.36964 0.70703,0.53711 0.30306,0.16748 0.69517,0.25391 1.18164,0.25391 0.47853,0 0.87077,-0.0864 1.17383,-0.25391 0.30305,-0.16747 0.54143,-0.34571 0.71289,-0.53711 0.23926,-0.2632 0.40999,-0.55777 0.51368,-0.88477 0.1036,-0.32699 0.15625,-0.82993 0.15625,-1.50781 0,-0.66595 -0.0527,-1.16326 -0.15625,-1.49023 -0.1036,-0.32699 -0.27442,-0.62158 -0.51368,-0.88477 -0.1715,-0.1874 -0.40984,-0.36564 -0.71289,-0.53711 -0.30306,-0.1715 -0.69531,-0.25976 -1.17383,-0.25976 z m 6.76172,0 c -0.68985,0 -1.23038,0.24781 -1.61718,0.73828 h -0.0234 v -0.66602 h -1.24805 v 6.21094 h 1.24805 v -3.69922 c 0,-0.4187 0.11645,-0.74522 0.34766,-0.98047 0.23527,-0.23529 0.53368,-0.35156 0.89257,-0.35156 0.34692,0 0.63396,0.11622 0.86524,0.35156 0.23527,0.23525 0.35547,0.56177 0.35547,0.98047 v 3.69922 h 1.24804 v -4.12891 c 0,-0.70181 -0.22322,-1.23666 -0.67382,-1.60351 -0.44662,-0.3669 -0.91203,-0.55078 -1.39454,-0.55078 z m -59.35742,1.25195 c 0.45059,0 0.78653,0.1501 1.00586,0.45313 0.11165,0.16748 0.18855,0.34392 0.23242,0.52734 0.0478,0.18343 0.0723,0.49865 0.0723,0.94922 0,0.45063 -0.0245,0.77167 -0.0723,0.95508 -0.0439,0.18346 -0.12075,0.35605 -0.23242,0.51953 -0.21933,0.30307 -0.55527,0.45508 -1.00586,0.45508 -0.45859,0 -0.79255,-0.15203 -1.0039,-0.45508 -0.1197,-0.16345 -0.20223,-0.33607 -0.2461,-0.51953 -0.0399,-0.18739 -0.0586,-0.51026 -0.0586,-0.96485 0,-0.44265 0.0187,-0.75602 0.0586,-0.93945 0.0439,-0.18342 0.12652,-0.35985 0.2461,-0.52734 0.21135,-0.30305 0.54531,-0.45313 1.0039,-0.45313 z m 52.5957,0 c 0.45062,0 0.78655,0.1501 1.00586,0.45313 0.11165,0.16748 0.19245,0.34392 0.23633,0.52734 0.0478,0.18343 0.0703,0.49865 0.0703,0.94922 0,0.45063 -0.0225,0.77167 -0.0703,0.95508 -0.0439,0.18346 -0.12473,0.35605 -0.23633,0.51953 -0.21931,0.30307 -0.55524,0.45508 -1.00586,0.45508 -0.45857,0 -0.79255,-0.15203 -1.0039,-0.45508 -0.1197,-0.16345 -0.19832,-0.33607 -0.24219,-0.51953 -0.0399,-0.18739 -0.0625,-0.51026 -0.0625,-0.96485 0,-0.44265 0.0228,-0.75602 0.0625,-0.93945 0.0439,-0.18342 0.12254,-0.35985 0.24219,-0.52734 0.21135,-0.30305 0.54533,-0.45313 1.0039,-0.45313 z m 12.71876,0 c 0.24324,0 0.44597,0.0525 0.60546,0.16016 0.16345,0.10378 0.28727,0.21072 0.375,0.31836 0.10763,0.1435 0.17528,0.29741 0.19922,0.46093 0.028,0.16345 0.041,0.49374 0.041,0.99219 0,0.49845 -0.0123,0.83067 -0.041,0.99414 -0.024,0.16345 -0.0915,0.31552 -0.19922,0.45508 -0.0877,0.11165 -0.21149,0.21664 -0.375,0.32031 -0.15942,0.10378 -0.36221,0.15821 -0.60546,0.15821 -0.25122,0 -0.4576,-0.0544 -0.6211,-0.15821 -0.16345,-0.1036 -0.2893,-0.20866 -0.37305,-0.32031 -0.11165,-0.13948 -0.18107,-0.29157 -0.20898,-0.45508 -0.024,-0.16345 -0.0332,-0.49569 -0.0332,-0.99414 0,-0.49845 0.01,-0.82872 0.0332,-0.99219 0.028,-0.16345 0.0973,-0.31736 0.20898,-0.46093 0.0836,-0.10762 0.20958,-0.21467 0.37305,-0.31836 0.16345,-0.10762 0.36989,-0.16016 0.6211,-0.16016 z m -57.2754,7.91211 v 13.69531 h 2.07618 v -5.34765 h 3.1582 c 1.40364,0 2.46843,-0.44068 3.19531,-1.32422 0.73316,-0.88356 1.09961,-1.81349 1.09961,-2.79102 0,-0.73943 -0.14146,-1.3876 -0.42969,-1.94531 -0.28824,-0.56394 -0.63915,-1.00656 -1.05273,-1.32617 -0.53263,-0.41358 -1.04598,-0.67627 -1.54102,-0.78906 -0.48876,-0.11289 -1.00252,-0.17188 -1.53515,-0.17188 z m 28.5,0 v 13.69531 h 4.66211 c 1.01514,0 1.87589,-0.21606 2.58399,-0.64843 0.71435,-0.43864 1.27434,-0.97802 1.68164,-1.61719 0.30703,-0.47621 0.51106,-0.96858 0.61133,-1.48242 0.10658,-0.5201 0.16015,-1.55223 0.16015,-3.09375 0,-1.43497 -0.0362,-2.40454 -0.11132,-2.91211 -0.0752,-0.50756 -0.28467,-1.05591 -0.62305,-1.63868 -0.90862,-1.53524 -2.30021,-2.30274 -4.17383,-2.30273 z m -26.42382,1.96484 h 3.00781 c 0.60157,0 1.09432,0.12982 1.47656,0.38672 0.59529,0.38852 0.89063,0.99513 0.89063,1.82227 0,0.54516 -0.18809,1.04999 -0.57032,1.51367 -0.37599,0.46371 -0.9519,0.69727 -1.72265,0.69727 h -3.08203 z m 28.49804,0 h 2.49219 c 1.059,0 1.87314,0.38397 2.44336,1.14844 0.27572,0.37597 0.4471,0.79957 0.50977,1.26953 0.069,0.46997 0.10156,1.31672 0.10156,2.54492 0,1.27204 -0.0331,2.10872 -0.0957,2.50977 -0.0564,0.39478 -0.19435,0.76669 -0.41993,1.11133 -0.55142,0.79582 -1.3986,1.1914 -2.53906,1.1914 h -2.49219 z m -14.77539,1.86328 c -1.02845,-0.34281 -1.92929,0.3855 -2.53711,1.15626 h -0.0371 v -1.04297 h -1.96484 v 9.7539 h 1.96484 v -5.86523 c 0,-0.71436 0.19349,-1.2312 0.58203,-1.55078 0.39476,-0.32585 0.83197,-0.48828 1.31446,-0.48828 0.43866,0 0.87274,0.16093 1.29883,0.48046 l 1.41992,-1.6914 c -0.64544,-0.50132 -1.3633,-0.52605 -2.04102,-0.75196 z m 6.43946,0 c -0.94621,0 -1.8536,0.36297 -2.72461,1.08985 -0.86475,0.72688 -1.29883,2.03882 -1.29883,3.9375 0,2.00521 0.47216,3.33465 1.41211,3.98633 0.93994,0.64545 1.90952,0.96679 2.91211,0.96679 0.65797,0 1.28906,-0.1174 1.89062,-0.35547 0.60783,-0.24437 1.15032,-0.64892 1.63281,-1.21289 l -1.41796,-1.21289 c -0.62036,0.62663 -1.33424,0.93946 -2.14258,0.93946 -0.67676,0 -1.23324,-0.20053 -1.67188,-0.60157 -0.43237,-0.40103 -0.65039,-1.00259 -0.65039,-1.80468 h 6.07031 v -1.61719 c 0,-1.2595 -0.40104,-2.25863 -1.20312,-2.99805 -0.80209,-0.74571 -1.73707,-1.1172 -2.80859,-1.11719 z m 0,1.84961 c 0.57648,0 1.05722,0.19545 1.43945,0.58399 0.38224,0.38848 0.58585,0.94851 0.61719,1.68164 h -4.11524 c 0.0187,-0.73313 0.2193,-1.29316 0.60156,-1.68164 0.3885,-0.38854 0.87427,-0.58399 1.45704,-0.58399 z" /><path
       id="rect485-8"
       style="display:inline;fill:#ffffff;stroke-width:2"
       d="m 184.33169,587.88708 c -0.90121,0 -1.60116,0.24023 -2.09961,0.71875 -0.49448,0.47852 -0.74023,1.09033 -0.74023,1.83203 0,0.63402 0.19506,1.17637 0.58984,1.62695 0.39477,0.44659 0.969,0.71856 1.72266,0.82227 0.22731,0.0319 0.42814,0.0619 0.59961,0.0859 0.1715,0.024 0.35726,0.0484 0.55664,0.0723 0.75764,0.0998 1.13867,0.49186 1.13867,1.17774 0,0.36289 -0.15582,0.65559 -0.46289,0.8789 -0.30704,0.22333 -0.72924,0.33594 -1.26758,0.33594 -0.46655,0 -0.91316,-0.0808 -1.33984,-0.24023 -0.42667,-0.15944 -0.80387,-0.3716 -1.13086,-0.63477 l -0.8711,0.99414 c 0.90918,0.79751 2.01619,1.19531 3.32813,1.19531 0.9331,0 1.67816,-0.2195 2.23242,-0.66211 0.55427,-0.44263 0.83008,-1.06566 0.83008,-1.86718 0,-0.59416 -0.1932,-1.13647 -0.58399,-1.62696 -0.3868,-0.49047 -0.98729,-0.78508 -1.80078,-0.88476 -0.21133,-0.024 -0.39703,-0.0485 -0.56054,-0.0684 -0.16345,-0.024 -0.30624,-0.0445 -0.42188,-0.0645 -0.44263,-0.0677 -0.75782,-0.20846 -0.94922,-0.42382 -0.19139,-0.21532 -0.28711,-0.44612 -0.28711,-0.69336 0,-0.41469 0.1407,-0.72624 0.42383,-0.9336 0.28312,-0.20737 0.62843,-0.31054 1.03516,-0.31054 0.38282,0 0.75813,0.0599 1.125,0.18359 0.36689,0.12356 0.71028,0.28697 1.02929,0.48633 l 0.73438,-1.0918 c -0.39876,-0.26319 -0.83408,-0.47694 -1.30859,-0.64844 -0.47453,-0.1715 -0.98317,-0.25976 -1.52149,-0.25976 z m 4.37891,0.0781 v 8.7168 h 1.25 v -3.69922 c 0,-0.41871 0.1184,-0.74521 0.34961,-0.98047 0.23527,-0.23528 0.52979,-0.35156 0.88867,-0.35156 0.34693,0 0.63593,0.11622 0.86719,0.35156 0.23529,0.23526 0.35156,0.56176 0.35156,0.98047 v 3.69922 h 1.25195 v -4.12891 c 0,-0.7018 -0.22714,-1.23665 -0.67773,-1.60351 -0.4466,-0.36688 -0.90814,-0.55078 -1.39063,-0.55078 -0.68985,0 -1.23037,0.24781 -1.61718,0.73828 h -0.0234 v -3.17188 z m 52.46484,0 v 8.7168 h 5.57422 v -1.24414 h -4.25195 v -7.47266 z m -33.67773,0.19922 -1.25,1.33203 v 0.97461 h -0.62305 v 0.95703 h 0.62305 v 5.25977 h 1.25 v -5.25977 h 0.91015 v -0.95703 h -0.91015 z m 54.57031,2.14649 c -0.2211,0.0931 -0.47571,0.25804 -0.61328,0.34179 -0.27116,0.16345 -0.47958,0.33431 -0.61914,0.50977 -0.17943,0.23527 -0.30135,0.48104 -0.36914,0.74023 -0.0639,0.25919 -0.0957,0.81643 -0.0957,1.67774 0,0.86134 0.0319,1.42246 0.0957,1.68164 0.0677,0.25919 0.1897,0.50505 0.36914,0.73633 0.13965,0.17946 0.34798,0.35213 0.61914,0.51562 0.27514,0.1596 0.61474,0.24024 1.02148,0.24024 0.63404,0 1.16887,-0.24026 1.60352,-0.71875 v 0.63867 c 0,0.43064 -0.1333,0.76481 -0.40039,0.99609 -0.26318,0.23128 -0.60287,0.34375 -1.01758,0.34375 -0.23926,0 -0.46638,-0.0543 -0.67773,-0.16601 -0.20736,-0.11165 -0.38558,-0.24301 -0.53711,-0.39454 l -0.97071,0.76954 c 0.27515,0.31103 0.60546,0.56445 0.98828,0.75586 0.38281,0.1914 0.7731,0.2871 1.17188,0.2871 0.70581,0 1.33076,-0.22143 1.87305,-0.66406 0.54633,-0.44264 0.82031,-1.13134 0.82031,-2.06445 v -6.06641 h -1.25 v 0.66602 c -0.46258,-0.49047 -1.60352,-0.13213 -1.60352,-0.73828 0,-0.20337 -0.1871,-0.18102 -0.4082,-0.0879 z m -64.52344,0.0879 c -0.4865,0 -0.87859,0.0884 -1.18164,0.25976 -0.29907,0.1715 -0.53557,0.34971 -0.70703,0.53711 -0.23926,0.26319 -0.41,0.55778 -0.51367,0.88477 -0.10378,0.32697 -0.15625,0.82428 -0.15625,1.49023 0,0.67788 0.0527,1.18083 0.15625,1.50781 0.1036,0.327 0.27441,0.62157 0.51367,0.88477 0.1715,0.1914 0.40796,0.36964 0.70703,0.53711 0.30305,0.16748 0.69514,0.25391 1.18164,0.25391 0.4785,0 0.87076,-0.0864 1.17383,-0.25391 0.30304,-0.16747 0.53948,-0.34571 0.71094,-0.53711 0.23925,-0.2632 0.41194,-0.55777 0.51562,-0.88477 0.1036,-0.32699 0.1543,-0.82993 0.1543,-1.50781 0,-0.66595 -0.0505,-1.16326 -0.1543,-1.49023 -0.1036,-0.32699 -0.27636,-0.62158 -0.51562,-0.88477 -0.1715,-0.1874 -0.4079,-0.36564 -0.71094,-0.53711 -0.30307,-0.1715 -0.69533,-0.25976 -1.17383,-0.25976 z m 6.76172,0 c -0.68986,0 -1.23039,0.24781 -1.61719,0.73828 h -0.0234 v -0.66602 h -1.25196 v 6.21094 h 1.25196 v -3.73242 c 0,-0.45457 0.12579,-0.78491 0.37304,-0.98828 0.25122,-0.20734 0.5289,-0.31055 0.83594,-0.31055 0.27914,0 0.55306,0.10129 0.82422,0.30469 l 0.90234,-1.07813 c -0.41072,-0.31902 -0.84034,-0.47851 -1.29492,-0.47851 z m 45.83398,0 c -0.48648,0 -0.87858,0.0884 -1.18164,0.25976 -0.29908,0.1715 -0.53556,0.34971 -0.70703,0.53711 -0.23926,0.26319 -0.41,0.55778 -0.51367,0.88477 -0.10377,0.32697 -0.15625,0.82428 -0.15625,1.49023 0,0.67788 0.0525,1.18083 0.15625,1.50781 0.1036,0.327 0.27441,0.62157 0.51367,0.88477 0.1715,0.1914 0.40795,0.36964 0.70703,0.53711 0.30306,0.16748 0.69517,0.25391 1.18164,0.25391 0.47853,0 0.87077,-0.0864 1.17383,-0.25391 0.30305,-0.16747 0.54143,-0.34571 0.71289,-0.53711 0.23926,-0.2632 0.40999,-0.55777 0.51368,-0.88477 0.1036,-0.32699 0.15625,-0.82993 0.15625,-1.50781 0,-0.66595 -0.0527,-1.16326 -0.15625,-1.49023 -0.1036,-0.32699 -0.27442,-0.62158 -0.51368,-0.88477 -0.1715,-0.1874 -0.40984,-0.36564 -0.71289,-0.53711 -0.30306,-0.1715 -0.69531,-0.25976 -1.17383,-0.25976 z m 6.76172,0 c -0.68985,0 -1.23038,0.24781 -1.61718,0.73828 h -0.0234 v -0.66602 h -1.24805 v 6.21094 h 1.24805 v -3.69922 c 0,-0.4187 0.11645,-0.74522 0.34766,-0.98047 0.23527,-0.23529 0.53368,-0.35156 0.89257,-0.35156 0.34692,0 0.63396,0.11622 0.86524,0.35156 0.23527,0.23525 0.35547,0.56177 0.35547,0.98047 v 3.69922 h 1.24804 v -4.12891 c 0,-0.70181 -0.22322,-1.23666 -0.67382,-1.60351 -0.44662,-0.3669 -0.91203,-0.55078 -1.39454,-0.55078 z m -59.35742,1.25195 c 0.45059,0 0.78653,0.1501 1.00586,0.45313 0.11165,0.16748 0.18855,0.34392 0.23242,0.52734 0.0478,0.18343 0.0723,0.49865 0.0723,0.94922 0,0.45063 -0.0245,0.77167 -0.0723,0.95508 -0.0439,0.18346 -0.12075,0.35605 -0.23242,0.51953 -0.21933,0.30307 -0.55527,0.45508 -1.00586,0.45508 -0.45859,0 -0.79255,-0.15203 -1.0039,-0.45508 -0.1197,-0.16345 -0.20223,-0.33607 -0.2461,-0.51953 -0.0399,-0.18739 -0.0586,-0.51026 -0.0586,-0.96485 0,-0.44265 0.0187,-0.75602 0.0586,-0.93945 0.0439,-0.18342 0.12652,-0.35985 0.2461,-0.52734 0.21135,-0.30305 0.54531,-0.45313 1.0039,-0.45313 z m 52.5957,0 c 0.45062,0 0.78655,0.1501 1.00586,0.45313 0.11165,0.16748 0.19245,0.34392 0.23633,0.52734 0.0478,0.18343 0.0703,0.49865 0.0703,0.94922 0,0.45063 -0.0225,0.77167 -0.0703,0.95508 -0.0439,0.18346 -0.12473,0.35605 -0.23633,0.51953 -0.21931,0.30307 -0.55524,0.45508 -1.00586,0.45508 -0.45857,0 -0.79255,-0.15203 -1.0039,-0.45508 -0.1197,-0.16345 -0.19832,-0.33607 -0.24219,-0.51953 -0.0399,-0.18739 -0.0625,-0.51026 -0.0625,-0.96485 0,-0.44265 0.0228,-0.75602 0.0625,-0.93945 0.0439,-0.18342 0.12254,-0.35985 0.24219,-0.52734 0.21135,-0.30305 0.54533,-0.45313 1.0039,-0.45313 z m 12.71876,0 c 0.24324,0 0.44597,0.0525 0.60546,0.16016 0.16345,0.10378 0.28727,0.21072 0.375,0.31836 0.10763,0.1435 0.17528,0.29741 0.19922,0.46093 0.028,0.16345 0.041,0.49374 0.041,0.99219 0,0.49845 -0.0123,0.83067 -0.041,0.99414 -0.024,0.16345 -0.0915,0.31552 -0.19922,0.45508 -0.0877,0.11165 -0.21149,0.21664 -0.375,0.32031 -0.15942,0.10378 -0.36221,0.15821 -0.60546,0.15821 -0.25122,0 -0.4576,-0.0544 -0.6211,-0.15821 -0.16345,-0.1036 -0.2893,-0.20866 -0.37305,-0.32031 -0.11165,-0.13948 -0.18107,-0.29157 -0.20898,-0.45508 -0.024,-0.16345 -0.0332,-0.49569 -0.0332,-0.99414 0,-0.49845 0.01,-0.82872 0.0332,-0.99219 0.028,-0.16345 0.0973,-0.31736 0.20898,-0.46093 0.0836,-0.10762 0.20958,-0.21467 0.37305,-0.31836 0.16345,-0.10762 0.36989,-0.16016 0.6211,-0.16016 z m -57.2754,7.91211 v 13.69531 h 2.07618 v -5.34765 h 3.1582 c 1.40364,0 2.46843,-0.44068 3.19531,-1.32422 0.73316,-0.88356 1.09961,-1.81349 1.09961,-2.79102 0,-0.73943 -0.14146,-1.3876 -0.42969,-1.94531 -0.28824,-0.56394 -0.63915,-1.00656 -1.05273,-1.32617 -0.53263,-0.41358 -1.04598,-0.67627 -1.54102,-0.78906 -0.48876,-0.11289 -1.00252,-0.17188 -1.53515,-0.17188 z m 28.5,0 v 13.69531 h 4.66211 c 1.01514,0 1.87589,-0.21606 2.58399,-0.64843 0.71435,-0.43864 1.27434,-0.97802 1.68164,-1.61719 0.30703,-0.47621 0.51106,-0.96858 0.61133,-1.48242 0.10658,-0.5201 0.16015,-1.55223 0.16015,-3.09375 0,-1.43497 -0.0362,-2.40454 -0.11132,-2.91211 -0.0752,-0.50756 -0.28467,-1.05591 -0.62305,-1.63868 -0.90862,-1.53524 -2.30021,-2.30274 -4.17383,-2.30273 z m -26.42382,1.96484 h 3.00781 c 0.60157,0 1.09432,0.12982 1.47656,0.38672 0.59529,0.38852 0.89063,0.99513 0.89063,1.82227 0,0.54516 -0.18809,1.04999 -0.57032,1.51367 -0.37599,0.46371 -0.9519,0.69727 -1.72265,0.69727 h -3.08203 z m 28.49804,0 h 2.49219 c 1.059,0 1.87314,0.38397 2.44336,1.14844 0.27572,0.37597 0.4471,0.79957 0.50977,1.26953 0.069,0.46997 0.10156,1.31672 0.10156,2.54492 0,1.27204 -0.0331,2.10872 -0.0957,2.50977 -0.0564,0.39478 -0.19435,0.76669 -0.41993,1.11133 -0.55142,0.79582 -1.3986,1.1914 -2.53906,1.1914 h -2.49219 z m -14.77539,1.86328 c -1.02845,-0.34281 -1.92929,0.3855 -2.53711,1.15626 h -0.0371 v -1.04297 h -1.96484 v 9.7539 h 1.96484 v -5.86523 c 0,-0.71436 0.19349,-1.2312 0.58203,-1.55078 0.39476,-0.32585 0.83197,-0.48828 1.31446,-0.48828 0.43866,0 0.87274,0.16093 1.29883,0.48046 l 1.41992,-1.6914 c -0.64544,-0.50132 -1.3633,-0.52605 -2.04102,-0.75196 z m 6.43946,0 c -0.94621,0 -1.8536,0.36297 -2.72461,1.08985 -0.86475,0.72688 -1.29883,2.03882 -1.29883,3.9375 0,2.00521 0.47216,3.33465 1.41211,3.98633 0.93994,0.64545 1.90952,0.96679 2.91211,0.96679 0.65797,0 1.28906,-0.1174 1.89062,-0.35547 0.60783,-0.24437 1.15032,-0.64892 1.63281,-1.21289 l -1.41796,-1.21289 c -0.62036,0.62663 -1.33424,0.93946 -2.14258,0.93946 -0.67676,0 -1.23324,-0.20053 -1.67188,-0.60157 -0.43237,-0.40103 -0.65039,-1.00259 -0.65039,-1.80468 h 6.07031 v -1.61719 c 0,-1.2595 -0.40104,-2.25863 -1.20312,-2.99805 -0.80209,-0.74571 -1.73707,-1.1172 -2.80859,-1.11719 z m 0,1.84961 c 0.57648,0 1.05722,0.19545 1.43945,0.58399 0.38224,0.38848 0.58585,0.94851 0.61719,1.68164 h -4.11524 c 0.0187,-0.73313 0.2193,-1.29316 0.60156,-1.68164 0.3885,-0.38854 0.87427,-0.58399 1.45704,-0.58399 z" /><g
       id="text1"
       style="font-size:20.2967px;font-family:'Alte DIN 1451 Mittelschrift';-inkscape-font-specification:'Alte DIN 1451 Mittelschrift';text-align:center;text-anchor:middle;fill:#ffffff;stroke-width:13.8387"
       aria-label="Dangerous&#10;Settings"><path
         d="m 179.27344,835.18642 v -14.43959 h 5.05435 q 2.96324,0 4.40026,2.42807 0.53517,0.92168 0.65409,1.72443 0.11893,0.80275 0.11893,3.07225 0,2.43798 -0.16848,3.26056 -0.15857,0.81266 -0.64418,1.56585 -0.64418,1.01087 -1.77398,1.70461 -1.11989,0.68382 -2.72539,0.68382 z m 2.19022,-12.3683 v 10.30692 h 2.62628 q 1.80371,0 2.67583,-1.25863 0.35678,-0.54508 0.44597,-1.16944 0.0991,-0.63427 0.0991,-2.6461 0,-1.94246 -0.10902,-2.68575 -0.0991,-0.74329 -0.53516,-1.33792 -0.90186,-1.20908 -2.57673,-1.20908 z m 15.8667,12.40795 v -0.91177 h -0.0396 q -0.2874,0.53517 -0.86221,0.77302 -0.61445,0.25767 -1.6055,0.25767 -1.70461,-0.0396 -2.57673,-0.91176 -0.95141,-0.87213 -0.95141,-2.22987 0,-1.28836 0.82257,-2.16048 0.82257,-0.87213 2.42807,-0.89195 h 2.78485 v -1.09015 q 0.01,-1.36765 -2.05147,-1.32801 -0.71356,0 -1.18926,0.15857 -0.46579,0.20812 -0.70365,0.64418 l -1.58567,-1.24872 q 1.14961,-1.53613 3.37947,-1.49649 1.87309,-0.0198 3.0128,0.73338 1.11988,0.78293 1.1397,2.65601 v 7.04637 z m 0,-3.61734 v -0.75319 h -2.40825 q -1.76407,0.0495 -1.74425,1.24872 0,0.51535 0.45589,0.89194 0.43606,0.40633 1.43702,0.40633 1.26854,0.0198 1.78389,-0.30722 0.4757,-0.32705 0.4757,-1.48658 z m 4.30116,3.57769 v -10.28709 h 2.07129 v 1.10006 h 0.0396 q 0.96131,-1.21899 2.67583,-1.21899 1.19917,0 2.30915,0.91177 1.11988,0.91176 1.11988,2.65601 v 6.83824 h -2.07129 v -6.12468 q 0,-1.04061 -0.58472,-1.62533 -0.57481,-0.58471 -1.43702,-0.58471 -0.89195,0 -1.47667,0.58471 -0.57481,0.58472 -0.57481,1.62533 v 6.12468 z m 16.66946,-0.01 v -1.06042 q -1.08025,1.18926 -2.65602,1.18926 -1.01087,0 -1.69469,-0.39642 -0.67392,-0.40633 -1.02078,-0.8523 -0.44598,-0.57481 -0.61446,-1.21899 -0.15856,-0.64419 -0.15856,-2.78485 0,-2.14067 0.15856,-2.78485 0.16848,-0.64419 0.61446,-1.22891 0.34686,-0.43606 1.02078,-0.84239 0.68382,-0.41624 1.69469,-0.41624 1.5064,0 2.65602,1.21899 v -1.10006 h 2.07129 v 10.04924 q 0,2.31906 -1.35774,3.41912 -1.34783,1.10007 -3.10198,1.10007 -0.99105,0 -1.94246,-0.4757 -0.95141,-0.47571 -1.63523,-1.24873 l 1.6055,-1.27845 q 0.3766,0.3766 0.89194,0.65409 0.52526,0.2775 1.11989,0.2775 1.03069,0 1.68478,-0.57481 0.66401,-0.57481 0.66401,-1.64515 z m -4.07322,-5.12372 q 0,1.23881 0.0595,1.64514 0.0694,0.40633 0.34687,0.7532 0.20812,0.27749 0.61445,0.53516 0.40633,0.25768 1.03069,0.25768 0.60454,0 1.00096,-0.25768 0.40633,-0.25767 0.62437,-0.53516 0.26758,-0.34687 0.32704,-0.7532 0.0694,-0.40633 0.0694,-1.64514 0,-1.23882 -0.0694,-1.64515 -0.0595,-0.40633 -0.32704,-0.7631 -0.21804,-0.26759 -0.62437,-0.52526 -0.39642,-0.26758 -1.00096,-0.26758 -0.62436,0 -1.03069,0.26758 -0.40633,0.25767 -0.61445,0.52526 -0.27749,0.35677 -0.34687,0.7631 -0.0595,0.40633 -0.0595,1.64515 z m 16.73883,0.77302 h -6.40218 q 0,1.26854 0.68382,1.90281 0.69374,0.63427 1.76407,0.63427 1.27846,0 2.2596,-0.99105 l 1.49648,1.27846 q -0.76311,0.89194 -1.72443,1.27845 -0.9514,0.3766 -1.99201,0.3766 -1.58568,0 -3.07225,-1.02078 -1.48657,-1.03069 -1.48657,-4.20205 0,-3.00288 1.36764,-4.1525 1.37756,-1.14962 2.87405,-1.14962 1.69469,0 2.96324,1.17935 1.26854,1.16944 1.26854,3.16145 z m -6.40218,-1.70461 h 4.3408 q -0.0496,-1.15953 -0.6541,-1.77398 -0.60454,-0.61445 -1.5163,-0.61445 -0.92168,0 -1.53613,0.61445 -0.60454,0.61445 -0.63427,1.77398 z m 8.58249,6.06522 v -10.28709 h 2.0713 v 1.10006 h 0.0396 q 0.96132,-1.21899 2.67583,-1.21899 1.1298,0 2.15058,0.79284 l -1.49648,1.78389 q -0.67392,-0.50543 -1.36765,-0.50543 -0.76311,0 -1.38747,0.51534 -0.61445,0.50544 -0.61445,1.63523 v 6.18415 z m 7.38332,-5.15345 q 0,-1.65506 0.25768,-2.46772 0.25767,-0.81266 0.8523,-1.46675 0.42615,-0.4658 1.16944,-0.89195 0.7532,-0.42615 1.96228,-0.42615 1.18926,0 1.94246,0.42615 0.75319,0.42615 1.17934,0.89195 0.59463,0.65409 0.85231,1.46675 0.25767,0.81266 0.25767,2.46772 0,1.68478 -0.25767,2.49744 -0.25768,0.81266 -0.85231,1.46675 -0.42615,0.47571 -1.17934,0.89195 -0.7532,0.41624 -1.94246,0.41624 -1.20908,0 -1.96228,-0.41624 -0.74329,-0.41624 -1.16944,-0.89195 -0.59463,-0.65409 -0.8523,-1.46675 -0.25768,-0.81266 -0.25768,-2.49744 z m 6.4121,0.0198 q 0,-1.11989 -0.11893,-1.57577 -0.10901,-0.45589 -0.38651,-0.87213 -0.54508,-0.75319 -1.66496,-0.75319 -1.13971,0 -1.66497,0.75319 -0.29731,0.41624 -0.40633,0.87213 -0.0991,0.45588 -0.0991,1.55595 0,1.12979 0.0991,1.59559 0.10902,0.45588 0.40633,0.86221 0.52526,0.7532 1.66497,0.7532 1.11988,0 1.66496,-0.7532 0.2775,-0.40633 0.38651,-0.86221 0.11893,-0.45589 0.11893,-1.57577 z m 4.24169,1.68478 v -6.83824 h 2.07129 v 6.1346 q 0,1.05051 0.57481,1.63523 0.58472,0.57481 1.47666,0.57481 0.86222,0 1.43702,-0.57481 0.58472,-0.58472 0.58472,-1.63523 v -6.1346 h 2.0713 v 10.28709 h -2.0713 v -1.09015 h -0.0396 q -0.96132,1.20908 -2.65601,1.20908 -1.21899,0 -2.33888,-0.90186 -1.10997,-0.91176 -1.10997,-2.66592 z m 9.75193,1.73434 1.44693,-1.42711 q 1.34783,1.31809 3.24073,1.31809 0.88204,0 1.45685,-0.32704 0.57481,-0.33696 0.57481,-0.99105 0,-0.90186 -1.25864,-1.01087 l -1.82353,-0.16848 q -1.27845,-0.0991 -2.12085,-0.8424 -0.84239,-0.74328 -0.84239,-2.07129 0,-1.56586 1.10007,-2.36861 1.10006,-0.80275 2.73529,-0.80275 1.34783,0 2.30915,0.38651 0.96132,0.3766 1.72443,1.01087 l -1.27846,1.5064 q -0.61445,-0.41624 -1.26854,-0.68383 -0.65409,-0.26758 -1.48658,-0.26758 -0.99105,0 -1.37755,0.35678 -0.38651,0.34686 -0.38651,0.88203 0,0.33696 0.2874,0.62436 0.2874,0.28741 1.07033,0.34687 l 1.70461,0.11893 q 1.59559,0.10901 2.28932,0.99105 0.69374,0.87212 0.69374,2.09111 0,1.51631 -1.23881,2.33888 -1.23881,0.82257 -3.0227,0.82257 -2.56682,0 -4.5291,-1.83344 z"
         id="path4" /><path
         d="m 189.85289,858.69412 1.44694,-1.64514 q 0.81266,0.6541 1.87308,1.05052 1.06042,0.39642 2.21995,0.39642 1.33792,0 2.10103,-0.55499 0.7631,-0.55499 0.7631,-1.45685 0,-1.7046 -1.88299,-1.95236 -0.49552,-0.0595 -0.92168,-0.11893 -0.42615,-0.0595 -0.99105,-0.13875 -1.87308,-0.25767 -2.85422,-1.36765 -0.98114,-1.11988 -0.98114,-2.69565 0,-1.84335 1.2289,-3.03261 1.23882,-1.18926 3.47859,-1.18926 1.33791,0 2.51726,0.42615 1.17935,0.42615 2.1704,1.08024 l -1.21899,1.80371 q -0.79284,-0.49552 -1.7046,-0.80275 -0.91177,-0.30722 -1.86318,-0.30722 -1.01087,0 -1.71451,0.51534 -0.70365,0.51535 -0.70365,1.54604 0,0.61445 0.47571,1.14962 0.4757,0.53517 1.57576,0.70364 0.28741,0.0496 0.69374,0.10902 0.40633,0.0495 0.93159,0.10901 2.02174,0.24777 2.98306,1.46676 0.97122,1.21899 0.97122,2.69565 0,1.99201 -1.37755,3.09208 -1.37756,1.10006 -3.69662,1.10006 -3.26055,0 -5.52015,-1.9821 z m 20.64357,-2.49744 h -6.40218 q 0,1.26854 0.68382,1.90282 0.69374,0.63427 1.76407,0.63427 1.27845,0 2.25959,-0.99105 l 1.49649,1.27845 q -0.76311,0.89195 -1.72443,1.27846 -0.95141,0.37659 -1.99201,0.37659 -1.58568,0 -3.07225,-1.02078 -1.48658,-1.03069 -1.48658,-4.20205 0,-3.00288 1.36765,-4.1525 1.37756,-1.14961 2.87405,-1.14961 1.69469,0 2.96324,1.17935 1.26854,1.16943 1.26854,3.16144 z m -6.40218,-1.70461 h 4.3408 q -0.0496,-1.15952 -0.6541,-1.77398 -0.60454,-0.61445 -1.5163,-0.61445 -0.92168,0 -1.53613,0.61445 -0.60454,0.61446 -0.63427,1.77398 z m 8.70141,6.07514 v -8.71133 H 211.765 v -1.58568 h 1.03069 v -1.61541 l 2.0713,-2.21004 v 3.82545 h 1.50639 v 1.58568 h -1.50639 v 8.71133 z m 5.63908,0 v -8.71133 h -1.03069 v -1.58568 h 1.03069 v -1.61541 l 2.07129,-2.21004 v 3.82545 h 1.5064 v 1.58568 h -1.5064 v 8.71133 z m 5.57961,-0.01 v -10.2871 h 2.07129 v 10.2871 z m 0,-12.3683 v -2.0713 h 2.07129 v 2.0713 z m 4.80659,12.3683 v -10.2871 h 2.07129 v 1.10007 h 0.0396 q 0.96131,-1.21899 2.67583,-1.21899 1.19917,0 2.30915,0.91176 1.11988,0.91177 1.11988,2.65602 v 6.83824 h -2.07129 v -6.12469 q 0,-1.0406 -0.58472,-1.62532 -0.57481,-0.58472 -1.43702,-0.58472 -0.89195,0 -1.47667,0.58472 -0.57481,0.58472 -0.57481,1.62532 v 6.12469 z m 16.66946,-0.01 v -1.06043 q -1.08025,1.18926 -2.65602,1.18926 -1.01087,0 -1.69469,-0.39642 -0.67392,-0.40633 -1.02078,-0.8523 -0.44598,-0.57481 -0.61446,-1.21899 -0.15856,-0.64418 -0.15856,-2.78485 0,-2.14067 0.15856,-2.78485 0.16848,-0.64418 0.61446,-1.2289 0.34686,-0.43606 1.02078,-0.84239 0.68382,-0.41624 1.69469,-0.41624 1.5064,0 2.65602,1.21899 v -1.10007 h 2.07129 v 10.04925 q 0,2.31905 -1.35774,3.41912 -1.34783,1.10006 -3.10198,1.10006 -0.99105,0 -1.94246,-0.4757 -0.95141,-0.4757 -1.63523,-1.24872 l 1.6055,-1.27846 q 0.3766,0.3766 0.89194,0.6541 0.52526,0.27749 1.11989,0.27749 1.03069,0 1.68478,-0.57481 0.66401,-0.57481 0.66401,-1.64514 z m -4.07322,-5.12373 q 0,1.23881 0.0595,1.64514 0.0694,0.40633 0.34687,0.7532 0.20812,0.2775 0.61445,0.53517 0.40633,0.25767 1.03069,0.25767 0.60454,0 1.00096,-0.25767 0.40633,-0.25767 0.62437,-0.53517 0.26758,-0.34687 0.32704,-0.7532 0.0694,-0.40633 0.0694,-1.64514 0,-1.23881 -0.0694,-1.64514 -0.0595,-0.40633 -0.32704,-0.76311 -0.21804,-0.26758 -0.62437,-0.52526 -0.39642,-0.26758 -1.00096,-0.26758 -0.62436,0 -1.03069,0.26758 -0.40633,0.25768 -0.61445,0.52526 -0.27749,0.35678 -0.34687,0.76311 -0.0595,0.40633 -0.0595,1.64514 z m 7.68064,3.41912 1.44693,-1.42711 q 1.34783,1.3181 3.24074,1.3181 0.88203,0 1.45684,-0.32705 0.57481,-0.33696 0.57481,-0.99105 0,-0.90185 -1.25864,-1.01087 l -1.82353,-0.16848 q -1.27845,-0.0991 -2.12084,-0.84239 -0.8424,-0.74329 -0.8424,-2.07129 0,-1.56586 1.10007,-2.36861 1.10006,-0.80275 2.7353,-0.80275 1.34782,0 2.30914,0.38651 0.96132,0.37659 1.72443,1.01087 l -1.27846,1.50639 q -0.61445,-0.41624 -1.26854,-0.68382 -0.65409,-0.26759 -1.48657,-0.26759 -0.99105,0 -1.37756,0.35678 -0.38651,0.34687 -0.38651,0.88204 0,0.33695 0.2874,0.62436 0.28741,0.2874 1.07034,0.34686 l 1.7046,0.11893 q 1.59559,0.10902 2.28933,0.99105 0.69373,0.87212 0.69373,2.09112 0,1.5163 -1.23881,2.33887 -1.23881,0.82257 -3.0227,0.82257 -2.56682,0 -4.5291,-1.83344 z"
         id="path5" /></g><path
       style="fill:url(#linearGradient20);fill-opacity:1;stroke:#350404;stroke-width:2;stroke-dasharray:none;stroke-opacity:1"
       id="path6"
       sodipodi:type="arc"
       sodipodi:cx="328.00043"
       sodipodi:cy="754.5"
       sodipodi:rx="34"
       sodipodi:ry="34"
       sodipodi:start="5.9811037"
       sodipodi:end="0.78539816"
       sodipodi:arc-type="slice"
       d="m 360.46088,744.38472 a 34,34 0 0 1 -8.41882,34.15691 L 328.00043,754.5 Z" /><path
       style="fill:url(#linearGradient9);fill-opacity:1;stroke:#350404;stroke-width:2;stroke-dasharray:none;stroke-opacity:1"
       id="path11"
       sodipodi:type="arc"
       sodipodi:cx="328.00043"
       sodipodi:cy="754.5"
       sodipodi:rx="34"
       sodipodi:ry="34"
       sodipodi:start="2.3561945"
       sodipodi:end="3.4436742"
       sodipodi:arc-type="slice"
       d="m 303.9588,778.54163 a 34,34 0 0 1 -8.41883,-34.15691 L 328.00043,754.5 Z" /><g
       id="text20"
       style="font-size:20.3719px;font-family:'Alte DIN 1451 Mittelschrift';-inkscape-font-specification:'Alte DIN 1451 Mittelschrift';text-align:center;text-anchor:middle;fill:#ffffff;stroke-width:1.38899"
       aria-label="Diffusion&#10;Decay"><path
         d="m 289.85175,796.68219 v -14.4931 h 5.07308 q 2.97422,0 4.41656,2.43707 0.53715,0.92509 0.65652,1.73082 0.11937,0.80572 0.11937,3.08363 0,2.44702 -0.16911,3.27264 -0.15915,0.81567 -0.64656,1.57166 -0.64657,1.01462 -1.78056,1.71092 -1.12403,0.68636 -2.73548,0.68636 z m 2.19833,-12.41413 v 10.34511 h 2.63602 q 1.81039,0 2.68575,-1.2633 0.3581,-0.5471 0.44762,-1.17377 0.0995,-0.63662 0.0995,-2.65591 0,-1.94965 -0.10942,-2.69569 -0.0995,-0.74604 -0.53715,-1.34288 -0.90519,-1.21356 -2.58627,-1.21356 z m 10.51421,12.41413 v -10.32521 h 2.07897 v 10.32521 z m 0,-12.41413 v -2.07897 h 2.07897 v 2.07897 z m 5.15266,12.41413 v -8.73366 h -1.04446 v -1.59155 h 1.04446 v -1.36277 q 0,-1.44235 0.79578,-2.11876 0.79578,-0.68636 2.00934,-0.68636 h 1.34287 v 1.94966 h -1.17377 q -0.9052,0 -0.9052,0.85546 v 1.36277 h 2.07897 v 1.59155 h -2.07897 v 8.73366 z m 5.65997,0 v -8.73366 h -1.04446 v -1.59155 h 1.04446 v -1.36277 q 0,-1.44235 0.79578,-2.11876 0.79577,-0.68636 2.00933,-0.68636 h 1.34288 v 1.94966 h -1.17377 q -0.9052,0 -0.9052,0.85546 v 1.36277 h 2.07897 v 1.59155 h -2.07897 v 8.73366 z m 5.33171,-3.46163 v -6.86358 h 2.07896 v 6.15732 q 0,1.05441 0.57694,1.6413 0.58689,0.57693 1.48214,0.57693 0.86541,0 1.44235,-0.57693 0.58688,-0.58689 0.58688,-1.6413 v -6.15732 h 2.07897 v 10.32521 h -2.07897 v -1.0942 h -0.0398 q -0.96488,1.21357 -2.66585,1.21357 -1.22351,0 -2.34755,-0.9052 -1.11408,-0.91515 -1.11408,-2.6758 z m 9.78806,1.74076 1.45229,-1.4324 q 1.35282,1.32298 3.25274,1.32298 0.8853,0 1.46224,-0.32826 0.57694,-0.3382 0.57694,-0.99472 0,-0.9052 -1.2633,-1.01462 l -1.83028,-0.1691 q -1.28319,-0.0995 -2.12871,-0.84551 -0.84551,-0.74604 -0.84551,-2.07897 0,-1.57166 1.10414,-2.37738 1.10414,-0.80573 2.74543,-0.80573 1.35282,0 2.3177,0.38794 0.96488,0.378 1.73082,1.01462 l -1.28319,1.51198 q -0.61673,-0.41779 -1.27325,-0.68636 -0.65651,-0.26858 -1.49208,-0.26858 -0.99472,0 -1.38266,0.3581 -0.38794,0.34815 -0.38794,0.8853 0,0.33821 0.28847,0.62668 0.28847,0.28847 1.0743,0.34815 l 1.71092,0.11937 q 1.6015,0.10942 2.2978,0.99472 0.69631,0.87536 0.69631,2.09886 0,1.52193 -1.2434,2.34755 -1.2434,0.82562 -3.0339,0.82562 -2.57633,0 -4.54588,-1.84024 z m 10.98173,1.72087 v -10.32521 h 2.07896 v 10.32521 z m 0,-12.41413 v -2.07897 h 2.07896 v 2.07897 z m 4.31709,7.24158 q 0,-1.66119 0.25862,-2.47686 0.25863,-0.81567 0.85547,-1.47219 0.42773,-0.46752 1.17377,-0.89525 0.75599,-0.42773 1.96955,-0.42773 1.19366,0 1.94965,0.42773 0.75599,0.42773 1.18372,0.89525 0.59683,0.65652 0.85546,1.47219 0.25863,0.81567 0.25863,2.47686 0,1.69102 -0.25863,2.50669 -0.25863,0.81568 -0.85546,1.47219 -0.42773,0.47747 -1.18372,0.89525 -0.75599,0.41779 -1.94965,0.41779 -1.21356,0 -1.96955,-0.41779 -0.74604,-0.41778 -1.17377,-0.89525 -0.59684,-0.65651 -0.85547,-1.47219 -0.25862,-0.81567 -0.25862,-2.50669 z m 6.43585,0.0199 q 0,-1.12404 -0.11937,-1.58161 -0.10942,-0.45757 -0.38794,-0.87535 -0.5471,-0.75599 -1.67113,-0.75599 -1.14393,0 -1.67114,0.75599 -0.29841,0.41778 -0.40783,0.87535 -0.0995,0.45757 -0.0995,1.56172 0,1.13398 0.0995,1.6015 0.10942,0.45757 0.40783,0.86541 0.52721,0.75598 1.67114,0.75598 1.12403,0 1.67113,-0.75598 0.27852,-0.40784 0.38794,-0.86541 0.11937,-0.45757 0.11937,-1.58161 z m 4.25741,5.15266 v -10.32521 h 2.07897 v 1.10414 h 0.0398 q 0.96488,-1.22351 2.68575,-1.22351 1.20361,0 2.3177,0.91514 1.12403,0.91515 1.12403,2.66586 v 6.86358 h -2.07897 v -6.14738 q 0,-1.04446 -0.58688,-1.63135 -0.57694,-0.58688 -1.44235,-0.58688 -0.89525,0 -1.48213,0.58688 -0.57694,0.58689 -0.57694,1.63135 v 6.14738 z"
         id="path26" /><path
         d="m 302.30567,822.14706 v -14.49309 h 5.07308 q 2.97421,0 4.41656,2.43707 0.53715,0.92509 0.65652,1.73081 0.11936,0.80573 0.11936,3.08364 0,2.44702 -0.1691,3.27263 -0.15915,0.81568 -0.64657,1.57166 -0.64657,1.01462 -1.78055,1.71093 -1.12404,0.68635 -2.73548,0.68635 z m 2.19833,-12.41412 v 10.3451 h 2.63601 q 1.8104,0 2.68575,-1.26329 0.3581,-0.5471 0.44763,-1.17378 0.0995,-0.63662 0.0995,-2.6559 0,-1.94966 -0.10942,-2.6957 -0.0995,-0.74604 -0.53715,-1.34287 -0.9052,-1.21356 -2.58628,-1.21356 z m 18.40235,8.03735 h -6.4259 q 0,1.27324 0.68636,1.90986 0.6963,0.63663 1.7706,0.63663 1.28319,0 2.26797,-0.99473 l 1.50203,1.2832 q -0.76594,0.89525 -1.73082,1.28319 -0.95493,0.37799 -1.99939,0.37799 -1.59155,0 -3.08364,-1.02456 -1.49208,-1.03451 -1.49208,-4.21762 0,-3.01401 1.37272,-4.16789 1.38266,-1.15387 2.88469,-1.15387 1.70097,0 2.97422,1.18372 1.27324,1.17377 1.27324,3.17316 z m -6.4259,-1.71092 h 4.35688 q -0.0497,-1.16383 -0.65652,-1.78055 -0.60678,-0.61673 -1.52192,-0.61673 -0.92509,0 -1.54182,0.61673 -0.60678,0.61672 -0.63662,1.78055 z m 14.68209,3.05379 1.53187,1.37272 q -0.67641,0.77588 -1.61145,1.28319 -0.92509,0.49736 -2.09886,0.49736 -1.7905,0 -3.24279,-1.21356 -1.44235,-1.22351 -1.44235,-4.05846 0,-2.83496 1.44235,-4.05847 1.45229,-1.23345 3.24279,-1.23345 1.17377,0 2.09886,0.5073 0.93504,0.50731 1.61145,1.2832 l -1.53187,1.36276 q -0.87535,-1.0743 -2.09886,-1.0743 -2.68575,0 -2.68575,3.21296 0,3.203 2.68575,3.203 1.23345,0 2.09886,-1.08425 z m 8.44519,3.07369 v -0.91514 h -0.0398 q -0.28847,0.53715 -0.86541,0.77588 -0.61673,0.25863 -1.61145,0.25863 -1.71092,-0.0398 -2.58627,-0.91514 -0.95494,-0.87536 -0.95494,-2.23813 0,-1.29314 0.82562,-2.16849 0.82562,-0.87536 2.43707,-0.89525 h 2.79517 v -1.09419 q 0.01,-1.37272 -2.05908,-1.33293 -0.7162,0 -1.19366,0.15915 -0.46752,0.20889 -0.70625,0.64657 l -1.59156,-1.25335 q 1.15388,-1.54182 3.392,-1.50203 1.88003,-0.0199 3.02396,0.7361 1.12403,0.78583 1.14393,2.66585 v 7.07247 z m 0,-3.63073 v -0.75599 h -2.41718 q -1.7706,0.0497 -1.75071,1.25335 0,0.51725 0.45758,0.89525 0.43767,0.40784 1.44234,0.40784 1.27325,0.0199 1.7905,-0.30837 0.47747,-0.32826 0.47747,-1.49208 z m 6.53532,3.19306 -3.70036,-9.92733 h 2.18838 l 2.44702,7.23163 h 0.0398 l 2.44701,-7.23163 h 2.19834 l -4.43646,12.46387 q -0.43768,1.19366 -1.20361,1.61144 -0.76594,0.42774 -1.71092,0.42774 h -0.69631 v -1.95961 h 0.61673 q 0.93504,0 1.2434,-0.89525 z"
         id="path27" /></g><g
       id="text23"
       style="font-size:20.3719px;font-family:'Alte DIN 1451 Mittelschrift';-inkscape-font-specification:'Alte DIN 1451 Mittelschrift';text-align:center;text-anchor:middle;fill:#ffffff;stroke-width:1.38899"
       aria-label="Nested&#10;Diffusion"
       transform="translate(2.5e-4,-4)"><path
         d="m 297.6255,684.68219 v -14.4931 h 2.07897 l 6.55521,10.30532 h 0.0398 v -10.30532 h 2.20829 v 14.4931 h -2.07897 l -6.55522,-10.30532 h -0.0497 v 10.30532 z m 21.69488,-4.37678 h -6.4259 q 0,1.27325 0.68636,1.90987 0.6963,0.63662 1.7706,0.63662 1.28319,0 2.26797,-0.99472 l 1.50203,1.28319 q -0.76594,0.89525 -1.73082,1.28319 -0.95493,0.378 -1.99939,0.378 -1.59156,0 -3.08364,-1.02457 -1.49208,-1.03451 -1.49208,-4.21762 0,-3.01401 1.37272,-4.16788 1.38266,-1.15388 2.88469,-1.15388 1.70097,0 2.97422,1.18372 1.27324,1.17377 1.27324,3.17316 z m -6.4259,-1.71092 h 4.35688 q -0.0497,-1.16382 -0.65652,-1.78055 -0.60678,-0.61673 -1.52192,-0.61673 -0.92509,0 -1.54182,0.61673 -0.60678,0.61673 -0.63662,1.78055 z m 7.47036,4.36683 1.45229,-1.4324 q 1.35282,1.32298 3.25274,1.32298 0.8853,0 1.46224,-0.32826 0.57694,-0.3382 0.57694,-0.99472 0,-0.9052 -1.2633,-1.01462 l -1.83028,-0.1691 q -1.2832,-0.0995 -2.12871,-0.84551 -0.84551,-0.74604 -0.84551,-2.07897 0,-1.57166 1.10414,-2.37738 1.10414,-0.80573 2.74543,-0.80573 1.35282,0 2.3177,0.38794 0.96488,0.378 1.73082,1.01462 l -1.28319,1.51198 q -0.61673,-0.41779 -1.27325,-0.68636 -0.65651,-0.26858 -1.49208,-0.26858 -0.99472,0 -1.38266,0.3581 -0.38794,0.34815 -0.38794,0.8853 0,0.33821 0.28847,0.62668 0.28846,0.28847 1.07429,0.34815 l 1.71093,0.11937 q 1.6015,0.10942 2.2978,0.99472 0.69631,0.87536 0.69631,2.09886 0,1.52193 -1.2434,2.34755 -1.24341,0.82562 -3.03391,0.82562 -2.57632,0 -4.54587,-1.84024 z m 11.04141,1.73082 v -8.74361 h -1.03451 v -1.59155 h 1.03451 v -1.6214 l 2.07897,-2.21823 v 3.83963 h 1.51197 v 1.59155 h -1.51197 v 8.74361 z m 13.48842,-4.38673 h -6.4259 q 0,1.27325 0.68636,1.90987 0.6963,0.63662 1.7706,0.63662 1.28319,0 2.26797,-0.99472 l 1.50203,1.28319 q -0.76594,0.89525 -1.73082,1.28319 -0.95493,0.378 -1.99939,0.378 -1.59155,0 -3.08364,-1.02457 -1.49208,-1.03451 -1.49208,-4.21762 0,-3.01401 1.37272,-4.16788 1.38266,-1.15388 2.88469,-1.15388 1.70098,0 2.97422,1.18372 1.27324,1.17377 1.27324,3.17316 z m -6.4259,-1.71092 h 4.35688 q -0.0497,-1.16382 -0.65651,-1.78055 -0.60678,-0.61673 -1.52193,-0.61673 -0.92509,0 -1.54182,0.61673 -0.60678,0.61673 -0.63662,1.78055 z m 14.78157,6.0877 v -1.0743 q -1.08425,1.19367 -2.66586,1.19367 -0.95493,0 -1.64129,-0.36805 -0.68636,-0.378 -1.12403,-0.96488 -0.43768,-0.5471 -0.58689,-1.29314 -0.14921,-0.75599 -0.14921,-2.66585 0,-1.88998 0.14921,-2.62607 0.14921,-0.74604 0.58689,-1.30309 0.43767,-0.57693 1.12403,-0.95493 0.68636,-0.38794 1.64129,-0.38794 0.79578,0 1.44235,0.33821 0.64657,0.3382 1.22351,0.8853 v -5.27203 h 2.07896 v 14.4931 z m -2.02924,-8.36561 q -1.47218,0 -1.7706,1.00467 -0.28847,1.00467 -0.28847,2.18839 0,1.21356 0.28847,2.21822 0.29842,1.00467 1.7706,1.00467 1.44235,0 1.73082,-1.04445 0.29842,-1.04446 0.29842,-2.17844 0,-1.10415 -0.29842,-2.1486 -0.28847,-1.04446 -1.73082,-1.04446 z"
         id="path24" /><path
         d="m 289.85175,710.14706 v -14.49309 h 5.07308 q 2.97422,0 4.41656,2.43707 0.53715,0.92509 0.65652,1.73081 0.11937,0.80573 0.11937,3.08364 0,2.44702 -0.16911,3.27263 -0.15915,0.81568 -0.64656,1.57166 -0.64657,1.01462 -1.78056,1.71093 -1.12403,0.68635 -2.73548,0.68635 z m 2.19833,-12.41412 v 10.3451 h 2.63602 q 1.81039,0 2.68575,-1.26329 0.3581,-0.5471 0.44762,-1.17378 0.0995,-0.63662 0.0995,-2.6559 0,-1.94966 -0.10942,-2.6957 -0.0995,-0.74604 -0.53715,-1.34287 -0.90519,-1.21356 -2.58627,-1.21356 z m 10.51421,12.41412 v -10.32521 h 2.07897 v 10.32521 z m 0,-12.41412 v -2.07897 h 2.07897 v 2.07897 z m 5.15266,12.41412 v -8.73365 h -1.04446 v -1.59156 h 1.04446 v -1.36277 q 0,-1.44234 0.79578,-2.11875 0.79578,-0.68636 2.00934,-0.68636 h 1.34287 v 1.94965 h -1.17377 q -0.9052,0 -0.9052,0.85546 v 1.36277 h 2.07897 v 1.59156 h -2.07897 v 8.73365 z m 5.65997,0 v -8.73365 h -1.04446 v -1.59156 h 1.04446 v -1.36277 q 0,-1.44234 0.79578,-2.11875 0.79577,-0.68636 2.00933,-0.68636 h 1.34288 v 1.94965 h -1.17377 q -0.9052,0 -0.9052,0.85546 v 1.36277 h 2.07897 v 1.59156 h -2.07897 v 8.73365 z m 5.33171,-3.46163 v -6.86358 h 2.07896 v 6.15733 q 0,1.05441 0.57694,1.64129 0.58689,0.57694 1.48214,0.57694 0.86541,0 1.44235,-0.57694 0.58688,-0.58688 0.58688,-1.64129 v -6.15733 h 2.07897 v 10.32521 h -2.07897 v -1.09419 h -0.0398 q -0.96488,1.21356 -2.66585,1.21356 -1.22351,0 -2.34755,-0.9052 -1.11408,-0.91514 -1.11408,-2.6758 z m 9.78806,1.74077 1.45229,-1.4324 q 1.35282,1.32298 3.25274,1.32298 0.8853,0 1.46224,-0.32826 0.57694,-0.33821 0.57694,-0.99472 0,-0.9052 -1.2633,-1.01462 l -1.83028,-0.1691 q -1.28319,-0.0995 -2.12871,-0.84552 -0.84551,-0.74604 -0.84551,-2.07896 0,-1.57166 1.10414,-2.37739 1.10414,-0.80572 2.74543,-0.80572 1.35282,0 2.3177,0.38794 0.96488,0.37799 1.73082,1.01461 l -1.28319,1.51198 q -0.61673,-0.41778 -1.27325,-0.68636 -0.65651,-0.26857 -1.49208,-0.26857 -0.99472,0 -1.38266,0.3581 -0.38794,0.34815 -0.38794,0.8853 0,0.33821 0.28847,0.62667 0.28847,0.28847 1.0743,0.34816 l 1.71092,0.11936 q 1.6015,0.10942 2.2978,0.99473 0.69631,0.87535 0.69631,2.09886 0,1.52192 -1.2434,2.34754 -1.2434,0.82562 -3.0339,0.82562 -2.57633,0 -4.54588,-1.84023 z m 10.98173,1.72086 v -10.32521 h 2.07896 v 10.32521 z m 0,-12.41412 v -2.07897 h 2.07896 v 2.07897 z m 4.31709,7.24157 q 0,-1.66118 0.25862,-2.47686 0.25863,-0.81567 0.85547,-1.47218 0.42773,-0.46752 1.17377,-0.89525 0.75599,-0.42773 1.96955,-0.42773 1.19366,0 1.94965,0.42773 0.75599,0.42773 1.18372,0.89525 0.59683,0.65651 0.85546,1.47218 0.25863,0.81568 0.25863,2.47686 0,1.69103 -0.25863,2.5067 -0.25863,0.81567 -0.85546,1.47219 -0.42773,0.47746 -1.18372,0.89525 -0.75599,0.41778 -1.94965,0.41778 -1.21356,0 -1.96955,-0.41778 -0.74604,-0.41779 -1.17377,-0.89525 -0.59684,-0.65652 -0.85547,-1.47219 -0.25862,-0.81567 -0.25862,-2.5067 z m 6.43585,0.0199 q 0,-1.12404 -0.11937,-1.58161 -0.10942,-0.45757 -0.38794,-0.87536 -0.5471,-0.75599 -1.67113,-0.75599 -1.14393,0 -1.67114,0.75599 -0.29841,0.41779 -0.40783,0.87536 -0.0995,0.45757 -0.0995,1.56171 0,1.13398 0.0995,1.6015 0.10942,0.45758 0.40783,0.86541 0.52721,0.75599 1.67114,0.75599 1.12403,0 1.67113,-0.75599 0.27852,-0.40783 0.38794,-0.86541 0.11937,-0.45757 0.11937,-1.5816 z m 4.25741,5.15265 v -10.32521 h 2.07897 v 1.10414 h 0.0398 q 0.96488,-1.2235 2.68575,-1.2235 1.20361,0 2.3177,0.91514 1.12403,0.91514 1.12403,2.66585 v 6.86358 h -2.07897 v -6.14738 q 0,-1.04445 -0.58688,-1.63134 -0.57694,-0.58689 -1.44235,-0.58689 -0.89525,0 -1.48213,0.58689 -0.57694,0.58689 -0.57694,1.63134 v 6.14738 z"
         id="path25" /></g></g></svg>
