<?xml version="1.0" encoding="UTF-8" standalone="no"?>
<!-- Uploaded to: SVG Repo, www.svgrepo.com, Generator: SVG Repo Mixer Tools -->

<svg
   version="1.1"
   id="_x32_"
   width="1148.5229"
   height="1148.5229"
   viewBox="0 0 735.05468 735.05467"
   xml:space="preserve"
   sodipodi:docname="LinkOff.svg"
   inkscape:version="1.2.2 (732a01da63, 2022-12-09)"
   xmlns:inkscape="http://www.inkscape.org/namespaces/inkscape"
   xmlns:sodipodi="http://sodipodi.sourceforge.net/DTD/sodipodi-0.dtd"
   xmlns:xlink="http://www.w3.org/1999/xlink"
   xmlns="http://www.w3.org/2000/svg"
   xmlns:svg="http://www.w3.org/2000/svg"><defs
   id="defs15"><linearGradient
     inkscape:collect="always"
     id="linearGradient4724"><stop
       style="stop-color:#769cb4;stop-opacity:1;"
       offset="0"
       id="stop4720" /><stop
       style="stop-color:#3b566b;stop-opacity:1;"
       offset="0.36773548"
       id="stop8371" /><stop
       style="stop-color:#001122;stop-opacity:1;"
       offset="1"
       id="stop4722" /></linearGradient><linearGradient
     inkscape:collect="always"
     xlink:href="#linearGradient4724"
     id="linearGradient4726"
     x1="-58.510529"
     y1="432.43749"
     x2="-58.510529"
     y2="770.74857"
     gradientUnits="userSpaceOnUse" /></defs><sodipodi:namedview
   id="namedview13"
   pagecolor="#ffffff"
   bordercolor="#000000"
   borderopacity="0.25"
   inkscape:showpageshadow="2"
   inkscape:pageopacity="0.0"
   inkscape:pagecheckerboard="0"
   inkscape:deskcolor="#d1d1d1"
   showgrid="false"
   inkscape:zoom="0.417193"
   inkscape:cx="776.61897"
   inkscape:cy="359.54582"
   inkscape:window-width="1440"
   inkscape:window-height="837"
   inkscape:window-x="-8"
   inkscape:window-y="-8"
   inkscape:window-maximized="1"
   inkscape:current-layer="g10" />
<style
   type="text/css"
   id="style2">
<![CDATA[
	.st0{fill:#000000;}
]]>
</style>
<g
   id="g10"
   transform="rotate(45,437.05014,255.98423)">
	<path
   id="rect3891"
   style="fill:#000000;fill-opacity:1;stroke:none;stroke-width:17.92;stroke-miterlimit:1.7;stroke-dasharray:none"
   sodipodi:type="inkscape:offset"
   inkscape:radius="24.949158"
   inkscape:original="M -260.93359 431.45312 C -333.07068 431.45312 -391.14453 499.09012 -391.14453 583.10547 L -391.14453 600.19141 C -391.14453 684.20675 -333.07068 751.84375 -260.93359 751.84375 L 163.79883 751.84375 C 235.93592 751.84375 294.01172 684.20675 294.01172 600.19141 L 294.01172 583.10547 C 294.01172 499.09012 235.93592 431.45312 163.79883 431.45312 L -260.93359 431.45312 z "
   d="m -260.93359,406.50391 c -87.73227,0 -155.16016,81.08915 -155.16016,176.60156 v 17.08594 c 0,95.51239 67.42789,176.60156 155.16016,176.60156 h 424.73242 c 87.73227,0 155.16211,-81.08878 155.16211,-176.60156 v -17.08594 c 0,-95.51279 -67.42984,-176.60156 -155.16211,-176.60156 z"
   transform="matrix(-0.70710678,0.70710678,0.70710678,0.70710678,14.062725,1.7375745e-4)" /><rect
   style="fill:#0f2435;fill-opacity:1;stroke:url(#linearGradient4726);stroke-width:17.92;stroke-miterlimit:1.7;stroke-dasharray:none;stroke-opacity:1"
   id="rect1045-7"
   width="685.15509"
   height="320.39108"
   x="-401.08807"
   y="441.39749"
   transform="matrix(-0.70710678,0.70710678,0.70710678,0.70710678,0,0)"
   rx="130.21135"
   ry="151.65225" /><path
   id="path4"
   style="fill:#3b566b;fill-opacity:1"
   class="st0"
   d="m 248.23067,421.5578 c -2.06896,2.07681 -4.02359,4.22963 -5.92644,6.41434 -9.52336,10.89323 -16.96566,23.08698 -22.17398,35.95196 -0.74562,1.84173 -1.44077,3.69812 -2.09746,5.56405 -0.0294,0.0836 -0.0644,0.16563 -0.0937,0.24925 -0.002,0.006 -0.004,0.0112 -0.006,0.0168 -0.68134,1.94851 -1.31345,3.90945 -1.8977,5.88224 -0.58643,1.97945 -1.12256,3.96997 -1.61131,5.96887 -2.44506,9.99969 -3.66901,20.22044 -3.66901,30.44183 0,16.34298 3.12448,32.71875 9.37447,48.15574 0.5381,1.32638 1.13237,2.63611 1.71739,3.9483 0.12734,0.28369 0.23754,0.57649 0.36769,0.85914 l 0.004,-0.004 c 6.1887,13.61072 14.88637,26.40194 26.02065,37.50937 11.11733,11.15939 23.90509,19.87025 37.52262,26.0392 l -8.8e-4,8.9e-4 c 1.594,0.719 3.21963,1.4228 4.81363,2.0948 3.1433,1.27334 6.33232,2.38027 9.5424,3.39235 9.15217,2.89437 18.54371,4.72884 28.00497,5.50836 3.53288,0.29374 7.07145,0.47029 10.60837,0.47376 4.08575,-0.004 8.17137,-0.20031 12.24355,-0.59044 10e-4,-1.4e-4 0.003,-7.4e-4 0.004,-8.8e-4 0.22672,-0.0217 0.45219,-0.0584 0.67883,-0.0813 7.84051,-0.78893 15.62453,-2.29089 23.24613,-4.53432 0.0768,-0.0225 0.15481,-0.0392 0.23158,-0.0619 8.9e-4,-2.7e-4 0.002,-6.2e-4 0.003,-8.8e-4 3.96202,-1.1712 7.8822,-2.53861 11.74858,-4.10476 2.3938,-0.97346 4.75567,-2.05048 7.10023,-3.17579 9.29906,-4.44207 18.17807,-10.08539 26.37244,-16.90074 3.04936,-2.52603 6.01969,-5.19076 8.87242,-8.03273 l 16.82825,-16.85301 16.85301,-16.82825 c 2.84024,-2.85099 5.50274,-5.81973 8.02743,-8.86712 6.82906,-8.20988 12.48337,-17.10615 16.9299,-26.42458 1.11669,-2.32907 2.18417,-4.67491 3.15105,-7.05251 1.56615,-3.86638 2.93444,-7.78744 4.10564,-11.74946 0.023,-0.0776 0.0399,-0.15657 0.0627,-0.23423 2.24343,-7.62161 3.7454,-15.40562 4.53433,-23.24614 0.0229,-0.22813 0.0605,-0.45501 0.0822,-0.68324 0.39012,-4.07218 0.58643,-8.15781 0.59043,-12.24355 -0.004,-3.83529 -0.19223,-7.67332 -0.5374,-11.50286 -0.0219,-0.2426 -0.0298,-0.4858 -0.053,-0.72832 -0.84803,-8.91293 -2.66281,-17.75329 -5.39169,-26.38216 -1.01208,-3.21008 -2.11901,-6.3991 -3.39235,-9.5424 -0.672,-1.594 -1.3758,-3.21963 -2.0948,-4.81363 l -8.8e-4,8.8e-4 C 482.757,411.77326 474.04612,398.98542 462.88675,387.86811 451.77932,376.73383 438.9881,368.03616 425.37739,361.84747 l 0.004,-0.004 c -0.28264,-0.13015 -0.57545,-0.24036 -0.85913,-0.36769 -1.31219,-0.58502 -2.62193,-1.1793 -3.94831,-1.71739 -15.43699,-6.24999 -31.81276,-9.37447 -48.15574,-9.37447 -12.2646,0 -24.52886,1.7602 -36.4107,5.28032 -1.9776,0.58567 -3.94406,1.22065 -5.89727,1.90389 -0.0611,0.0214 -0.12096,0.0475 -0.18208,0.0689 -1.88954,0.66377 -3.76823,1.36727 -5.63298,2.1222 -12.86525,5.20843 -25.05947,12.65125 -35.95285,22.17487 -2.1845,1.90269 -4.33685,3.85679 -6.41346,5.92556 l -17.32235,17.33826 z m 61.1285,27.43132 16.8645,-16.84858 c 6.438,-6.406 13.73328,-11.15567 21.59328,-14.34366 7.82799,-3.188 16.21906,-4.78093 24.59405,-4.78093 0.594,0 1.18889,0.0308 1.76689,0.0628 l 0.0265,-0.0265 c 7.80344,0.20993 15.55095,1.77659 22.83867,4.7385 7.84399,3.188 15.15528,7.90567 21.59327,14.34366 6.43699,6.46899 11.15648,13.7811 14.37548,21.62509 3.01865,7.50263 4.59172,15.49202 4.72436,23.50158 0.008,0.36633 0.0186,0.73286 0.0186,1.09867 0,4.20299 -0.39913,8.39875 -1.19413,12.52374 -0.0359,0.18619 -0.0836,0.37007 -0.12109,0.55597 -0.79498,3.92025 -1.93997,7.77939 -3.45863,11.52318 -1.10242,2.71213 -2.40141,5.35583 -3.8776,7.92755 -0.12617,0.21927 -0.24053,0.44299 -0.36946,0.66115 -2.73166,4.62185 -6.08735,8.99225 -10.12047,12.99662 l -16.83621,16.8592 -16.8592,16.83621 c -4.2466,4.27709 -8.91092,7.77627 -13.84426,10.59334 -2.51379,1.43196 -5.0938,2.69813 -7.74105,3.77418 -3.74559,1.5194 -7.60718,2.66628 -11.52938,3.46129 -0.18397,0.0373 -0.36642,0.0836 -0.55066,0.11932 -4.125,0.795 -8.31986,1.19325 -12.52286,1.19325 -0.39436,0 -0.78946,-0.0121 -1.1844,-0.0212 -7.981,-0.14246 -15.93982,-1.71375 -23.41584,-4.7217 -7.84402,-3.219 -15.15609,-7.93849 -21.6251,-14.37548 -6.43802,-6.438 -11.15566,-13.74928 -14.34367,-21.59327 -2.96185,-7.28757 -4.5294,-15.03452 -4.73938,-22.83779 l 0.0274,-0.0274 c -0.032,-0.578 -0.0636,-1.172 -0.0636,-1.766 0,-8.37499 1.59381,-16.76694 4.78181,-24.59494 3.188,-7.85999 7.93767,-15.15528 14.34366,-21.59327 z" />
	
	
<path
   id="path6232"
   style="fill:#3b566b;fill-opacity:1"
   class="st0"
   d="m 470.60628,199.1822 c -2.06897,2.07681 -4.02359,4.22963 -5.92644,6.41434 -9.52336,10.89323 -16.96566,23.08698 -22.17399,35.95196 -0.74561,1.84173 -1.44076,3.69812 -2.09745,5.56405 -0.0294,0.0836 -0.0644,0.16563 -0.0937,0.24925 -0.002,0.006 -0.004,0.0112 -0.006,0.0168 -0.68134,1.94851 -1.31345,3.90945 -1.8977,5.88224 -0.58644,1.97945 -1.12256,3.96997 -1.61132,5.96887 -2.44506,9.99969 -3.669,20.22044 -3.669,30.44183 0,16.34298 3.12447,32.71875 9.37447,48.15574 0.53809,1.32638 1.13237,2.63611 1.71738,3.9483 0.12734,0.28369 0.23755,0.57649 0.3677,0.85914 l 0.004,-0.004 c 6.18869,13.61072 14.88636,26.40194 26.02064,37.50937 11.11733,11.15939 23.90509,19.87025 37.52262,26.0392 l -8.8e-4,8.9e-4 c 1.594,0.719 3.21963,1.4228 4.81363,2.0948 3.14331,1.27334 6.33232,2.38027 9.54241,3.39235 9.15217,2.89437 18.5437,4.72884 28.00496,5.50836 3.53288,0.29374 7.07145,0.47029 10.60837,0.47376 4.08575,-0.004 8.17137,-0.20031 12.24355,-0.59044 0.001,-1.4e-4 0.003,-7.4e-4 0.004,-8.8e-4 0.22672,-0.0217 0.45219,-0.0584 0.67883,-0.0813 7.84051,-0.78893 15.62453,-2.29089 23.24613,-4.53432 0.0768,-0.0225 0.15481,-0.0392 0.23158,-0.0619 8.9e-4,-2.7e-4 0.002,-6.2e-4 0.003,-8.8e-4 3.96202,-1.1712 7.8822,-2.53861 11.74858,-4.10476 2.3938,-0.97346 4.75567,-2.05048 7.10023,-3.17579 9.29906,-4.44207 18.17807,-10.08539 26.37244,-16.90074 3.04936,-2.52603 6.01969,-5.19076 8.87242,-8.03273 L 668.43499,363.3127 685.288,346.48445 c 2.84024,-2.85099 5.50274,-5.81973 8.02743,-8.86712 6.82906,-8.20988 12.48337,-17.10615 16.9299,-26.42458 1.11669,-2.32907 2.18417,-4.67491 3.15105,-7.05251 1.56615,-3.86638 2.93444,-7.78744 4.10564,-11.74946 0.023,-0.0776 0.0399,-0.15657 0.0627,-0.23423 2.24343,-7.62161 3.7454,-15.40562 4.53433,-23.24614 0.0229,-0.22813 0.0605,-0.45501 0.0822,-0.68324 0.39012,-4.07218 0.58643,-8.15781 0.59043,-12.24355 -0.004,-3.83529 -0.19223,-7.67332 -0.5374,-11.50286 -0.0219,-0.2426 -0.0298,-0.4858 -0.053,-0.72832 -0.84803,-8.91293 -2.66281,-17.75329 -5.39169,-26.38216 -1.01208,-3.21008 -2.11901,-6.3991 -3.39235,-9.5424 -0.672,-1.594 -1.3758,-3.21963 -2.0948,-4.81363 l -8.8e-4,8.8e-4 C 705.1326,189.39766 696.42172,176.60982 685.26235,165.49251 674.15492,154.35823 661.3637,145.66056 647.75299,139.47187 l 0.004,-0.004 c -0.28264,-0.13015 -0.57545,-0.24036 -0.85913,-0.36769 -1.31219,-0.58502 -2.62193,-1.1793 -3.94831,-1.71739 -15.43699,-6.25 -31.81276,-9.37448 -48.15574,-9.37448 -12.2646,0 -24.52886,1.7602 -36.4107,5.28032 -1.9776,0.58567 -3.94406,1.22066 -5.89727,1.9039 -0.0611,0.0214 -0.12096,0.0475 -0.18208,0.0689 -1.88954,0.66377 -3.76823,1.36727 -5.63298,2.1222 -12.86525,5.20843 -25.05947,12.65125 -35.95285,22.17487 -2.1845,1.90269 -4.33684,3.85679 -6.41346,5.92556 l -17.32235,17.33826 z m 61.12849,27.43132 16.8645,-16.84858 c 6.438,-6.406 13.73328,-11.15567 21.59328,-14.34366 7.82799,-3.188 16.21906,-4.78093 24.59405,-4.78093 0.594,0 1.18889,0.0308 1.76689,0.0628 l 0.0265,-0.0265 c 7.80344,0.20993 15.55095,1.77659 22.83867,4.7385 7.84399,3.188 15.15528,7.90567 21.59327,14.34366 6.43699,6.46899 11.15648,13.7811 14.37548,21.62509 3.01865,7.50263 4.59172,15.49202 4.72436,23.50158 0.008,0.36633 0.0186,0.73286 0.0186,1.09867 0,4.20299 -0.39913,8.39875 -1.19413,12.52374 -0.0359,0.18619 -0.0836,0.37007 -0.12109,0.55597 -0.79498,3.92025 -1.93997,7.77939 -3.45863,11.52318 -1.10242,2.71213 -2.40141,5.35583 -3.8776,7.92755 -0.12617,0.21927 -0.24053,0.44299 -0.36946,0.66115 -2.73166,4.62185 -6.08735,8.99225 -10.12047,12.99662 l -16.83621,16.8592 -16.8592,16.83621 c -4.2466,4.27709 -8.91092,7.77627 -13.84426,10.59334 -2.51379,1.43196 -5.0938,2.69813 -7.74105,3.77418 -3.74559,1.5194 -7.60718,2.66628 -11.52938,3.46129 -0.18397,0.0373 -0.36642,0.0836 -0.55066,0.11932 -4.125,0.795 -8.31986,1.19325 -12.52286,1.19325 -0.39436,0 -0.78946,-0.0121 -1.1844,-0.0212 -7.981,-0.14246 -15.93982,-1.71375 -23.41584,-4.7217 -7.84402,-3.219 -15.15609,-7.93849 -21.6251,-14.37548 -6.43801,-6.438 -11.15565,-13.74928 -14.34366,-21.59327 -2.96186,-7.28757 -4.5294,-15.03452 -4.73938,-22.83779 l 0.0274,-0.0274 c -0.032,-0.578 -0.0636,-1.172 -0.0636,-1.766 0,-8.37499 1.59381,-16.76694 4.78181,-24.59494 3.18799,-7.85999 7.93766,-15.15528 14.34366,-21.59327 z" /></g>
</svg>
