<?xml version="1.0" encoding="UTF-8" standalone="no"?>
<!-- Uploaded to: SVG Repo, www.svgrepo.com, Generator: SVG Repo Mixer Tools -->

<svg
   version="1.1"
   id="_x32_"
   width="1148.5229"
   height="1148.5229"
   viewBox="0 0 735.05468 735.05467"
   xml:space="preserve"
   sodipodi:docname="LinkOn.svg"
   inkscape:version="1.2.2 (732a01da63, 2022-12-09)"
   xmlns:inkscape="http://www.inkscape.org/namespaces/inkscape"
   xmlns:sodipodi="http://sodipodi.sourceforge.net/DTD/sodipodi-0.dtd"
   xmlns:xlink="http://www.w3.org/1999/xlink"
   xmlns="http://www.w3.org/2000/svg"
   xmlns:svg="http://www.w3.org/2000/svg"><defs
   id="defs15"><linearGradient
     inkscape:collect="always"
     id="linearGradient3859"><stop
       style="stop-color:#54ffe2;stop-opacity:1;"
       offset="0"
       id="stop3857" /><stop
       style="stop-color:#fcff00;stop-opacity:1;"
       offset="1"
       id="stop3855" /></linearGradient><linearGradient
     inkscape:collect="always"
     xlink:href="#linearGradient3859"
     id="linearGradient3861"
     x1="360.95688"
     y1="151.06056"
     x2="151.05475"
     y2="360.96268"
     gradientUnits="userSpaceOnUse"
     gradientTransform="translate(210.75525,128.01624)" /><linearGradient
     inkscape:collect="always"
     xlink:href="#linearGradient3252"
     id="linearGradient3254"
     x1="-149.94951"
     y1="393.14316"
     x2="149.93913"
     y2="693.0318"
     gradientUnits="userSpaceOnUse"
     gradientTransform="matrix(1.0693461,0,0,1.0693461,-57.737946,15.475313)" /><linearGradient
     inkscape:collect="always"
     id="linearGradient3252"><stop
       style="stop-color:#769cb4;stop-opacity:1;"
       offset="0"
       id="stop3248" /><stop
       style="stop-color:#001122;stop-opacity:1;"
       offset="1"
       id="stop3250" /></linearGradient></defs><sodipodi:namedview
   id="namedview13"
   pagecolor="#ffffff"
   bordercolor="#000000"
   borderopacity="0.25"
   inkscape:showpageshadow="2"
   inkscape:pageopacity="0.0"
   inkscape:pagecheckerboard="0"
   inkscape:deskcolor="#d1d1d1"
   showgrid="false"
   inkscape:zoom="0.59"
   inkscape:cx="642.37288"
   inkscape:cy="632.20339"
   inkscape:window-width="1440"
   inkscape:window-height="837"
   inkscape:window-x="-8"
   inkscape:window-y="-8"
   inkscape:window-maximized="1"
   inkscape:current-layer="g10" />
<style
   type="text/css"
   id="style2">
<![CDATA[
	.st0{fill:#000000;}
]]>
</style>
<g
   id="g10"
   transform="rotate(45,437.05014,255.98423)">
	<path
   id="rect3891"
   style="fill:#000000;fill-opacity:1;stroke:none;stroke-width:17.92;stroke-miterlimit:1.7;stroke-dasharray:none"
   sodipodi:type="inkscape:offset"
   inkscape:radius="24.949158"
   inkscape:original="M -260.93359 431.45312 C -333.07068 431.45312 -391.14453 499.09012 -391.14453 583.10547 L -391.14453 600.19141 C -391.14453 684.20675 -333.07068 751.84375 -260.93359 751.84375 L 163.79883 751.84375 C 235.93592 751.84375 294.01172 684.20675 294.01172 600.19141 L 294.01172 583.10547 C 294.01172 499.09012 235.93592 431.45312 163.79883 431.45312 L -260.93359 431.45312 z "
   d="m -260.93359,406.50391 c -87.73227,0 -155.16016,81.08915 -155.16016,176.60156 v 17.08594 c 0,95.51239 67.42789,176.60156 155.16016,176.60156 h 424.73242 c 87.73227,0 155.16211,-81.08878 155.16211,-176.60156 v -17.08594 c 0,-95.51279 -67.42984,-176.60156 -155.16211,-176.60156 z"
   transform="matrix(-0.70710678,0.70710678,0.70710678,0.70710678,14.062725,1.7380745e-4)" /><rect
   style="fill:#0f2435;fill-opacity:1;stroke:url(#linearGradient3254);stroke-width:17.92;stroke-miterlimit:1.7;stroke-dasharray:none"
   id="rect1045"
   width="685.15509"
   height="320.39108"
   x="-401.08804"
   y="441.39749"
   transform="matrix(-0.70710678,0.70710678,0.70710678,0.70710678,0,0)"
   rx="130.21135"
   ry="151.65225" /><path
   class="st0"
   d="m 488.92725,425.39125 -51.203,51.188 c 0.016,0.594 0.031,1.188 0.031,1.781 0,8.406 -1.594,16.781 -4.766,24.625 -3.203,7.813 -7.922,15.156 -14.375,21.563 l -33.672,33.719 c -6.453,6.438 -13.766,11.156 -21.609,14.344 -7.859,3.188 -16.219,4.781 -24.609,4.781 -8.375,0 -16.75,-1.594 -24.594,-4.75 -7.844,-3.219 -15.156,-7.938 -21.625,-14.375 -6.438,-6.438 -11.156,-13.75 -14.344,-21.594 -3.188,-7.844 -4.781,-16.219 -4.781,-24.625 0,-8.375 1.594,-16.75 4.781,-24.594 3.187,-7.844 7.906,-15.156 14.344,-21.625 l 33.719,-33.688 c 6.438,-6.406 13.734,-11.156 21.594,-14.344 7.828,-3.188 16.219,-4.781 24.594,-4.781 0.594,0 1.188,0.031 1.766,0.063 l 51.203,-51.234 c -1.594,-0.734 -3.203,-1.422 -4.844,-2.078 -15.422,-6.25 -31.781,-9.375 -48.125,-9.375 -16.344,0 -32.719,3.125 -48.125,9.375 -15.422,6.25 -29.906,15.688 -42.359,28.094 l -33.688,33.719 c -12.438,12.406 -21.859,26.906 -28.109,42.344 -6.25,15.438 -9.376,31.78 -9.376,48.123 0,16.343 3.125,32.719 9.375,48.156 6.25,15.406 15.672,29.906 28.109,42.313 12.422,12.469 26.922,21.906 42.344,28.125 15.438,6.281 31.797,9.375 48.141,9.375 16.359,0 32.719,-3.094 48.141,-9.375 15.422,-6.219 29.922,-15.656 42.344,-28.125 l 33.703,-33.656 c 12.422,-12.469 21.844,-26.938 28.109,-42.344 6.266,-15.469 9.359,-31.813 9.375,-48.156 -0.016,-16.313 -3.109,-32.688 -9.375,-48.156 -0.672,-1.594 -1.375,-3.219 -2.094,-4.813 z"
   id="path4"
   style="fill:#fcff00;fill-opacity:1" />
	<path
   class="st0"
   d="m 713.38025,207.86025 c -6.25,-15.438 -15.672,-29.938 -28.109,-42.359 -12.422,-12.422 -26.922,-21.859 -42.359,-28.109 -15.423,-6.25101 -31.782,-9.37601 -48.126,-9.37601 -16.344,0 -32.719,3.125 -48.141,9.37501 -15.422,6.25 -29.922,15.688 -42.344,28.109 l -33.703,33.703 c -12.421,12.407 -21.843,26.907 -28.109,42.344 -6.266,15.406 -9.359,31.781 -9.359,48.141 0,16.344 3.094,32.703 9.359,48.141 0.672,1.625 1.359,3.219 2.094,4.828 l 51.203,-51.203 c -0.016,-0.578 -0.031,-1.156 -0.031,-1.766 0,-8.391 1.594,-16.781 4.781,-24.609 3.188,-7.844 7.906,-15.156 14.359,-21.625 l 33.672,-33.688 c 6.453,-6.406 13.766,-11.141 21.625,-14.344 7.813,-3.156 16.203,-4.781 24.594,-4.781 8.406,0 16.75,1.625 24.625,4.781 7.813,3.203 15.141,7.938 21.594,14.344 6.438,6.469 11.156,13.781 14.344,21.625 3.156,7.844 4.781,16.219 4.781,24.594 0,8.391 -1.625,16.75 -4.781,24.625 -3.188,7.844 -7.906,15.156 -14.344,21.594 l -33.688,33.688 c -6.438,6.438 -13.766,11.156 -21.625,14.344 -7.828,3.188 -16.203,4.781 -24.594,4.781 -0.594,0 -1.188,-0.016 -1.766,-0.031 l -51.203,51.219 c 1.594,0.719 3.203,1.422 4.813,2.063 15.453,6.281 31.813,9.406 48.156,9.406 16.343,0 32.719,-3.125 48.125,-9.406 15.422,-6.25 29.906,-15.672 42.359,-28.094 l 33.688,-33.703 c 12.438,-12.422 21.859,-26.922 28.109,-42.359 6.25,-15.406 9.375,-31.781 9.375,-48.125 0,-16.344 -3.124,-32.721 -9.374,-48.127 z"
   id="path6"
   style="fill:#54ffe2;fill-opacity:1" />
	<path
   class="st0"
   d="m 370.97425,479.79725 c 12.234,12.25 32.063,12.25 44.281,0 l 147.281,-147.281 c 12.219,-12.219 12.25,-32.031 0,-44.281 -12.234,-12.219 -32.063,-12.219 -44.281,0 l -147.281,147.312 c -12.219,12.219 -12.219,32.032 0,44.25 z"
   id="path8"
   style="fill:url(#linearGradient3861);fill-opacity:1" />
</g>
</svg>
