<?xml version="1.0" encoding="UTF-8" standalone="no"?>
<!-- Created with Inkscape (http://www.inkscape.org/) -->

<svg
   width="82.306999"
   height="30"
   viewBox="0 0 21.777061 7.9375"
   version="1.1"
   id="svg1"
   inkscape:version="1.4 (86a8ad7, 2024-10-11)"
   sodipodi:docname="MainNext.svg"
   xmlns:inkscape="http://www.inkscape.org/namespaces/inkscape"
   xmlns:sodipodi="http://sodipodi.sourceforge.net/DTD/sodipodi-0.dtd"
   xmlns="http://www.w3.org/2000/svg"
   xmlns:svg="http://www.w3.org/2000/svg">
  <sodipodi:namedview
     id="namedview1"
     pagecolor="#000000"
     bordercolor="#000000"
     borderopacity="0.25"
     inkscape:showpageshadow="2"
     inkscape:pageopacity="0.0"
     inkscape:pagecheckerboard="0"
     inkscape:deskcolor="#d1d1d1"
     inkscape:document-units="px"
     inkscape:zoom="4.5153252"
     inkscape:cx="46.951214"
     inkscape:cy="49.60883"
     inkscape:window-width="1920"
     inkscape:window-height="1017"
     inkscape:window-x="-8"
     inkscape:window-y="-8"
     inkscape:window-maximized="1"
     inkscape:current-layer="layer1" />
  <defs
     id="defs1" />
  <g
     inkscape:label="Layer 1"
     inkscape:groupmode="layer"
     id="layer1"
     transform="translate(-153.45833,-36.5125)">
    <g
       style="fill:none"
       id="g26"
       transform="matrix(-1.3818132,0,0,1.3818132,189.94952,14.862458)">
      <path
         d="m 13.64612,15.795345 c -0.169979,-0.169993 -0.445561,-0.169993 -0.615584,0 l -2.127432,2.129522 c -0.339694,0.340047 -0.339559,0.891034 3e-4,1.230863 l 2.128699,2.12873 c 0.170024,0.16998 0.445605,0.16998 0.615628,0 0.16998,-0.16998 0.16998,-0.445604 0,-0.615584 l -1.821983,-1.821982 c -0.169988,-0.16998 -0.169988,-0.445561 0,-0.615584 l 1.820372,-1.820377 c 0.170024,-0.169988 0.170024,-0.445599 0,-0.615588 z"
         fill="#0f0f0f"
         id="path26"
         style="fill:#ffffff;fill-opacity:1;stroke-width:0.435288" />
    </g>
    <path
       d="m 158.254,42.353412 v -3.655797 h 0.52441 l 1.04882,2.38367 1.02623,-2.38367 h 0.52441 v 3.655797 h -0.55452 v -2.280796 h -0.01 l -0.76528,1.758897 h -0.46168 l -0.76528,-1.758897 h -0.0126 v 2.280796 z m 5.22902,0.01004 v -0.230839 h -0.01 q -0.0728,0.135492 -0.2183,0.195711 -0.15556,0.06524 -0.40648,0.06524 -0.43157,-0.01004 -0.65237,-0.23084 -0.24088,-0.220803 -0.24088,-0.564553 0,-0.326187 0.20826,-0.54699 0.20826,-0.220803 0.61474,-0.225821 h 0.70506 V 40.54935 q 0.003,-0.346259 -0.51939,-0.336223 -0.18065,0 -0.30109,0.04015 -0.11793,0.05269 -0.17815,0.163093 l -0.40146,-0.316149 q 0.29106,-0.388915 0.85561,-0.378878 0.47423,-0.005 0.76278,0.185675 0.28353,0.198221 0.28855,0.672446 v 1.783988 z m 0,-0.915831 v -0.190693 h -0.60972 q -0.44662,0.01255 -0.4416,0.31615 0,0.130474 0.11542,0.225821 0.1104,0.102874 0.36382,0.102874 0.32117,0.005 0.45164,-0.07778 0.12044,-0.0828 0.12044,-0.376369 z m 1.10402,0.905795 v -2.604473 h 0.52441 v 2.604473 z m 0,-3.13139 v -0.524407 h 0.52441 v 0.524407 z m 1.21692,3.13139 v -2.604473 h 0.52441 v 0.278513 h 0.01 q 0.24338,-0.308623 0.67746,-0.308623 0.30361,0 0.58463,0.23084 0.28353,0.23084 0.28353,0.672446 v 1.731297 h -0.52441 v -1.55064 q 0,-0.263458 -0.14804,-0.411497 -0.14553,-0.148038 -0.36382,-0.148038 -0.22582,0 -0.37386,0.148038 -0.14553,0.148039 -0.14553,0.411497 v 1.55064 z"
       id="text1"
       style="font-size:5.13869px;font-family:'Alte DIN 1451 Mittelschrift';-inkscape-font-specification:'Alte DIN 1451 Mittelschrift';text-align:end;text-anchor:end;fill:#ffffff;stroke-width:0.350367"
       aria-label="Main" />
  </g>
</svg>
