<?xml version="1.0" encoding="UTF-8" standalone="no"?>
<!-- Created with Inkscape (http://www.inkscape.org/) -->

<svg
   width="90"
   height="30"
   viewBox="0 0 23.812501 7.9375001"
   version="1.1"
   id="svg1"
   inkscape:version="1.4 (86a8ad7, 2024-10-11)"
   sodipodi:docname="MainNext.svg"
   xmlns:inkscape="http://www.inkscape.org/namespaces/inkscape"
   xmlns:sodipodi="http://sodipodi.sourceforge.net/DTD/sodipodi-0.dtd"
   xmlns="http://www.w3.org/2000/svg"
   xmlns:svg="http://www.w3.org/2000/svg">
  <sodipodi:namedview
     id="namedview1"
     pagecolor="#000000"
     bordercolor="#000000"
     borderopacity="0.25"
     inkscape:showpageshadow="2"
     inkscape:pageopacity="0.0"
     inkscape:pagecheckerboard="0"
     inkscape:deskcolor="#d1d1d1"
     inkscape:document-units="px"
     inkscape:zoom="4.5153252"
     inkscape:cx="27.019095"
     inkscape:cy="35.434879"
     inkscape:window-width="1920"
     inkscape:window-height="1017"
     inkscape:window-x="-8"
     inkscape:window-y="-8"
     inkscape:window-maximized="1"
     inkscape:current-layer="layer1" />
  <defs
     id="defs1" />
  <g
     inkscape:label="Layer 1"
     inkscape:groupmode="layer"
     id="layer1"
     transform="translate(-154.13773,-36.5125)">
    <g
       style="fill:none"
       id="g26"
       transform="matrix(-1.3818132,0,0,1.3818132,192.66435,14.862458)">
      <path
         d="m 13.64612,15.795345 c -0.169979,-0.169993 -0.445561,-0.169993 -0.615584,0 l -2.127432,2.129522 c -0.339694,0.340047 -0.339559,0.891034 3e-4,1.230863 l 2.128699,2.12873 c 0.170024,0.16998 0.445605,0.16998 0.615628,0 0.16998,-0.16998 0.16998,-0.445604 0,-0.615584 l -1.821983,-1.821982 c -0.169988,-0.16998 -0.169988,-0.445561 0,-0.615584 l 1.820372,-1.820377 c 0.170024,-0.169988 0.170024,-0.445599 0,-0.615588 z"
         fill="#0f0f0f"
         id="path26"
         style="fill:#ffffff;fill-opacity:1;stroke-width:0.435288" />
    </g>
    <path
       d="m 160.37841,42.228262 v -3.532819 h 0.50677 l 1.01353,2.303486 0.99171,-2.303486 h 0.50677 v 3.532819 h -0.53586 V 40.02419 h -0.01 l -0.73954,1.69973 h -0.44615 l -0.73954,-1.69973 h -0.0121 v 2.204072 z m 5.05312,0.0097 v -0.223074 h -0.01 q -0.0703,0.130935 -0.21095,0.189128 -0.15033,0.06304 -0.3928,0.06304 -0.41706,-0.0097 -0.63043,-0.223074 -0.23278,-0.213376 -0.23278,-0.545563 0,-0.315214 0.20126,-0.528589 0.20125,-0.213376 0.59405,-0.218225 h 0.68135 v -0.266719 q 0.002,-0.334612 -0.50192,-0.324913 -0.17458,0 -0.29096,0.0388 -0.11397,0.05092 -0.17216,0.157607 l -0.38795,-0.305515 q 0.28126,-0.375831 0.82683,-0.366133 0.45827,-0.0048 0.73711,0.17943 0.27399,0.191553 0.27884,0.649825 v 1.723977 z m 0,-0.885023 V 41.16866 h -0.58921 q -0.4316,0.01212 -0.42675,0.305515 0,0.126086 0.11154,0.218225 0.10669,0.09941 0.35158,0.09941 0.31037,0.0048 0.43645,-0.07517 0.11639,-0.08002 0.11639,-0.363708 z m 1.06688,0.875324 v -2.516861 h 0.50676 v 2.516861 z m 0,-3.026052 v -0.506767 h 0.50676 v 0.506767 z m 1.17599,3.026052 v -2.516861 h 0.50676 v 0.269145 h 0.01 q 0.2352,-0.298241 0.65468,-0.298241 0.29339,0 0.56496,0.223074 0.27399,0.223075 0.27399,0.649826 v 1.673057 h -0.50677 v -1.498478 q 0,-0.254595 -0.14305,-0.397654 -0.14064,-0.143058 -0.35159,-0.143058 -0.21822,0 -0.36128,0.143058 -0.14064,0.143059 -0.14064,0.397654 v 1.498478 z"
       id="text2"
       style="font-size:4.96583px;font-family:'Alte DIN 1451 Mittelschrift';-inkscape-font-specification:'Alte DIN 1451 Mittelschrift';fill:#ffffff;stroke-width:0.33858"
       aria-label="Main" />
  </g>
</svg>
