<?xml version="1.0" encoding="UTF-8" standalone="no"?>
<!-- Generator: Adobe Illustrator 25.0.0, SVG Export Plug-In . SVG Version: 6.00 Build 0)  -->

<svg
   version="1.0"
   id="svg15246"
   x="0px"
   y="0px"
   width="31.746881"
   height="31.746881"
   viewBox="0 0 31.74688 31.746882"
   enable-background="new 0 0 39.6836 39.68359"
   xml:space="preserve"
   sodipodi:docname="NeedleDial-bg.svg"
   inkscape:version="1.4 (86a8ad7, 2024-10-11)"
   xmlns:inkscape="http://www.inkscape.org/namespaces/inkscape"
   xmlns:sodipodi="http://sodipodi.sourceforge.net/DTD/sodipodi-0.dtd"
   xmlns:xlink="http://www.w3.org/1999/xlink"
   xmlns="http://www.w3.org/2000/svg"
   xmlns:svg="http://www.w3.org/2000/svg"
   xmlns:rdf="http://www.w3.org/1999/02/22-rdf-syntax-ns#"
   xmlns:cc="http://creativecommons.org/ns#"
   xmlns:dc="http://purl.org/dc/elements/1.1/"><metadata
     id="metadata13"><rdf:RDF><cc:Work
         rdf:about=""><dc:format>image/svg+xml</dc:format><dc:type
           rdf:resource="http://purl.org/dc/dcmitype/StillImage" /></cc:Work></rdf:RDF></metadata><defs
     id="defs11"><linearGradient
       id="linearGradient5"
       inkscape:collect="always"><stop
         style="stop-color:#769cb4;stop-opacity:0.13038416;"
         offset="0"
         id="stop7" /><stop
         style="stop-color:#001122;stop-opacity:1;"
         offset="1"
         id="stop6" /></linearGradient><linearGradient
       inkscape:collect="always"
       xlink:href="#linearGradient5"
       id="linearGradient7"
       x1="15.873047"
       y1="3.6113281"
       x2="15.873047"
       y2="28.134766"
       gradientUnits="userSpaceOnUse" /></defs><sodipodi:namedview
     bordercolor="#666666"
     borderopacity="1.0"
     fit-margin-bottom="0"
     fit-margin-left="0"
     fit-margin-right="0"
     fit-margin-top="0"
     id="base"
     inkscape:current-layer="svg15246"
     inkscape:cx="12.838407"
     inkscape:cy="19.533825"
     inkscape:document-units="px"
     inkscape:pageopacity="0.0"
     inkscape:pageshadow="2"
     inkscape:window-height="1017"
     inkscape:window-maximized="1"
     inkscape:window-width="1920"
     inkscape:window-x="-8"
     inkscape:window-y="-8"
     inkscape:zoom="22.627417"
     pagecolor="#ffffff"
     showgrid="false"
     units="px"
     inkscape:showpageshadow="2"
     inkscape:pagecheckerboard="0"
     inkscape:deskcolor="#d1d1d1" /><linearGradient
     id="SVGID_1_"
     gradientUnits="userSpaceOnUse"
     x1="19.841801"
     y1="6.9124599e-06"
     x2="19.841801"
     y2="39.683609"
     gradientTransform="matrix(0.8,0,0,0.8,1.5279541e-7,-7.4839478e-6)"><stop
       offset="0"
       style="stop-color:#769cb4;stop-opacity:1;"
       id="stop3" /><stop
       offset="0.5"
       style="stop-color:#3b566b;stop-opacity:1;"
       id="stop1" /><stop
       offset="1"
       style="stop-color:#001122;stop-opacity:1;"
       id="stop5" /></linearGradient><circle
     cx="15.873441"
     cy="15.873441"
     r="15.873441"
     id="circle8"
     style="fill:url(#SVGID_1_);stroke-width:0.8" /><path
     id="path1"
     style="fill:#253a4b;fill-opacity:1;stroke-width:7.10782"
     d="M 15.873047 1.0351562 A 14.838 14.838 0 0 0 1.0351562 15.873047 A 14.838 14.838 0 0 0 15.873047 30.710938 A 14.838 14.838 0 0 0 30.710938 15.873047 A 14.838 14.838 0 0 0 15.873047 1.0351562 z M 15.873047 4.4785156 A 11.395 11.395 0 0 1 27.267578 15.873047 A 11.395 11.395 0 0 1 15.873047 27.267578 A 11.395 11.395 0 0 1 4.4785156 15.873047 A 11.395 11.395 0 0 1 15.873047 4.4785156 z " /><g
     id="g2"
     transform="matrix(0.8,0,0,0.8,31.747641,2.4024247e-4)" /><path
     id="path4"
     style="fill:url(#linearGradient7);fill-opacity:0.34902;stroke-width:3.8506"
     d="M 15.873047 3.6113281 A 12.262 12.262 0 0 0 3.6113281 15.873047 A 12.262 12.262 0 0 0 15.873047 28.134766 A 12.262 12.262 0 0 0 28.134766 15.873047 A 12.262 12.262 0 0 0 15.873047 3.6113281 z M 15.873047 5.1386719 A 10.735 10.735 0 0 1 26.609375 15.873047 A 10.735 10.735 0 0 1 15.873047 26.609375 A 10.735 10.735 0 0 1 5.1386719 15.873047 A 10.735 10.735 0 0 1 15.873047 5.1386719 z " /></svg>
