<?xml version="1.0" encoding="UTF-8" standalone="no"?>
<!-- Created with Inkscape (http://www.inkscape.org/) -->

<svg
   width="162.106"
   height="45.576"
   viewBox="0 0 42.890547 12.058651"
   version="1.1"
   id="svg595"
   sodipodi:docname="RequiresDanger.svg"
   inkscape:version="1.2.2 (732a01da63, 2022-12-09)"
   xmlns:inkscape="http://www.inkscape.org/namespaces/inkscape"
   xmlns:sodipodi="http://sodipodi.sourceforge.net/DTD/sodipodi-0.dtd"
   xmlns="http://www.w3.org/2000/svg"
   xmlns:svg="http://www.w3.org/2000/svg">
  <g
     aria-label="Requires:
Dangerous Settings"
     id="text20551"
     style="font-size:5.18583px;font-family:AlteDIN1451Mittelschrift;-inkscape-font-specification:AlteDIN1451Mittelschrift;text-align:center;text-anchor:middle;fill:#ffffff;stroke:#350404;stroke-width:0.79375;stroke-miterlimit:1.7;paint-order:stroke fill markers"
     transform="translate(0.39648438,0.39648438)">
    <g
       id="path21694">
      <path
         style="color:#000000;-inkscape-font-specification:AlteDIN1451Mittelschrift;fill:#350404;stroke:none;-inkscape-stroke:none"
         d="M 10.498047,-0.39648438 V 4.0859375 h 0.396484 0.957032 V 2.5117188 h 0.07031 l 0.761719,1.5742187 h 0.912109 L 13.947266,3.5058594 13.240234,2.1503906 c 0.117674,-0.088761 0.265137,-0.1381247 0.34961,-0.2597656 0.174215,-0.2498614 0.263672,-0.5500476 0.263672,-0.859375 0,-0.22347992 -0.05167,-0.44409713 -0.15625,-0.63867187 -0.09027,-0.1712838 -0.20572,-0.32344977 -0.347657,-0.44726563 -0.268479,-0.23645897 -0.62813,-0.34179687 -1.011718,-0.34179688 z m 1.353516,1.28906251 h 0.480468 c 0.104471,-10e-9 0.148055,0.0203461 0.171875,0.0371094 5.8e-5,4.039e-5 -5.7e-5,0.001913 0,0.001953 0.02132,0.0152658 0.02734,0.002204 0.02734,0.0996094 0,0.068798 -0.0093,0.09399 -0.05469,0.1445312 -0.01675,0.018636 -0.04007,0.042969 -0.175782,0.042969 h -0.449218 z"
         id="path27825" />
      <path
         style="color:#000000;-inkscape-font-specification:AlteDIN1451Mittelschrift;stroke:none;-inkscape-stroke:none"
         d="M 11.454151,0.49630024 V 1.6155077 h 0.845736 q 0.313986,0 0.470979,-0.1747179 0.156993,-0.1747179 0.156993,-0.4102073 0,-0.28106789 -0.187379,-0.42033579 Q 12.583487,0.49630024 12.332805,0.49630024 Z M 10.894547,3.6893333 V 9.6857548e-8 h 1.443322 q 0.473511,0 0.749515,0.243085783142452 0.15446,0.13420361 0.26081,0.3367751 0.108883,0.20257149 0.108883,0.45072152 0,0.3570323 -0.192443,0.6330359 -0.189911,0.2734716 -0.524154,0.387418 l 0.855864,1.6382969 H 12.932923 L 12.170748,2.11434 h -0.716597 v 1.5749933 z"
         id="path27827" />
    </g>
    <g
       id="path21696">
      <path
         style="color:#000000;-inkscape-font-specification:AlteDIN1451Mittelschrift;fill:#350404;stroke:none;-inkscape-stroke:none"
         d="m 14.953125,0.6328125 c -0.35653,0 -0.699358,0.1456026 -0.988281,0.3867187 v 0.00195 c -0.363246,0.3053372 -0.492188,0.7915371 -0.492188,1.3632812 0,0.6022018 0.140933,1.1162296 0.550782,1.4003907 h 0.002 c 0.307496,0.2111479 0.654508,0.3320312 1.009765,0.3320312 0.225127,0 0.4462,-0.042629 0.654297,-0.125 h 0.002 c 0.228059,-0.091694 0.428659,-0.2445358 0.59375,-0.4375 l 0.257813,-0.3007812 -0.328125,-0.28125 h 0.216797 V 2.5742188 2.140625 c 0,-0.4235524 -0.152528,-0.8242969 -0.451172,-1.0996094 C 15.699846,0.78012401 15.333851,0.6328125 14.953125,0.6328125 Z"
         id="path27831" />
      <path
         style="color:#000000;-inkscape-font-specification:AlteDIN1451Mittelschrift;stroke:none;-inkscape-stroke:none"
         d="m 16.034799,2.5751901 h -1.635765 q 0,0.3241144 0.174718,0.4861716 0.17725,0.1620572 0.450722,0.1620572 0.326646,0 0.577328,-0.2532143 l 0.382354,0.3266465 q -0.194975,0.2278929 -0.440593,0.3266465 -0.243086,0.096221 -0.508961,0.096221 -0.405143,0 -0.784964,-0.2608108 -0.379822,-0.263343 -0.379822,-1.0736289 0,-0.7672395 0.349436,-1.0609682 0.351968,-0.2937287 0.734322,-0.2937287 0.432996,0 0.75711,0.3013251 0.324115,0.298793 0.324115,0.8077538 z M 14.399034,2.1396614 h 1.109079 Q 15.495452,1.8434006 15.340992,1.6864077 15.186531,1.5294148 14.953574,1.5294148 q -0.23549,0 -0.392483,0.1569929 -0.15446,0.1569929 -0.162057,0.4532537 z"
         id="path27833" />
    </g>
    <g
       id="path21698">
      <path
         style="color:#000000;-inkscape-font-specification:AlteDIN1451Mittelschrift;fill:#350404;stroke:none;-inkscape-stroke:none"
         d="m 17.388672,0.6328125 c -0.215801,0 -0.426211,0.0457586 -0.611328,0.15039062 -0.158174,0.0875198 -0.297617,0.2051429 -0.40625,0.34765628 -5.6e-4,7.34e-4 -0.0014,0.00122 -0.002,0.00195 -0.11154,0.1438474 -0.186885,0.3152739 -0.222657,0.4941406 -0.03833,0.1901132 -0.04492,0.4164169 -0.04492,0.75 0,0.3328148 0.0069,0.5618185 0.04492,0.7519532 0.03572,0.1786083 0.112146,0.3491964 0.22461,0.4921875 0.108854,0.1445635 0.248551,0.2655917 0.408203,0.3535156 h 0.002 l 0.002,0.00195 c 0.184035,0.098685 0.392425,0.140625 0.605469,0.140625 0.104586,0 0.18316,-0.098132 0.283203,-0.125 v 1.1582031 h 0.396484 0.925782 V 0.6640625 H 17.671922 V 0.7597656 C 17.569277,0.7335488 17.495768,0.6328125 17.388672,0.6328125 Z m 0.789062,0.8242187 h 0.02344 v 0.03125 c -0.0083,-0.010654 -0.01459,-0.021044 -0.02344,-0.03125 z m -0.626953,0.5 c 0.05351,0 0.05689,0.00557 0.06445,0.00781 0.03516,0.1323887 0.05664,0.2667989 0.05664,0.4121094 0,0.1446822 -0.02178,0.2802524 -0.05664,0.4121094 -0.0086,0.0025 -0.01175,0.00781 -0.06445,0.00781 -0.05719,0 -0.06307,-0.00651 -0.07422,-0.00977 -0.03121,-0.1216536 -0.05273,-0.2550894 -0.05273,-0.4101563 0,-0.1564589 0.02098,-0.2896462 0.05273,-0.4121094 0.01023,-0.00305 0.01631,-0.00781 0.07422,-0.00781 z m 0.650391,1.3105469 v 0.03125 l -0.01758,-0.00781 c 0.0066,-0.00772 0.01133,-0.015469 0.01758,-0.023437 z"
         id="path27837" />
      <path
         style="color:#000000;-inkscape-font-specification:AlteDIN1451Mittelschrift;stroke:none;-inkscape-stroke:none"
         d="M 18.06811,4.7528337 V 3.4107975 q -0.321582,0.3089216 -0.678614,0.3089216 -0.243086,0 -0.417804,-0.093689 -0.174718,-0.096221 -0.286132,-0.2456179 -0.111415,-0.1392679 -0.149397,-0.3291787 -0.03798,-0.1899107 -0.03798,-0.6735502 0,-0.4861715 0.03798,-0.6735502 0.03798,-0.1899107 0.149397,-0.3317108 0.111414,-0.1468643 0.286132,-0.2430858 0.174718,-0.098754 0.417804,-0.098754 0.400078,0 0.678614,0.3063894 V 1.0609683 h 0.529218 V 4.7528337 Z M 17.551553,3.1930332 q 0.367161,0 0.440593,-0.2633429 0.07596,-0.2658751 0.07596,-0.5520074 0,-0.2861322 -0.07596,-0.5520073 -0.07343,-0.265875 -0.440593,-0.265875 -0.374757,0 -0.450722,0.2582786 -0.07343,0.2557465 -0.07343,0.5596037 0,0.3038573 0.07343,0.5596038 0.07597,0.2557465 0.450722,0.2557465 z"
         id="path27839" />
    </g>
    <g
       id="path21700">
      <path
         style="color:#000000;-inkscape-font-specification:AlteDIN1451Mittelschrift;fill:#350404;stroke:none;-inkscape-stroke:none"
         d="m 18.884766,0.6640625 v 2.1445313 c -10e-7,0.3825026 0.142204,0.7537383 0.427734,0.9882812 h 0.002 l 0.002,0.00195 c 0.245542,0.1977374 0.540193,0.3183594 0.845703,0.3183594 0.112554,0 0.183607,-0.1072948 0.291016,-0.1347656 v 0.1035156 h 1.324219 v -3.421875 h -1.324219 v 1.9648438 c 0,0.1053042 -0.01568,0.1211525 -0.03125,0.1367187 -0.02775,0.027752 -0.02922,0.03125 -0.08789,0.03125 -0.06275,0 -0.06998,-0.00798 -0.09375,-0.03125 -0.01451,-0.014767 -0.0332,-0.031586 -0.0332,-0.1367187 V 0.6640625 Z m 2.267578,2.9941406 -0.304688,0.1464844 -0.0039,-0.00391 c 0.09586,-0.06544 0.235572,-0.050737 0.308594,-0.1425782 z"
         id="path27843" />
      <path
         style="color:#000000;-inkscape-font-specification:AlteDIN1451Mittelschrift;stroke:none;-inkscape-stroke:none"
         d="M 19.281007,2.8081474 V 1.0609683 h 0.529218 v 1.5673969 q 0,0.2684072 0.146864,0.4178037 0.149397,0.1468643 0.37729,0.1468643 0.220296,0 0.367161,-0.1468643 0.149396,-0.1493965 0.149396,-0.4178037 V 1.0609683 h 0.529218 v 2.628365 H 20.850936 V 3.4107975 h -0.01013 q -0.245618,0.3089216 -0.678614,0.3089216 -0.311454,0 -0.597586,-0.2304251 -0.2836,-0.2329572 -0.283599,-0.6811466 z"
         id="path27845" />
    </g>
    <g
       id="path21702">
      <path
         style="color:#000000;-inkscape-font-specification:AlteDIN1451Mittelschrift;fill:#350404;stroke:none;-inkscape-stroke:none"
         d="M 21.681641,-0.39648438 V 0.6640625 0.92578125 4.0859375 h 0.396484 0.927734 V 0.92578125 0.6640625 -0.39648438 Z"
         id="path27849" />
      <path
         style="color:#000000;-inkscape-font-specification:AlteDIN1451Mittelschrift;stroke:none;-inkscape-stroke:none"
         d="m 22.079026,3.6893333 v -2.628365 h 0.529218 v 2.628365 z m 0,-3.16011519 V 9.6857548e-8 h 0.529218 V 0.52921811 Z"
         id="path27851" />
    </g>
    <g
       id="path21704">
      <path
         style="color:#000000;-inkscape-font-specification:AlteDIN1451Mittelschrift;fill:#350404;stroke:none;-inkscape-stroke:none"
         d="m 24.529297,0.6328125 c -0.115364,0 -0.187009,0.11008938 -0.296875,0.13867187 V 0.6640625 h -1.322266 v 3.421875 h 0.396485 0.925781 V 2.109375 c 0,-0.1204946 0.02105,-0.1173998 0.01367,-0.1113281 0.04513,-0.037251 0.06092,-0.041016 0.101562,-0.041016 0.02178,0 0.04883,0.00196 0.111328,0.048828 L 24.759766,2.2324219 25.648437,1.171875 25.322266,0.91992188 C 25.092372,0.7413635 24.814576,0.6328125 24.529297,0.6328125 Z m -0.689453,0.31640625 0.0039,0.003906 C 23.747944,1.0189259 23.60793,1.0034152 23.53515,1.0957028 Z"
         id="path27855" />
      <path
         style="color:#000000;-inkscape-font-specification:AlteDIN1451Mittelschrift;stroke:none;-inkscape-stroke:none"
         d="m 23.307116,3.6893333 v -2.628365 h 0.529218 v 0.2810679 h 0.01013 q 0.245618,-0.3114537 0.683679,-0.3114537 0.288664,0 0.549475,0.2025715 l -0.382353,0.4557859 q -0.172186,-0.1291393 -0.349436,-0.1291393 -0.194975,0 -0.3545,0.1316714 -0.156993,0.1291394 -0.156993,0.4178037 v 1.5800576 z"
         id="path27857" />
    </g>
    <g
       id="path21706">
      <path
         style="color:#000000;-inkscape-font-specification:AlteDIN1451Mittelschrift;fill:#350404;stroke:none;-inkscape-stroke:none"
         d="m 26.265625,0.6328125 c -0.35653,0 -0.701311,0.1456026 -0.990234,0.3867187 v 0.00195 c -0.363246,0.3053374 -0.492188,0.7915373 -0.492188,1.3632812 0,0.6022017 0.140934,1.1162293 0.550781,1.4003907 h 0.002 c 0.307498,0.2111477 0.654508,0.3320312 1.009766,0.3320312 0.225127,0 0.4462,-0.042628 0.654297,-0.125 h 0.002 c 0.228059,-0.091694 0.430612,-0.2445358 0.595703,-0.4375 l 0.257813,-0.3007812 -0.330078,-0.28125 h 0.216796 V 2.5742188 2.140625 C 27.742188,1.7170729 27.589659,1.3163282 27.291016,1.0410156 27.010574,0.78092688 26.645727,0.6328125 26.265625,0.6328125 Z"
         id="path27861" />
      <path
         style="color:#000000;-inkscape-font-specification:AlteDIN1451Mittelschrift;stroke:none;-inkscape-stroke:none"
         d="M 27.345884,2.5751901 H 25.71012 q 0,0.3241144 0.174717,0.4861716 0.177251,0.1620572 0.450722,0.1620572 0.326647,0 0.577329,-0.2532143 l 0.382353,0.3266465 q -0.194975,0.2278929 -0.440593,0.3266465 -0.243085,0.096221 -0.50896,0.096221 -0.405143,0 -0.784965,-0.2608108 -0.379821,-0.263343 -0.379821,-1.0736289 0,-0.7672395 0.349435,-1.0609682 0.351968,-0.2937287 0.734322,-0.2937287 0.432997,0 0.757111,0.3013251 0.324114,0.298793 0.324114,0.8077538 z M 25.71012,2.1396614 h 1.109078 Q 26.806538,1.8434006 26.652077,1.6864077 26.497616,1.5294148 26.264659,1.5294148 q -0.235489,0 -0.392482,0.1569929 -0.154461,0.1569929 -0.162057,0.4532537 z"
         id="path27863" />
    </g>
    <g
       id="path21708">
      <path
         style="color:#000000;-inkscape-font-specification:AlteDIN1451Mittelschrift;fill:#350404;stroke:none;-inkscape-stroke:none"
         d="m 28.763672,0.6328125 c -0.343479,0 -0.668622,0.0912706 -0.931641,0.28320313 -0.286636,0.20916667 -0.445312,0.56612337 -0.445312,0.92578127 0,0.2844112 0.125341,0.5547793 0.320312,0.7578125 l -0.667969,0.6601562 0.300782,0.28125 c 0.397319,0.3712328 0.897977,0.5761719 1.429687,0.5761719 0.364858,0 0.708043,-0.088672 0.992188,-0.2773437 0.304631,-0.2022749 0.492187,-0.5613747 0.492187,-0.9277344 0,-0.2820742 -0.0885,-0.5605413 -0.261719,-0.7792969 -0.05242,-0.066654 -0.156234,-0.054498 -0.222656,-0.1035156 L 30.357422,1.3378906 30.048828,1.0820312 C 29.886653,0.94723576 29.701361,0.84031956 29.501953,0.76171875 29.278645,0.67193468 29.031189,0.6328125 28.763672,0.6328125 Z"
         id="path27867" />
      <path
         style="color:#000000;-inkscape-font-specification:AlteDIN1451Mittelschrift;stroke:none;-inkscape-stroke:none"
         d="m 27.61176,3.2512725 0.369693,-0.3646287 q 0.344371,0.3367751 0.828011,0.3367751 0.22536,0 0.372225,-0.083561 0.146864,-0.086093 0.146864,-0.2532144 0,-0.2304251 -0.321582,-0.2582786 L 28.541056,2.5853187 Q 28.21441,2.5599973 27.999178,2.3700865 27.783945,2.1801757 27.783945,1.8408685 q 0,-0.4000787 0.281068,-0.6051823 0.281068,-0.2051037 0.698872,-0.2051037 0.344371,0 0.589989,0.098754 0.245618,0.096221 0.440593,0.2582787 L 29.467821,1.772501 q -0.156993,-0.10635 -0.324114,-0.1747179 -0.167122,-0.068368 -0.379822,-0.068368 -0.253214,0 -0.351968,0.091157 -0.09875,0.088625 -0.09875,0.2253608 0,0.086093 0.07343,0.159525 0.07343,0.073432 0.273471,0.088625 l 0.435529,0.030386 q 0.407675,0.027854 0.584925,0.2532143 0.17725,0.2228287 0.17725,0.5342824 0,0.3874179 -0.316518,0.5975858 -0.316518,0.210168 -0.772304,0.210168 -0.655825,0 -1.157189,-0.4684466 z"
         id="path27869" />
    </g>
    <g
       id="path21710">
      <path
         style="color:#000000;-inkscape-font-specification:AlteDIN1451Mittelschrift;fill:#350404;stroke:none;-inkscape-stroke:none"
         d="M 30.009766,1.5878906 V 2.765625 2.9121094 4.0859375 h 0.398437 0.925781 V 2.9121094 2.765625 1.5878906 Z"
         id="path27873" />
      <path
         style="color:#000000;-inkscape-font-specification:AlteDIN1451Mittelschrift;stroke:none;-inkscape-stroke:none"
         d="m 30.407247,2.5144187 v -0.529218 h 0.529218 v 0.529218 z m 0,1.1749146 V 3.1626475 h 0.529218 v 0.5266858 z"
         id="path27875" />
    </g>
    <g
       id="path21712">
      <path
         style="color:#000000;-inkscape-font-specification:AlteDIN1451Mittelschrift;fill:#350404;stroke:none;-inkscape-stroke:none"
         d="M -0.39648438,6.0859375 V 10.568359 H 0 1.2558594 c 0.3298176,0 0.6395942,-0.07198 0.9023437,-0.232421 h 0.00195 C 2.3963749,10.190891 2.5942754,10.002478 2.7382813,9.7773438 2.845562,9.6109491 2.921804,9.4268745 2.9589844,9.2363281 3.0026424,9.0211434 3.0097656,8.7507262 3.0097656,8.328125 c 0,-0.3935059 -0.00695,-0.6533805 -0.035156,-0.84375 C 2.9449319,7.2840521 2.8696364,7.0935187 2.7597656,6.9042969 l -0.00195,-0.00195 v -0.00195 C 2.4521402,6.3839098 1.9041551,6.0859375 1.2910156,6.0859375 Z M 0.95703125,7.4082031 H 1.2304687 c 0.1897876,0 0.256627,0.038825 0.3398438,0.1503906 0.034355,0.047847 0.054083,0.09312 0.0625,0.15625 v 0.00195 0.00391 c 0.011366,0.077494 0.023437,0.3035113 0.023437,0.6269532 0,0.3361663 -0.012531,0.5704299 -0.019531,0.6152343 l -0.00195,0.00391 v 0.00195 c -0.00671,0.046954 -0.022319,0.085913 -0.050781,0.1308594 C 1.5094054,9.2059938 1.4429732,9.2480469 1.2304687,9.2480469 H 0.95703125 Z"
         id="path27879" />
      <path
         style="color:#000000;-inkscape-font-specification:AlteDIN1451Mittelschrift;stroke:none;-inkscape-stroke:none"
         d="M -6.6868961e-7,10.171621 V 6.4822877 H 1.2913926 q 0.7571109,0 1.1242717,0.6203752 0.1367358,0.2354894 0.1671215,0.440593 0.030386,0.2051036 0.030386,0.7849645 0,0.6229074 -0.043046,0.8330753 -0.040515,0.2076358 -0.16459,0.4000787 Q 2.2409464,9.819653 1.9522821,9.9969031 1.6661498,10.171621 1.2559426,10.171621 Z M 0.55960307,7.0115058 V 9.6449351 H 1.2306211 q 0.4608502,0 0.6836788,-0.3215822 0.091157,-0.1392679 0.1139465,-0.298793 0.025321,-0.1620572 0.025321,-0.6760823 0,-0.4963002 -0.027854,-0.6862109 Q 2.0003928,7.4723559 1.8889785,7.3204273 1.6585534,7.0115058 1.2306211,7.0115058 Z"
         id="path27881" />
    </g>
    <g
       id="path21714">
      <path
         style="color:#000000;-inkscape-font-specification:AlteDIN1451Mittelschrift;fill:#350404;stroke:none;-inkscape-stroke:none"
         d="M 4.0664062,7.1210937 C 3.5960398,7.1140393 3.1524621,7.2998486 2.8828125,7.6601562 l -0.2324219,0.3105469 0.6367188,0.5 c -0.093256,0.051201 -0.220727,0.03657 -0.2949219,0.1152344 -0.2070434,0.219516 -0.3183594,0.5203035 -0.3183594,0.8242188 0,0.3209592 0.1355783,0.6357867 0.3691407,0.8535157 0.237364,0.232505 0.5672864,0.337503 0.9199218,0.345703 h 0.00586 0.00391 c 0.087935,0 0.1622346,-0.03206 0.2441406,-0.04297 v 0.01172 h 0.3964843 0.9082032 v -2.1992187 -0.00195 c -0.00421,-0.3975464 -0.1492755,-0.7821124 -0.4609375,-1 L 5.0566406,7.375 5.0527344,7.3710937 C 4.7755123,7.187886 4.436863,7.1180883 4.0664062,7.1210937 Z M 3.15625,9.3847656 c 0,9.017e-4 0.00195,0.00105 0.00195,0.00195 1.25e-5,0.0014 -0.00198,0.00251 -0.00195,0.00391 z m 0.2421875,0.5175782 c 0.0034,0.00317 0.00829,8.29e-4 0.011719,0.00391 0.0032,0.00275 0.00263,0.00905 0.00586,0.011719 z m 0.6347656,0.2089842 c 0.00144,3e-6 0.00247,0.002 0.00391,0.002 h -0.00781 c 0.00154,2.4e-5 0.00237,-0.002 0.00391,-0.002 z"
         id="path27885" />
      <path
         style="color:#000000;-inkscape-font-specification:AlteDIN1451Mittelschrift;stroke:none;-inkscape-stroke:none"
         d="M 4.6135649,10.18175 V 9.9487923 H 4.6034363 Q 4.5300042,10.085528 4.3831399,10.1463 4.2261469,10.212135 3.9729326,10.212135 3.5374039,10.202007 3.3145752,9.9791781 3.0714895,9.7563494 3.0714895,9.4094458 q 0,-0.3291787 0.2101679,-0.5520074 Q 3.4918253,8.6346098 3.9020326,8.6295455 H 4.6135649 V 8.3510097 q 0.00253,-0.3494358 -0.5241537,-0.3393072 -0.1823143,0 -0.3038572,0.040514 -0.1190108,0.053175 -0.1797822,0.1645893 L 3.2006288,7.897756 Q 3.4943574,7.5052738 4.0640898,7.5154023 4.5426649,7.510338 4.8338614,7.702781 5.1199936,7.9028203 5.1250579,8.3813955 V 10.18175 Z m 0,-0.9242329 V 9.0650742 H 3.998254 q -0.4507215,0.012661 -0.4456573,0.3190501 0,0.1316715 0.1164787,0.2278929 0.1114143,0.1038179 0.3671608,0.1038179 0.3241144,0.00506 0.4557858,-0.078496 0.1215429,-0.083561 0.1215429,-0.379822 z"
         id="path27887" />
    </g>
    <g
       id="path21716">
      <path
         style="color:#000000;-inkscape-font-specification:AlteDIN1451Mittelschrift;fill:#350404;stroke:none;-inkscape-stroke:none"
         d="m 6.9355469,7.1152344 c -0.1151777,0 -0.1871718,0.1101801 -0.296875,0.1386718 V 7.1464844 H 5.3164062 V 10.568359 H 5.7128906 6.6386719 V 8.6074219 c 0,-0.1010668 0.016201,-0.1194066 0.03125,-0.1347656 4.95e-5,-5.05e-5 0.0019,5.04e-5 0.00195,0 0.026868,-0.026907 0.029734,-0.033203 0.09375,-0.033203 0.057149,0 0.055621,4.443e-4 0.083984,0.029297 l 0.00195,0.00195 v 0.00195 c 0.016359,0.016359 0.033203,0.031851 0.033203,0.1347656 V 10.568359 H 8.2089844 V 8.4238281 c 0,-0.381129 -0.1461533,-0.750741 -0.4316407,-0.984375 C 7.5341088,7.239653 7.2403916,7.1152344 6.9355469,7.1152344 Z m -0.6894532,0.3164062 0.00195,0.00195 C 6.1521494,7.4994259 6.0122916,7.4857629 5.9394531,7.578125 Z"
         id="path27891" />
      <path
         style="color:#000000;-inkscape-font-specification:AlteDIN1451Mittelschrift;stroke:none;-inkscape-stroke:none"
         d="M 5.7125155,10.171621 V 7.5432559 h 0.529218 v 0.281068 h 0.010129 q 0.245618,-0.3114537 0.6836788,-0.3114537 0.3063894,0 0.5899895,0.2329572 Q 7.811663,7.9787846 7.811663,8.4244419 V 10.171621 H 7.2824446 V 8.6067562 q 0,-0.265875 -0.1493965,-0.4152715 -0.1468643,-0.1493965 -0.3671608,-0.1493965 -0.2278929,0 -0.3772894,0.1493965 -0.1468644,0.1493965 -0.1468644,0.4152715 v 1.5648648 z"
         id="path27893" />
    </g>
    <g
       id="path21718">
      <path
         style="color:#000000;-inkscape-font-specification:AlteDIN1451Mittelschrift;fill:#350404;stroke:none;-inkscape-stroke:none"
         d="m 9.2929688,7.1152344 c -0.2266586,0 -0.448001,0.048002 -0.6386719,0.1640625 -0.1427675,0.08608 -0.2655861,0.1833215 -0.3652344,0.3085937 l -0.00391,0.00195 -0.00195,0.00391 C 8.1792328,7.7300661 8.1015436,7.8846063 8.0585938,8.0488281 l -0.00195,0.00195 v 0.00195 c -0.051396,0.2087988 -0.052734,0.432213 -0.052734,0.8066406 0,0.3744277 0.00134,0.5978412 0.052734,0.8066406 v 0.00391 l 0.00195,0.00195 c 0.043076,0.1647032 0.1214198,0.319561 0.2265625,0.4550777 0.052394,0.06736 0.1277778,0.112306 0.1933593,0.166016 l -0.6054687,0.482422 0.2773437,0.3125 c 0.1502303,0.169825 0.3321596,0.307681 0.5371094,0.410156 0.2113592,0.10568 0.4415188,0.164062 0.6738281,0.164062 0.3817552,0 0.7480479,-0.130386 1.0429689,-0.371093 0.336275,-0.273326 0.494141,-0.707886 0.494141,-1.179688 V 7.1464844 H 9.5742188 v 0.095703 C 9.472958,7.2156912 9.3987104,7.1152344 9.2929688,7.1152344 Z m 0.1621093,1.3242187 c 0.044419,0 0.043221,0.00676 0.033203,0 l 0.00586,0.00391 0.00391,0.00195 c 0.040921,0.02595 0.057776,0.043966 0.060547,0.046875 9.07e-5,6.125e-4 0.00189,0.00541 0.00195,0.00586 l 0.00195,0.00391 v 0.00391 c 5.558e-4,0.00326 0.011719,0.1499121 0.011719,0.3535156 0,0.2036034 -0.011163,0.3502598 -0.011719,0.3535156 v 0.00586 l -0.00195,0.00391 c -1.212e-4,8.281e-4 0.00458,-0.00319 -0.00391,0.00781 -0.00128,0.0014 -0.018203,0.017355 -0.058594,0.042969 l -0.00195,0.00195 -0.00195,0.00195 c 0.00977,-0.00635 0.00752,0.00195 -0.039063,0.00195 -0.051753,0 -0.05921,-0.011205 -0.050781,-0.00586 -0.040677,-0.025795 -0.056292,-0.043805 -0.052734,-0.039063 l -0.00391,-0.00391 -0.00391,-0.00586 c -0.010121,-0.012651 -0.00566,-0.010574 -0.00586,-0.011719 -0.00209,-0.018671 -0.00977,-0.1543516 -0.00977,-0.3535156 -1e-7,-0.2002398 0.00773,-0.336105 0.00977,-0.3535156 2.857e-4,-0.00167 -0.00251,-0.00179 0.00977,-0.017578 -0.00349,0.00449 0.01402,-0.015941 0.056641,-0.042969 l 0.00195,-0.00195 0.00391,-0.00195 c -0.00877,0.00578 -0.00473,-0.00195 0.044922,-0.00195 z m 0.6484379,1.3476563 v 0.00781 l -0.0059,-0.00195 c 0.002,-0.00194 0.0039,-0.00389 0.0059,-0.00586 z"
         id="path27897" />
      <path
         style="color:#000000;-inkscape-font-specification:AlteDIN1451Mittelschrift;stroke:none;-inkscape-stroke:none"
         d="M 9.9715807,10.169089 V 9.8981495 q -0.2760036,0.3038575 -0.6786145,0.3038575 -0.2582786,0 -0.4329965,-0.101286 Q 8.6877839,9.9969031 8.5991589,9.8829566 8.4852124,9.7360923 8.442166,9.5715029 8.4016517,9.4069136 8.4016517,8.8599706 q 0,-0.546943 0.040514,-0.7115324 0.043046,-0.1645893 0.1569929,-0.3139858 0.088625,-0.1114143 0.2608108,-0.2152322 0.1747179,-0.10635 0.4329965,-0.10635 0.3848859,0 0.6786145,0.3114537 V 7.5432559 H 10.500799 V 10.11085 q 0,0.592521 -0.346904,0.873589 -0.3443715,0.281068 -0.7925609,0.281068 -0.2532143,0 -0.4963001,-0.121543 -0.2430858,-0.121543 -0.4178037,-0.31905 l 0.4102072,-0.326646 q 0.096222,0.09622 0.227893,0.167121 0.1342036,0.0709 0.2861322,0.0709 0.2633429,0 0.4304644,-0.146864 0.1696536,-0.146865 0.1696536,-0.420336 z M 8.9308697,8.8599706 q 0,0.3165179 0.015193,0.4203358 0.017725,0.1038179 0.088625,0.1924429 0.053175,0.0709 0.1569929,0.1367358 0.1038179,0.065836 0.2633429,0.065836 0.1544608,0 0.2557465,-0.065836 0.1038179,-0.065836 0.1595251,-0.1367358 0.068368,-0.088625 0.083561,-0.1924429 0.017725,-0.1038179 0.017725,-0.4203358 0,-0.316518 -0.017725,-0.4203358 Q 9.9386629,8.3358169 9.870295,8.2446597 9.8145878,8.1762918 9.7107699,8.1104561 9.6094842,8.0420882 9.4550234,8.0420882 q -0.159525,0 -0.2633429,0.068368 -0.1038179,0.065836 -0.1569929,0.1342036 -0.0709,0.091157 -0.088625,0.1949751 -0.015193,0.1038178 -0.015193,0.4203357 z"
         id="path27899" />
    </g>
    <g
       id="path21720">
      <path
         style="color:#000000;-inkscape-font-specification:AlteDIN1451Mittelschrift;fill:#350404;stroke:none;-inkscape-stroke:none"
         d="m 12.126953,7.1152344 c -0.35653,0 -0.699357,0.1456026 -0.988281,0.3867187 h -0.002 c -0.363246,0.3053372 -0.490235,0.7934903 -0.490235,1.3652344 0,0.6022019 0.140933,1.1162296 0.550782,1.4003905 0.307497,0.211148 0.654507,0.332031 1.009765,0.332031 0.225126,0 0.448153,-0.04263 0.65625,-0.125 h 0.002 c 0.228059,-0.09169 0.428659,-0.244535 0.59375,-0.4375 l 0.257813,-0.3007809 -0.330078,-0.28125 h 0.21875 V 9.0566406 8.6210938 c 0,-0.4226441 -0.15379,-0.822398 -0.451172,-1.0976563 C 12.873674,7.2625462 12.507679,7.1152344 12.126953,7.1152344 Z"
         id="path27903" />
      <path
         style="color:#000000;-inkscape-font-specification:AlteDIN1451Mittelschrift;stroke:none;-inkscape-stroke:none"
         d="m 13.20766,9.0574778 h -1.635765 q 0,0.3241144 0.174718,0.4861716 0.17725,0.1620572 0.450722,0.1620572 0.326646,0 0.577329,-0.2532144 l 0.382353,0.3266465 q -0.194975,0.2278933 -0.440593,0.3266463 -0.243085,0.09622 -0.50896,0.09622 -0.405143,0 -0.784965,-0.2608111 -0.379822,-0.2633429 -0.379822,-1.0736289 0,-0.7672395 0.349436,-1.0609681 0.351968,-0.2937287 0.734322,-0.2937287 0.432996,0 0.757111,0.3013251 0.324114,0.2987929 0.324114,0.8077538 z M 11.571895,8.6219491 h 1.109079 Q 12.668314,8.3256883 12.513853,8.1686954 12.359392,8.0117025 12.126435,8.0117025 q -0.235489,0 -0.392482,0.1569929 -0.154461,0.1569929 -0.162058,0.4532537 z"
         id="path27905" />
    </g>
    <g
       id="path21722">
      <path
         style="color:#000000;-inkscape-font-specification:AlteDIN1451Mittelschrift;fill:#350404;stroke:none;-inkscape-stroke:none"
         d="m 14.988281,7.1152344 c -0.115177,0 -0.187172,0.1101801 -0.296875,0.1386718 V 7.1464844 h -1.324218 v 3.4218746 h 0.398437 0.925781 V 8.5917969 c 0,-0.1204942 0.0191,-0.1173995 0.01172,-0.1113281 0.04513,-0.037251 0.06092,-0.041016 0.101563,-0.041016 0.02178,0 0.04883,0.00196 0.111328,0.048828 l 0.30078,0.226563 L 16.105469,7.6542969 15.78125,7.4023437 C 15.551356,7.2237852 15.27356,7.1152344 14.988281,7.1152344 Z m -0.689453,0.3164062 0.002,0.00195 c -0.0959,0.065832 -0.235755,0.052169 -0.308593,0.1445313 z"
         id="path27909" />
      <path
         style="color:#000000;-inkscape-font-specification:AlteDIN1451Mittelschrift;stroke:none;-inkscape-stroke:none"
         d="M 13.764732,10.171621 V 7.5432559 h 0.529218 v 0.281068 h 0.01013 q 0.245618,-0.3114537 0.683678,-0.3114537 0.288665,0 0.549476,0.2025715 L 15.15488,8.1712275 q -0.172186,-0.1291393 -0.349436,-0.1291393 -0.194975,0 -0.3545,0.1316715 Q 14.29395,8.302899 14.29395,8.5915634 v 1.5800576 z"
         id="path27911" />
    </g>
    <g
       id="path21724">
      <path
         style="color:#000000;-inkscape-font-specification:AlteDIN1451Mittelschrift;fill:#350404;stroke:none;-inkscape-stroke:none"
         d="m 16.734375,7.1152344 c -0.252575,0 -0.487801,0.042749 -0.695313,0.1601562 l -0.002,0.00195 c -0.152343,0.087343 -0.285061,0.1850346 -0.394531,0.3046875 h -0.002 c -0.137118,0.1508336 -0.241529,0.3284659 -0.302734,0.5214844 -0.06735,0.2124116 -0.08399,0.4494469 -0.08399,0.7519532 0,0.3072085 0.01621,0.5440676 0.08399,0.7578125 0.0612,0.1930235 0.165611,0.3706493 0.302734,0.5214848 0.11038,0.122658 0.244648,0.220516 0.398437,0.30664 l 0.002,0.002 c 0.206981,0.114385 0.441869,0.15625 0.693359,0.15625 0.248873,0 0.483762,-0.04258 0.689453,-0.15625 0.15574,-0.08607 0.290939,-0.184804 0.402344,-0.308593 0.137118,-0.150834 0.241529,-0.3284662 0.302734,-0.5214848 0.06777,-0.2137408 0.08398,-0.4506055 0.08398,-0.7578125 0,-0.3025063 -0.01664,-0.5395416 -0.08398,-0.7519532 C 18.067703,7.9104922 17.963295,7.7328663 17.826172,7.5820312 17.715668,7.4612479 17.580094,7.3626993 17.425781,7.2753906 17.219569,7.1587177 16.984351,7.1152344 16.734375,7.1152344 Z m 0,1.3242187 c 0.09998,0 0.08577,0.00471 0.101562,0.027344 0.0181,0.029589 0.03082,0.055719 0.03711,0.082031 l 0.002,0.00391 v 0.00391 c 2.19e-4,8.391e-4 0.01758,0.1260304 0.01758,0.3027344 0,0.176704 -0.01736,0.3018953 -0.01758,0.3027344 v 0.00391 l -0.002,0.00391 c -0.0062,0.026126 -0.01778,0.052567 -0.03516,0.080078 -3e-4,4.143e-4 -0.0017,-4.027e-4 -0.002,0 -0.0158,0.022649 -0.0016,0.029297 -0.101562,0.029297 -0.106703,0 -0.08718,-0.00561 -0.09961,-0.023437 l -0.002,-0.00391 -0.0039,-0.00391 c -0.02139,-0.029227 -0.02925,-0.051303 -0.03516,-0.074219 -0.0036,-0.019173 -0.01563,-0.1407811 -0.01563,-0.3183593 0,-0.1732867 0.0126,-0.2950726 0.01563,-0.3105469 0.0061,-0.023799 0.01604,-0.047849 0.03906,-0.080078 l 0.002,-0.00195 v -0.00195 c 0.01243,-0.017825 -0.0071,-0.021484 0.09961,-0.021484 z"
         id="path27915" />
      <path
         style="color:#000000;-inkscape-font-specification:AlteDIN1451Mittelschrift;stroke:none;-inkscape-stroke:none"
         d="m 15.651179,8.8549063 q 0,-0.422868 0.06583,-0.6305038 0.06584,-0.2076357 0.217765,-0.3747572 0.108882,-0.1190108 0.298793,-0.2278929 0.192443,-0.1088822 0.501364,-0.1088822 0.303857,0 0.4963,0.1088822 0.192443,0.1088821 0.301325,0.2278929 0.151929,0.1671215 0.217765,0.3747572 0.06583,0.2076358 0.06583,0.6305038 0,0.4304644 -0.06583,0.6381002 -0.06584,0.2076358 -0.217765,0.3747573 -0.108882,0.1215428 -0.301325,0.2278932 -0.192443,0.10635 -0.4963,0.10635 -0.308921,0 -0.501364,-0.10635 Q 16.043661,9.9893066 15.934779,9.8677638 15.78285,9.7006423 15.717014,9.4930065 15.651179,9.2853707 15.651179,8.8549063 Z m 1.638297,0.00506 q 0,-0.2861322 -0.03039,-0.4026108 -0.02785,-0.1164786 -0.09875,-0.2228287 -0.139268,-0.1924429 -0.4254,-0.1924429 -0.291196,0 -0.4254,0.1924429 -0.07596,0.1063501 -0.103818,0.2228287 -0.02532,0.1164786 -0.02532,0.3975465 0,0.2886644 0.02532,0.4076751 0.02785,0.1164786 0.103818,0.2202965 0.134204,0.1924429 0.4254,0.1924429 0.286132,0 0.4254,-0.1924429 0.0709,-0.1038179 0.09875,-0.2202965 0.03039,-0.1164786 0.03039,-0.4026108 z"
         id="path27917" />
    </g>
    <g
       id="path21726">
      <path
         style="color:#000000;-inkscape-font-specification:AlteDIN1451Mittelschrift;fill:#350404;stroke:none;-inkscape-stroke:none"
         d="m 17.976562,7.1464844 v 2.1445312 c 0,0.3825027 0.142204,0.7517854 0.427735,0.9863284 l 0.002,0.002 0.002,0.002 c 0.245542,0.197738 0.540193,0.318359 0.845703,0.318359 0.113464,0 0.18476,-0.108808 0.292969,-0.136718 v 0.105468 h 1.322266 V 7.1464844 h -1.322266 v 1.9648437 c 0,0.1053037 -0.01764,0.1211523 -0.0332,0.1367188 -0.02775,0.027751 -0.02922,0.03125 -0.08789,0.03125 -0.06388,0 -0.06896,-0.0069 -0.09375,-0.03125 -0.01451,-0.014767 -0.0332,-0.031586 -0.0332,-0.1367188 V 7.1464844 Z m 2.267579,2.9941406 -0.304688,0.144531 -0.002,-0.002 c 0.09526,-0.06524 0.234,-0.05122 0.306641,-0.142578 z"
         id="path27921" />
      <path
         style="color:#000000;-inkscape-font-specification:AlteDIN1451Mittelschrift;stroke:none;-inkscape-stroke:none"
         d="M 18.373233,9.290435 V 7.5432559 h 0.529218 v 1.5673969 q 0,0.2684072 0.146864,0.4178037 0.149396,0.1468643 0.377289,0.1468643 0.220297,0 0.367161,-0.1468643 Q 19.943162,9.37906 19.943162,9.1106528 V 7.5432559 H 20.47238 V 10.171621 H 19.943162 V 9.8930852 h -0.01013 q -0.245618,0.3089218 -0.678614,0.3089218 -0.311454,0 -0.597586,-0.2304254 -0.2836,-0.2329572 -0.283599,-0.6811466 z"
         id="path27923" />
    </g>
    <g
       id="path21728">
      <path
         style="color:#000000;-inkscape-font-specification:AlteDIN1451Mittelschrift;fill:#350404;stroke:none;-inkscape-stroke:none"
         d="m 22.017578,7.1152344 c -0.343479,0 -0.670575,0.089318 -0.933594,0.28125 -0.286635,0.2091667 -0.443359,0.5661234 -0.443359,0.9257812 0,0.2838417 0.126114,0.5548528 0.320312,0.7578125 l -0.669921,0.6621094 0.302734,0.2812505 c 0.39732,0.371233 0.896024,0.576171 1.427734,0.576171 0.364859,0 0.708043,-0.08867 0.992188,-0.277343 0.304631,-0.202275 0.49414,-0.561375 0.49414,-0.9277347 0,-0.2820742 -0.0885,-0.5605414 -0.261718,-0.7792969 -0.05233,-0.066531 -0.15638,-0.054557 -0.222657,-0.1035156 L 23.609375,7.8203125 23.300781,7.5644531 C 23.138609,7.4296601 22.955263,7.3227411 22.755859,7.2441406 22.532551,7.1543566 22.285095,7.1152344 22.017578,7.1152344 Z"
         id="path27927" />
      <path
         style="color:#000000;-inkscape-font-specification:AlteDIN1451Mittelschrift;stroke:none;-inkscape-stroke:none"
         d="m 20.864863,9.7335601 0.369693,-0.3646286 q 0.344372,0.3367751 0.828011,0.3367751 0.225361,0 0.372225,-0.083561 0.146865,-0.086093 0.146865,-0.2532143 0,-0.2304251 -0.321582,-0.2582787 L 21.79416,9.0676064 Q 21.467514,9.0422849 21.252281,8.8523742 21.037049,8.6624634 21.037049,8.3231561 q 0,-0.4000786 0.281068,-0.6051823 0.281068,-0.2051036 0.698872,-0.2051036 0.344371,0 0.589989,0.098754 0.245618,0.096221 0.440593,0.2582786 L 22.720925,8.2547883 Q 22.563932,8.1484382 22.39681,8.0800704 q -0.167121,-0.068368 -0.379821,-0.068368 -0.253215,0 -0.351968,0.091157 -0.09875,0.088625 -0.09875,0.2253607 0,0.086093 0.07343,0.1595251 0.07343,0.073432 0.273472,0.088625 l 0.435529,0.030386 q 0.407675,0.027854 0.584925,0.2532144 0.17725,0.2228286 0.17725,0.5342823 0,0.387418 -0.316518,0.5975859 -0.316518,0.2101682 -0.772304,0.2101682 -0.655825,0 -1.15719,-0.4684469 z"
         id="path27929" />
    </g>
    <g
       id="path21730">
      <path
         style="color:#000000;-inkscape-font-specification:AlteDIN1451Mittelschrift;fill:#350404;stroke:none;-inkscape-stroke:none"
         d="m 26.013672,6.0527344 c -0.451753,0 -0.866851,0.1287392 -1.164063,0.4140625 h -0.002 v 0.00195 c -0.282959,0.2738317 -0.435547,0.6564138 -0.435547,1.0585937 0,0.3507774 0.121688,0.6910196 0.34961,0.9511719 l 0.002,0.00195 c 0.23964,0.271108 0.585452,0.425171 0.970703,0.4785156 0.0963,0.013516 0.18118,0.025008 0.253906,0.035156 0.07431,0.010369 0.15325,0.021024 0.238281,0.03125 0.102012,0.013423 0.126899,0.039006 0.126954,0.039063 5.4e-5,5.62e-5 0.0098,-0.0057 0.0098,0.066406 0,0.041678 0.01603,0.016393 -0.03125,0.050781 -0.04076,0.029641 -0.131671,0.066406 -0.304687,0.066406 -0.152279,0 -0.29155,-0.025262 -0.427735,-0.076172 C 25.454933,9.1177701 25.333751,9.0498912 25.230504,8.96679 L 24.935582,8.7285087 24.052769,9.732415 24.351597,9.9941337 c 0.456028,0.4000243 1.036072,0.6054683 1.671875,0.6054683 0.457768,0 0.871904,-0.113998 1.191407,-0.36914 0.325922,-0.260269 0.501953,-0.6688175 0.501953,-1.0996095 0,-0.3376857 -0.12089,-0.6652477 -0.333985,-0.9335938 C 27.14343,7.8936673 26.77229,7.7246589 26.357457,7.6738212 h -0.002 -0.002 c -0.08859,-0.010028 -0.166627,-0.019082 -0.234375,-0.027344 h 0.0098 c -0.06685,-0.00978 -0.123684,-0.017755 -0.167969,-0.025391 l -0.0039,-0.00195 h -0.0039 c -0.133682,-0.020474 -0.17217,-0.057704 -0.166016,-0.050781 -0.03092,-0.034787 -0.02148,-0.027054 -0.02148,-0.029297 0,-0.085247 -5.23e-4,-0.062915 0.01758,-0.076172 0.04677,-0.03425 0.100336,-0.054687 0.205078,-0.054687 0.119338,0 0.231937,0.019601 0.347656,0.058594 0.127106,0.042829 0.24519,0.096359 0.353516,0.1640625 l 0.324219,0.203125 0.75,-1.109375 -0.333985,-0.2207032 C 27.233544,6.3744519 27.019518,6.2681149 26.791016,6.1855469 26.54502,6.0966578 26.283702,6.0527344 26.013672,6.0527344 Z m -0.1875,2.3496094 c 0.0016,2.82e-4 0.0042,-2.83e-4 0.0059,0 8.86e-4,1.369e-4 0.0011,0.00182 0.002,0.00195 z"
         id="path27933" />
      <path
         style="color:#000000;-inkscape-font-specification:AlteDIN1451Mittelschrift;stroke:none;-inkscape-stroke:none"
         d="m 24.612436,9.695578 0.369693,-0.4203359 q 0.207636,0.1671215 0.478575,0.2684073 0.27094,0.1012857 0.5672,0.1012857 0.34184,0 0.536815,-0.1418 0.194975,-0.1418001 0.194975,-0.3722251 0,-0.4355287 -0.481107,-0.4988323 -0.126608,-0.015193 -0.23549,-0.030386 -0.108882,-0.015193 -0.253214,-0.03545 -0.478575,-0.065836 -0.729257,-0.3494358 -0.250683,-0.2861322 -0.250683,-0.688743 0,-0.4709788 0.313986,-0.774836 0.316518,-0.3038572 0.888783,-0.3038572 0.341839,0 0.643164,0.1088822 0.301325,0.1088821 0.55454,0.2760036 L 26.898962,7.2951058 Q 26.69639,7.1684987 26.463433,7.0900022 26.230476,7.0115058 25.98739,7.0115058 q -0.258278,0 -0.438061,0.1316714 -0.179782,0.1316715 -0.179782,0.3950144 0,0.1569929 0.121543,0.2937287 0.121543,0.1367357 0.402611,0.1797822 0.07343,0.012661 0.17725,0.027854 0.103818,0.012661 0.238021,0.027853 0.516558,0.063304 0.762176,0.3747573 0.24815,0.3114537 0.24815,0.6887431 0,0.5089608 -0.351968,0.7900288 -0.351968,0.2810683 -0.94449,0.2810683 -0.833075,0 -1.410404,-0.506429 z"
         id="path27935" />
    </g>
    <g
       id="path21732">
      <path
         style="color:#000000;-inkscape-font-specification:AlteDIN1451Mittelschrift;fill:#350404;stroke:none;-inkscape-stroke:none"
         d="m 28.806641,7.1152344 c -0.356531,0 -0.701311,0.1456026 -0.990235,0.3867187 -0.363246,0.3053372 -0.492187,0.7934903 -0.492187,1.3652344 0,0.6022019 0.140933,1.1162296 0.550781,1.4003905 h 0.002 c 0.307497,0.211148 0.654508,0.332031 1.009766,0.332031 0.225126,0 0.446199,-0.04263 0.654297,-0.125 h 0.002 c 0.228059,-0.09169 0.430611,-0.244535 0.595703,-0.4375 L 30.396578,9.7363281 30.0665,9.4550781 h 0.216797 V 9.0566406 8.6210938 c 0,-0.4229083 -0.153423,-0.8223819 -0.451172,-1.0976563 -0.280623,-0.2608913 -0.644664,-0.4082031 -1.02539,-0.4082031 z"
         id="path27939" />
      <path
         style="color:#000000;-inkscape-font-specification:AlteDIN1451Mittelschrift;stroke:none;-inkscape-stroke:none"
         d="m 29.88689,9.0574778 h -1.635765 q 0,0.3241144 0.174718,0.4861716 0.17725,0.1620572 0.450722,0.1620572 0.326646,0 0.577328,-0.2532144 l 0.382354,0.3266465 q -0.194975,0.2278933 -0.440593,0.3266463 -0.243086,0.09622 -0.508961,0.09622 -0.405143,0 -0.784964,-0.2608111 -0.379822,-0.2633429 -0.379822,-1.0736289 0,-0.7672395 0.349436,-1.0609681 0.351968,-0.2937287 0.734322,-0.2937287 0.432996,0 0.757111,0.3013251 0.324114,0.2987929 0.324114,0.8077538 z M 28.251125,8.6219491 h 1.109079 Q 29.347543,8.3256883 29.193083,8.1686954 29.038622,8.0117025 28.805665,8.0117025 q -0.23549,0 -0.392483,0.1569929 -0.15446,0.1569929 -0.162057,0.4532537 z"
         id="path27941" />
    </g>
    <g
       id="path21734">
      <path
         style="color:#000000;-inkscape-font-specification:AlteDIN1451Mittelschrift;fill:#350404;stroke:none;-inkscape-stroke:none"
         d="m 30.714844,6.2949219 -0.636719,0.6777343 v 0.1738282 h -0.263672 v 1.1992187 h 0.263672 v 2.2246099 h 0.396484 0.925782 V 8.3457031 h 0.384765 V 7.1464844 H 31.400391 V 6.5664062 Z"
         id="path27945" />
      <path
         style="color:#000000;-inkscape-font-specification:AlteDIN1451Mittelschrift;stroke:none;-inkscape-stroke:none"
         d="M 30.474348,10.174153 V 7.9483989 h -0.263342 v -0.405143 h 0.263342 V 7.1305165 l 0.529218,-0.564668 v 0.9774074 h 0.384886 v 0.405143 h -0.384886 v 2.2257541 z"
         id="path27947" />
    </g>
    <g
       id="path21736">
      <path
         style="color:#000000;-inkscape-font-specification:AlteDIN1451Mittelschrift;fill:#350404;stroke:none;-inkscape-stroke:none"
         d="m 32.154297,6.2949219 -0.636719,0.6777343 v 0.1738282 h -0.261719 v 1.1992187 h 0.261719 v 2.2246099 h 0.398438 0.925781 V 8.3457031 h 0.384765 V 7.1464844 H 32.841797 V 6.5664062 Z"
         id="path27951" />
      <path
         style="color:#000000;-inkscape-font-specification:AlteDIN1451Mittelschrift;stroke:none;-inkscape-stroke:none"
         d="M 31.915139,10.174153 V 7.9483989 h -0.263343 v -0.405143 h 0.263343 V 7.1305165 l 0.529218,-0.564668 v 0.9774074 h 0.384885 v 0.405143 h -0.384885 v 2.2257541 z"
         id="path27953" />
    </g>
    <g
       id="path21738">
      <path
         style="color:#000000;-inkscape-font-specification:AlteDIN1451Mittelschrift;fill:#350404;stroke:none;-inkscape-stroke:none"
         d="m 32.943359,6.0859375 v 1.0605469 0.2617187 3.1601559 h 0.396485 0.927734 V 7.4082031 7.1464844 6.0859375 Z"
         id="path27957" />
      <path
         style="color:#000000;-inkscape-font-specification:AlteDIN1451Mittelschrift;stroke:none;-inkscape-stroke:none"
         d="M 33.340734,10.171621 V 7.5432559 h 0.529218 v 2.6283651 z m 0,-3.1601152 V 6.4822877 h 0.529218 v 0.5292181 z"
         id="path27959" />
    </g>
    <g
       id="path21740">
      <path
         style="color:#000000;-inkscape-font-specification:AlteDIN1451Mittelschrift;fill:#350404;stroke:none;-inkscape-stroke:none"
         d="m 35.791016,7.1152344 c -0.115364,0 -0.187009,0.1100894 -0.296875,0.1386718 V 7.1464844 h -1.322266 v 3.4218746 h 0.396484 0.925782 V 8.6074219 c 0,-0.101067 0.0162,-0.1194067 0.03125,-0.1347656 4.9e-5,-5.05e-5 0.0019,5.04e-5 0.002,0 0.02689,-0.026927 0.03167,-0.033203 0.0957,-0.033203 0.05715,0 0.05562,4.446e-4 0.08398,0.029297 v 0.00195 l 0.002,0.00195 c 0.01636,0.016359 0.0332,0.031851 0.0332,0.1347656 v 1.9609371 h 1.322266 V 8.4238281 c 0,-0.381407 -0.145739,-0.7507698 -0.431641,-0.984375 C 36.389578,7.239653 36.09586,7.1152344 35.791016,7.1152344 Z m -0.689454,0.3164062 0.0039,0.00391 c -0.0958,0.065801 -0.235814,0.05029 -0.308594,0.1425781 z"
         id="path27963" />
      <path
         style="color:#000000;-inkscape-font-specification:AlteDIN1451Mittelschrift;stroke:none;-inkscape-stroke:none"
         d="M 34.568824,10.171621 V 7.5432559 h 0.529218 v 0.281068 h 0.01013 q 0.245618,-0.3114537 0.683679,-0.3114537 0.306389,0 0.589989,0.2329572 0.286133,0.2329572 0.286133,0.6786145 v 1.7471791 h -0.52922 V 8.6067562 q 0,-0.265875 -0.149397,-0.4152715 -0.146864,-0.1493965 -0.367161,-0.1493965 -0.227893,0 -0.377289,0.1493965 -0.146864,0.1493965 -0.146864,0.4152715 v 1.5648648 z"
         id="path27965" />
    </g>
    <g
       id="path21742">
      <path
         style="color:#000000;-inkscape-font-specification:AlteDIN1451Mittelschrift;fill:#350404;stroke:none;-inkscape-stroke:none"
         d="m 38.148437,7.1152344 c -0.226658,0 -0.448001,0.048002 -0.638671,0.1640625 -0.142201,0.085877 -0.265898,0.1837207 -0.365235,0.3085937 l -0.002,0.00195 -0.002,0.00391 c -0.103965,0.1363138 -0.18361,0.2908628 -0.226563,0.4550781 v 0.00195 0.00195 c -0.05139,0.2087907 -0.05273,0.432214 -0.05273,0.8066406 0,0.3744276 0.0013,0.5978418 0.05273,0.8066406 v 0.00391 0.00195 c 0.04308,0.1647039 0.123373,0.3195608 0.228516,0.4550781 0.05213,0.06703 0.128164,0.110564 0.193359,0.164063 l -0.607421,0.484375 0.277343,0.3125 c 0.150231,0.169825 0.33216,0.307681 0.53711,0.410156 0.211359,0.105679 0.441519,0.164062 0.673828,0.164062 0.380897,0 0.748389,-0.129472 1.042969,-0.36914 l 0.002,-0.002 c 0.335865,-0.273356 0.492187,-0.708164 0.492187,-1.179688 V 7.1464844 h -1.322265 v 0.095703 c -0.101601,-0.026707 -0.176983,-0.126953 -0.283157,-0.126953 z m 0.16211,1.3242187 c 0.04442,0 0.04517,0.00676 0.03516,0 l 0.0039,0.00391 0.0059,0.00195 c 0.04236,0.026861 0.05895,0.047105 0.06055,0.048828 5.6e-5,6.09e-5 0.0019,0.00194 0.002,0.00195 -1.5e-5,8.81e-5 -1.7e-5,0.00184 0,0.00195 v 0.00391 l 0.002,0.00391 c 5.58e-4,0.00327 0.01172,0.14991 0.01172,0.3535156 0,0.2036055 -0.01116,0.3502428 -0.01172,0.3535156 l -0.002,0.00586 v 0.00391 c -8.7e-5,5.916e-4 -0.0018,0.00297 -0.0039,0.00586 -1e-5,1.3e-5 -0.01668,0.018345 -0.05859,0.044922 l -0.002,0.00195 -0.002,0.00195 c 0.0098,-0.00635 0.0056,0.00195 -0.04102,0.00195 -0.05175,0 -0.05921,-0.011205 -0.05078,-0.00586 -0.04068,-0.025794 -0.05435,-0.043819 -0.05078,-0.039063 l -0.0039,-0.00391 -0.0039,-0.00586 c -0.0082,-0.010215 -0.0062,-0.00942 -0.0059,-0.00977 -0.002,-0.017391 -0.01172,-0.1552027 -0.01172,-0.3554688 0,-0.2013476 0.0098,-0.3393636 0.01172,-0.3554687 10e-7,-0.00147 -9.42e-4,-0.00186 0.0098,-0.015625 -0.0035,0.00449 0.01207,-0.015941 0.05469,-0.042969 l 0.0039,-0.00195 0.002,-0.00195 c -0.0088,0.00578 -0.0047,-0.00195 0.04492,-0.00195 z m 0.65039,1.3476563 v 0.00977 l -0.0078,-0.00391 c 0.0023,-0.00227 0.0055,-0.00355 0.0078,-0.00586 z"
         id="path27969" />
      <path
         style="color:#000000;-inkscape-font-specification:AlteDIN1451Mittelschrift;stroke:none;-inkscape-stroke:none"
         d="M 38.827889,10.169089 V 9.8981495 q -0.276004,0.3038575 -0.678615,0.3038575 -0.258278,0 -0.432996,-0.101286 Q 37.544092,9.9969031 37.455467,9.8829566 37.34152,9.7360923 37.298474,9.5715029 37.25796,9.4069136 37.25796,8.8599706 q 0,-0.546943 0.04051,-0.7115324 0.04305,-0.1645893 0.156993,-0.3139858 0.08863,-0.1114143 0.260811,-0.2152322 0.174718,-0.10635 0.432996,-0.10635 0.384886,0 0.678615,0.3114537 v -0.281068 h 0.529218 V 10.11085 q 0,0.592521 -0.346904,0.873589 -0.344371,0.281068 -0.792561,0.281068 -0.253214,0 -0.4963,-0.121543 -0.243086,-0.121543 -0.417804,-0.31905 l 0.410208,-0.326646 q 0.09622,0.09622 0.227892,0.167121 0.134204,0.0709 0.286133,0.0709 0.263343,0 0.430464,-0.146864 0.169654,-0.146865 0.169654,-0.420336 z M 37.787178,8.8599706 q 0,0.3165179 0.01519,0.4203358 0.01772,0.1038179 0.08863,0.1924429 0.05317,0.0709 0.156992,0.1367358 0.103818,0.065836 0.263343,0.065836 0.154461,0 0.255747,-0.065836 0.103818,-0.065836 0.159525,-0.1367358 0.06837,-0.088625 0.08356,-0.1924429 0.01772,-0.1038179 0.01772,-0.4203358 0,-0.316518 -0.01772,-0.4203358 -0.01519,-0.1038179 -0.08356,-0.1949751 -0.05571,-0.068368 -0.159525,-0.1342036 -0.101286,-0.068368 -0.255747,-0.068368 -0.159525,0 -0.263343,0.068368 -0.103817,0.065836 -0.156992,0.1342036 -0.0709,0.091157 -0.08863,0.1949751 -0.01519,0.1038178 -0.01519,0.4203358 z"
         id="path27971" />
    </g>
    <g
       id="path21744">
      <path
         style="color:#000000;-inkscape-font-specification:AlteDIN1451Mittelschrift;fill:#350404;stroke:none;-inkscape-stroke:none"
         d="m 40.902344,7.1152344 c -0.343479,0 -0.670576,0.089318 -0.933594,0.28125 -0.286636,0.2091667 -0.443359,0.5661234 -0.443359,0.9257812 0,0.2838417 0.126114,0.5548528 0.320312,0.7578125 l -0.669922,0.6621094 0.302735,0.2812505 c 0.397319,0.371232 0.896023,0.576171 1.427734,0.576171 0.364858,0 0.708043,-0.08867 0.992187,-0.277343 0.304631,-0.202275 0.494141,-0.561375 0.494141,-0.9277347 0,-0.2820742 -0.0885,-0.5605414 -0.261719,-0.7792969 -0.05233,-0.066531 -0.15638,-0.054557 -0.222656,-0.1035156 L 42.494141,7.8203125 42.185547,7.5644531 C 42.023374,7.4296601 41.840029,7.3227411 41.640625,7.2441406 41.417317,7.1543565 41.169861,7.1152344 40.902344,7.1152344 Z"
         id="path27975" />
      <path
         style="color:#000000;-inkscape-font-specification:AlteDIN1451Mittelschrift;stroke:none;-inkscape-stroke:none"
         d="m 39.749589,9.7335601 0.369693,-0.3646286 q 0.344371,0.3367751 0.828011,0.3367751 0.225361,0 0.372225,-0.083561 0.146864,-0.086093 0.146864,-0.2532143 0,-0.2304251 -0.321582,-0.2582787 L 40.678886,9.0676064 Q 40.352239,9.0422849 40.137007,8.8523742 39.921775,8.6624634 39.921775,8.3231561 q 0,-0.4000786 0.281068,-0.6051823 0.281068,-0.2051036 0.698871,-0.2051036 0.344372,0 0.58999,0.098754 0.245618,0.096221 0.440593,0.2582786 L 41.60565,8.2547883 q -0.156993,-0.1063501 -0.324114,-0.1747179 -0.167122,-0.068368 -0.379822,-0.068368 -0.253214,0 -0.351968,0.091157 -0.09875,0.088625 -0.09875,0.2253607 0,0.086093 0.07343,0.1595251 0.07343,0.073432 0.273471,0.088625 l 0.435529,0.030386 q 0.407675,0.027854 0.584925,0.2532144 0.17725,0.2228286 0.17725,0.5342823 0,0.387418 -0.316518,0.5975859 -0.316518,0.2101682 -0.772303,0.2101682 -0.655826,0 -1.157191,-0.4684469 z"
         id="path27977" />
    </g>
  </g>
  <sodipodi:namedview
     id="namedview597"
     pagecolor="#000000"
     bordercolor="#000000"
     borderopacity="0.25"
     inkscape:showpageshadow="2"
     inkscape:pageopacity="0"
     inkscape:pagecheckerboard="0"
     inkscape:deskcolor="#d1d1d1"
     inkscape:document-units="px"
     showgrid="false"
     inkscape:zoom="2.3786088"
     inkscape:cx="48.347589"
     inkscape:cy="66.425383"
     inkscape:window-width="1440"
     inkscape:window-height="837"
     inkscape:window-x="-8"
     inkscape:window-y="-8"
     inkscape:window-maximized="1"
     inkscape:current-layer="svg595" />
  <defs
     id="defs592" />
  <g
     inkscape:label="Layer 1"
     inkscape:groupmode="layer"
     id="layer1"
     transform="translate(-103.70563,-32.14938)" />
</svg>
