<?xml version="1.0" encoding="UTF-8" standalone="no"?>
<!-- Created with Inkscape (http://www.inkscape.org/) -->

<svg
   width="90"
   height="30"
   viewBox="0 0 23.812501 7.9375001"
   version="1.1"
   id="svg1"
   inkscape:version="1.4 (86a8ad7, 2024-10-11)"
   sodipodi:docname="RoutingPrev.svg"
   xmlns:inkscape="http://www.inkscape.org/namespaces/inkscape"
   xmlns:sodipodi="http://sodipodi.sourceforge.net/DTD/sodipodi-0.dtd"
   xmlns="http://www.w3.org/2000/svg"
   xmlns:svg="http://www.w3.org/2000/svg">
  <sodipodi:namedview
     id="namedview1"
     pagecolor="#000000"
     bordercolor="#000000"
     borderopacity="0.25"
     inkscape:showpageshadow="2"
     inkscape:pageopacity="0.0"
     inkscape:pagecheckerboard="0"
     inkscape:deskcolor="#d1d1d1"
     inkscape:document-units="px"
     inkscape:zoom="4.5153252"
     inkscape:cx="27.019095"
     inkscape:cy="35.434879"
     inkscape:window-width="1920"
     inkscape:window-height="1017"
     inkscape:window-x="-8"
     inkscape:window-y="-8"
     inkscape:window-maximized="1"
     inkscape:current-layer="layer1" />
  <defs
     id="defs1" />
  <g
     inkscape:label="Layer 1"
     inkscape:groupmode="layer"
     id="layer1"
     transform="translate(-154.13773,-36.5125)">
    <g
       style="fill:none"
       id="g26"
       transform="matrix(1.3818132,0,0,1.3818132,139.4236,14.862458)">
      <path
         d="m 13.64612,15.795345 c -0.169979,-0.169993 -0.445561,-0.169993 -0.615584,0 l -2.127432,2.129522 c -0.339694,0.340047 -0.339559,0.891034 3e-4,1.230863 l 2.128699,2.12873 c 0.170024,0.16998 0.445605,0.16998 0.615628,0 0.16998,-0.16998 0.16998,-0.445604 0,-0.615584 l -1.821983,-1.821982 c -0.169988,-0.16998 -0.169988,-0.445561 0,-0.615584 l 1.820372,-1.820377 c 0.170024,-0.169988 0.170024,-0.445599 0,-0.615588 z"
         fill="#0f0f0f"
         id="path26"
         style="fill:#ffffff;fill-opacity:1;stroke-width:0.435288" />
    </g>
    <path
       d="m 162.93902,39.170688 v 1.071727 h 0.80986 q 0.30067,0 0.451,-0.167305 0.15033,-0.167306 0.15033,-0.392805 0,-0.269144 -0.17943,-0.402504 -0.15033,-0.109113 -0.39038,-0.109113 z m -0.53586,3.057574 v -3.532819 h 1.38209 q 0.45342,0 0.71772,0.232773 0.14791,0.128511 0.24975,0.322488 0.10426,0.193978 0.10426,0.431601 0,0.341885 -0.18428,0.60618 -0.18185,0.26187 -0.50192,0.370983 l 0.81956,1.568794 h -0.63528 l -0.72984,-1.508176 h -0.6862 v 1.508176 z m 2.86117,-1.260855 q 0,-0.404928 0.063,-0.603755 0.0631,-0.198828 0.20853,-0.358859 0.10426,-0.113962 0.28612,-0.218225 0.18428,-0.104263 0.48009,-0.104263 0.29097,0 0.47525,0.104263 0.18428,0.104263 0.28854,0.218225 0.14548,0.160031 0.20853,0.358859 0.063,0.198827 0.063,0.603755 0,0.412203 -0.063,0.61103 -0.0631,0.198827 -0.20853,0.358859 -0.10426,0.116386 -0.28854,0.218225 -0.18428,0.101838 -0.47525,0.101838 -0.29581,0 -0.48009,-0.101838 -0.18186,-0.101839 -0.28612,-0.218225 -0.14548,-0.160032 -0.20853,-0.358859 -0.063,-0.198827 -0.063,-0.61103 z m 1.5688,0.0048 q 0,-0.273994 -0.0291,-0.385531 -0.0267,-0.111537 -0.0946,-0.213376 -0.13336,-0.184278 -0.40736,-0.184278 -0.27884,0 -0.40735,0.184278 -0.0727,0.101839 -0.0994,0.213376 -0.0243,0.111537 -0.0243,0.380681 0,0.276418 0.0243,0.39038 0.0267,0.111538 0.0994,0.210951 0.12851,0.184279 0.40735,0.184279 0.274,0 0.40736,-0.184279 0.0679,-0.09941 0.0946,-0.210951 0.0291,-0.111537 0.0291,-0.38553 z m 1.03778,0.412202 v -1.673058 h 0.50676 v 1.500903 q 0,0.257021 0.14064,0.400079 0.14306,0.140634 0.36128,0.140634 0.21095,0 0.35159,-0.140634 0.14305,-0.143058 0.14305,-0.400079 v -1.500903 h 0.50677 v 2.516861 h -0.50677 v -0.266719 h -0.01 q -0.2352,0.295816 -0.64983,0.295816 -0.29824,0 -0.57223,-0.22065 -0.27157,-0.223074 -0.27157,-0.65225 z m 2.69386,0.846228 v -2.13133 h -0.25217 v -0.387956 h 0.25217 v -0.395229 l 0.50677,-0.540713 v 0.935942 h 0.36856 v 0.387956 h -0.36856 v 2.13133 z m 1.36512,-0.0024 v -2.516861 h 0.50677 v 2.516861 z m 0,-3.026052 v -0.506767 h 0.50677 v 0.506767 z m 1.17599,3.026052 v -2.516861 h 0.50677 v 0.269145 h 0.01 q 0.23519,-0.298241 0.65467,-0.298241 0.29339,0 0.56496,0.223074 0.274,0.223075 0.274,0.649826 v 1.673057 h -0.50677 v -1.498478 q 0,-0.254595 -0.14306,-0.397654 -0.14063,-0.143058 -0.35158,-0.143058 -0.21823,0 -0.36129,0.143058 -0.14063,0.143059 -0.14063,0.397654 v 1.498478 z m 4.07838,-0.0024 v -0.259446 q -0.26429,0.290967 -0.64982,0.290967 -0.24732,0 -0.41463,-0.09699 -0.16488,-0.09941 -0.24975,-0.208526 -0.10911,-0.140634 -0.15033,-0.298241 -0.0388,-0.157606 -0.0388,-0.681346 0,-0.52374 0.0388,-0.681347 0.0412,-0.157607 0.15033,-0.300666 0.0849,-0.106687 0.24975,-0.206101 0.16731,-0.101838 0.41463,-0.101838 0.36856,0 0.64982,0.298241 v -0.269145 h 0.50677 v 2.458668 q 0,0.567385 -0.33219,0.836529 -0.32976,0.269144 -0.75894,0.269144 -0.24247,0 -0.47524,-0.116386 -0.23277,-0.116387 -0.40008,-0.305515 l 0.39281,-0.312789 q 0.0921,0.09214 0.21822,0.160031 0.12851,0.06789 0.27399,0.06789 0.25217,0 0.41221,-0.140634 0.16245,-0.140633 0.16245,-0.402503 z m -0.99656,-1.253581 q 0,0.30309 0.0145,0.402503 0.017,0.09941 0.0849,0.184279 0.0509,0.06789 0.15033,0.130935 0.0994,0.06304 0.25217,0.06304 0.14791,0 0.2449,-0.06304 0.0994,-0.06304 0.15275,-0.130935 0.0655,-0.08487 0.08,-0.184279 0.017,-0.09941 0.017,-0.402503 0,-0.303091 -0.017,-0.402504 -0.0146,-0.09941 -0.08,-0.186704 -0.0533,-0.06547 -0.15275,-0.12851 -0.097,-0.06547 -0.2449,-0.06547 -0.15276,0 -0.25217,0.06547 -0.0994,0.06304 -0.15033,0.12851 -0.0679,0.08729 -0.0849,0.186704 -0.0145,0.09941 -0.0145,0.402504 z"
       id="text2"
       style="font-size:4.96583px;font-family:'Alte DIN 1451 Mittelschrift';-inkscape-font-specification:'Alte DIN 1451 Mittelschrift';fill:#ffffff;stroke-width:0.33858"
       aria-label="Routing" />
  </g>
</svg>
