<?xml version="1.0" encoding="UTF-8" standalone="no"?>
<!-- Generator: Adobe Illustrator 19.0.0, SVG Export Plug-In . SVG Version: 6.00 Build 0)  -->

<svg
   version="1.1"
   id="svg8"
   x="0px"
   y="0px"
   width="315"
   height="665"
   viewBox="67 220 315 665"
   xml:space="preserve"
   sodipodi:docname="RoutingPage.svg"
   inkscape:version="1.4 (86a8ad7, 2024-10-11)"
   inkscape:export-filename="..\artwork\background.png"
   inkscape:export-xdpi="168"
   inkscape:export-ydpi="168"
   xmlns:inkscape="http://www.inkscape.org/namespaces/inkscape"
   xmlns:sodipodi="http://sodipodi.sourceforge.net/DTD/sodipodi-0.dtd"
   xmlns="http://www.w3.org/2000/svg"
   xmlns:svg="http://www.w3.org/2000/svg"
   xmlns:rdf="http://www.w3.org/1999/02/22-rdf-syntax-ns#"
   xmlns:cc="http://creativecommons.org/ns#"
   xmlns:dc="http://purl.org/dc/elements/1.1/"><sodipodi:namedview
     id="namedview7"
     pagecolor="#000000"
     bordercolor="#000000"
     borderopacity="0.25"
     inkscape:showpageshadow="2"
     inkscape:pageopacity="0.0"
     inkscape:pagecheckerboard="0"
     inkscape:deskcolor="#d1d1d1"
     showgrid="false"
     inkscape:zoom="2"
     inkscape:cx="183"
     inkscape:cy="629.5"
     inkscape:window-width="1920"
     inkscape:window-height="1017"
     inkscape:window-x="-8"
     inkscape:window-y="-8"
     inkscape:window-maximized="1"
     inkscape:current-layer="text23" /><metadata
     id="metadata186"><rdf:RDF><cc:Work
         rdf:about=""><dc:format>image/svg+xml</dc:format><dc:type
           rdf:resource="http://purl.org/dc/dcmitype/StillImage" /></cc:Work></rdf:RDF></metadata><style
     type="text/css"
     id="style2">
	.st0{fill:#282828;}
	.st1{fill:none;stroke:#FFFFFF;stroke-miterlimit:10;}
	.st2{fill:#FFFFFF;stroke:#FFFFFF;stroke-miterlimit:10;}
	.st3{fill:#FFFFFF;}
	.st4{font-family:'AlteDIN1451Mittelschrift';}
	.st5{font-size:18px;}
	.st6{font-size:11px;}
	.st7{font-size:7px;}
	.st8{font-size:10px;}
	.st9{fill:none;stroke:#FFFFFF;}
</style><defs
     id="defs6"><linearGradient
       id="SVGID_1_-5"
       gradientUnits="userSpaceOnUse"
       x1="19.841801"
       y1="6.9124599e-06"
       x2="19.841801"
       y2="39.683609"
       gradientTransform="matrix(0.8,0,0,0.8,1.5279541e-7,-7.4839478e-6)"><stop
         offset="0"
         style="stop-color:#FFFBFD"
         id="stop3-0" /><stop
         offset="1"
         style="stop-color:#000000"
         id="stop5-2" /></linearGradient><linearGradient
       id="SVGID_2_"
       gradientUnits="userSpaceOnUse"
       x1="-1249.2573"
       y1="-1000.3318"
       x2="-1249.2573"
       y2="-999.22754"
       gradientTransform="matrix(-3.1365719,0,0,-3.1365719,-3693.0118,-2583.9395)">
	<stop
   offset="0"
   style="stop-color:#FDFDFF"
   id="stop12" />
	<stop
   offset="1"
   style="stop-color:#FCFEFF;stop-opacity:0"
   id="stop14" />
</linearGradient><linearGradient
       id="SVGID_1_"
       gradientUnits="userSpaceOnUse"
       x1="1.5"
       y1="0.27405"
       x2="1.5"
       y2="1.37839"
       gradientTransform="matrix(3.1365719,0,0,3.1365719,220.6685,545.05198)">
	<stop
   offset="0"
   style="stop-color:#FDFDFF"
   id="stop5" />
	<stop
   offset="1"
   style="stop-color:#FCFEFF;stop-opacity:0"
   id="stop7" />
</linearGradient><filter
       style="color-interpolation-filters:sRGB"
       inkscape:label="Feather"
       id="filter20"
       x="-0.66132945"
       y="-0.66132945"
       width="2.322659"
       height="2.322659"><feGaussianBlur
         stdDeviation="1.8236882"
         result="blur"
         id="feGaussianBlur18" /><feComposite
         in="SourceGraphic"
         in2="blur"
         operator="atop"
         result="composite1"
         id="feComposite18" /><feComposite
         in2="composite1"
         operator="in"
         result="composite2"
         id="feComposite19" /><feComposite
         in2="composite2"
         operator="in"
         result="composite3"
         id="feComposite20" /></filter><linearGradient
       id="SVGID_2_-1"
       gradientUnits="userSpaceOnUse"
       x1="-1249.2573"
       y1="-1000.3318"
       x2="-1249.2573"
       y2="-999.22754"
       gradientTransform="matrix(-3.1365719,0,0,-3.1365719,-3692.8647,-2584.1069)">
	<stop
   offset="0"
   style="stop-color:#FDFDFF"
   id="stop12-8" />
	<stop
   offset="1"
   style="stop-color:#FCFEFF;stop-opacity:0"
   id="stop14-9" />
</linearGradient><linearGradient
       id="SVGID_1_-2"
       gradientUnits="userSpaceOnUse"
       x1="1.5"
       y1="0.27405"
       x2="1.5"
       y2="1.37839"
       gradientTransform="matrix(3.1365719,0,0,3.1365719,220.8156,544.88457)">
	<stop
   offset="0"
   style="stop-color:#FDFDFF"
   id="stop5-7" />
	<stop
   offset="1"
   style="stop-color:#FCFEFF;stop-opacity:0"
   id="stop7-9" />
</linearGradient><filter
       style="color-interpolation-filters:sRGB"
       inkscape:label="Feather"
       id="filter20-5"
       x="-0.66132945"
       y="-0.66132945"
       width="2.322659"
       height="2.322659"><feGaussianBlur
         stdDeviation="1.8236882"
         result="blur"
         id="feGaussianBlur18-4" /><feComposite
         in="SourceGraphic"
         in2="blur"
         operator="atop"
         result="composite1"
         id="feComposite18-3" /><feComposite
         in2="composite1"
         operator="in"
         result="composite2"
         id="feComposite19-1" /><feComposite
         in2="composite2"
         operator="in"
         result="composite3"
         id="feComposite20-2" /></filter><clipPath
       id="clip444"><path
         d="m 1201.582,338.19922 h 18 v 18 h -18 z m 0,0"
         id="path24586"
         inkscape:connector-curvature="0" /></clipPath><linearGradient
       id="SVGID_2_-3"
       gradientUnits="userSpaceOnUse"
       x1="-1249.2573"
       y1="-1000.3318"
       x2="-1249.2573"
       y2="-999.22754"
       gradientTransform="matrix(-3.1365719,0,0,-3.1365719,-3692.0508,-2583.0405)"><stop
         offset="0"
         style="stop-color:#FDFDFF"
         id="stop12-3" /><stop
         offset="1"
         style="stop-color:#FCFEFF;stop-opacity:0"
         id="stop14-4" /></linearGradient><linearGradient
       id="SVGID_1_-1"
       gradientUnits="userSpaceOnUse"
       x1="1.5"
       y1="0.27405"
       x2="1.5"
       y2="1.37839"
       gradientTransform="matrix(3.1365719,0,0,3.1365719,221.62954,545.95101)"><stop
         offset="0"
         style="stop-color:#FDFDFF"
         id="stop5-1" /><stop
         offset="1"
         style="stop-color:#FCFEFF;stop-opacity:0"
         id="stop7-3" /></linearGradient><filter
       style="color-interpolation-filters:sRGB"
       inkscape:label="Feather"
       id="filter20-8"
       x="-0.66132945"
       y="-0.66132945"
       width="2.322659"
       height="2.322659"><feGaussianBlur
         stdDeviation="1.8236882"
         result="blur"
         id="feGaussianBlur18-7" /><feComposite
         in="SourceGraphic"
         in2="blur"
         operator="atop"
         result="composite1"
         id="feComposite18-4" /><feComposite
         in2="composite1"
         operator="in"
         result="composite2"
         id="feComposite19-2" /><feComposite
         in2="composite2"
         operator="in"
         result="composite3"
         id="feComposite20-7" /></filter><filter
       style="color-interpolation-filters:sRGB"
       inkscape:label="Feather"
       id="filter20-2"
       x="-0.66132945"
       y="-0.66132945"
       width="2.322659"
       height="2.322659"><feGaussianBlur
         stdDeviation="1.8236882"
         result="blur"
         id="feGaussianBlur18-8" /><feComposite
         in="SourceGraphic"
         in2="blur"
         operator="atop"
         result="composite1"
         id="feComposite18-6" /><feComposite
         in2="composite1"
         operator="in"
         result="composite2"
         id="feComposite19-0" /><feComposite
         in2="composite2"
         operator="in"
         result="composite3"
         id="feComposite20-24" /></filter><linearGradient
       id="SVGID_2_-8"
       gradientUnits="userSpaceOnUse"
       x1="-1249.2573"
       y1="-1000.3318"
       x2="-1249.2573"
       y2="-999.22754"
       gradientTransform="matrix(-3.1365719,0,0,-3.1365719,-3674.7467,-2447.3843)"><stop
         offset="0"
         style="stop-color:#FDFDFF"
         id="stop12-6" /><stop
         offset="1"
         style="stop-color:#FCFEFF;stop-opacity:0"
         id="stop14-5" /></linearGradient><linearGradient
       id="SVGID_1_-0"
       gradientUnits="userSpaceOnUse"
       x1="1.5"
       y1="0.27405"
       x2="1.5"
       y2="1.37839"
       gradientTransform="matrix(3.1365719,0,0,3.1365719,238.93364,681.60722)"><stop
         offset="0"
         style="stop-color:#FDFDFF"
         id="stop5-9" /><stop
         offset="1"
         style="stop-color:#FCFEFF;stop-opacity:0"
         id="stop7-0" /></linearGradient><filter
       style="color-interpolation-filters:sRGB"
       inkscape:label="Feather"
       id="filter20-0"
       x="-0.46162084"
       y="-0.46162084"
       width="1.9232417"
       height="1.9232417"><feGaussianBlur
         stdDeviation="1.2729698"
         result="blur"
         id="feGaussianBlur18-6" /><feComposite
         in="SourceGraphic"
         in2="blur"
         operator="atop"
         result="composite1"
         id="feComposite18-1" /><feComposite
         in2="composite1"
         operator="in"
         result="composite2"
         id="feComposite19-3" /><feComposite
         in2="composite2"
         operator="in"
         result="composite3"
         id="feComposite20-8" /></filter><linearGradient
       id="SVGID_2_-9"
       gradientUnits="userSpaceOnUse"
       x1="-1249.2573"
       y1="-1000.3318"
       x2="-1249.2573"
       y2="-999.22754"
       gradientTransform="matrix(-3.1365719,0,0,-3.1365719,-3830.336,-2688.1827)"><stop
         offset="0"
         style="stop-color:#FDFDFF"
         id="stop12-34" /><stop
         offset="1"
         style="stop-color:#FCFEFF;stop-opacity:0"
         id="stop14-46" /></linearGradient><linearGradient
       id="SVGID_1_-06"
       gradientUnits="userSpaceOnUse"
       x1="1.5"
       y1="0.27405"
       x2="1.5"
       y2="1.37839"
       gradientTransform="matrix(3.1365719,0,0,3.1365719,83.344517,440.80902)"><stop
         offset="0"
         style="stop-color:#FDFDFF"
         id="stop5-6" /><stop
         offset="1"
         style="stop-color:#FCFEFF;stop-opacity:0"
         id="stop7-1" /></linearGradient><clipPath
       clipPathUnits="userSpaceOnUse"
       id="clipPath1"><rect
         style="opacity:0.396947;fill:#0f2435;stroke-width:1.11601;stroke-linecap:square;stroke-miterlimit:4.2"
         id="rect2"
         width="9.0521126"
         height="9.0521126"
         x="44.115078"
         y="66.184074" /></clipPath><filter
       style="color-interpolation-filters:sRGB"
       inkscape:label="Feather"
       id="filter20-84"
       x="-0.46162084"
       y="-0.46162084"
       width="1.9232417"
       height="1.9232417"><feGaussianBlur
         stdDeviation="1.2729698"
         result="blur"
         id="feGaussianBlur18-9" /><feComposite
         in="SourceGraphic"
         in2="blur"
         operator="atop"
         result="composite1"
         id="feComposite18-63" /><feComposite
         in2="composite1"
         operator="in"
         result="composite2"
         id="feComposite19-7" /><feComposite
         in2="composite2"
         operator="in"
         result="composite3"
         id="feComposite20-88" /></filter><linearGradient
       id="SVGID_2_-2"
       gradientUnits="userSpaceOnUse"
       x1="-1249.2573"
       y1="-1000.3318"
       x2="-1249.2573"
       y2="-999.22754"
       gradientTransform="matrix(-0.82988463,0,0,-0.82988463,-988.09828,-758.42311)"><stop
         offset="0"
         style="stop-color:#FDFDFF"
         id="stop12-9" /><stop
         offset="1"
         style="stop-color:#FCFEFF;stop-opacity:0"
         id="stop14-1" /></linearGradient><clipPath
       clipPathUnits="userSpaceOnUse"
       id="clipPath11"><rect
         style="opacity:0.396947;fill:#0f2435;stroke-width:1.89517;stroke-linecap:square;stroke-miterlimit:4.2"
         id="rect11"
         width="15.372027"
         height="15.372027"
         x="40.955151"
         y="63.024132" /></clipPath><linearGradient
       id="SVGID_1_-3"
       gradientUnits="userSpaceOnUse"
       x1="1.5"
       y1="0.27405"
       x2="1.5"
       y2="1.37839"
       gradientTransform="matrix(0.82988463,0,0,0.82988463,47.396309,69.455888)"><stop
         offset="0"
         style="stop-color:#FDFDFF"
         id="stop5-5" /><stop
         offset="1"
         style="stop-color:#FCFEFF;stop-opacity:0"
         id="stop7-98" /></linearGradient><clipPath
       clipPathUnits="userSpaceOnUse"
       id="clipPath12"><rect
         style="opacity:0.396947;fill:#0f2435;stroke-width:1.89517;stroke-linecap:square;stroke-miterlimit:4.2"
         id="rect12"
         width="15.372027"
         height="15.372027"
         x="40.955151"
         y="63.024132" /></clipPath><clipPath
       clipPathUnits="userSpaceOnUse"
       id="clipPath13"><rect
         style="opacity:0.396947;fill:#0f2435;stroke-width:1.89517;stroke-linecap:square;stroke-miterlimit:4.2"
         id="rect13"
         width="15.372027"
         height="15.372027"
         x="40.955151"
         y="63.024132" /></clipPath><clipPath
       clipPathUnits="userSpaceOnUse"
       id="clipPath14"><rect
         style="opacity:0.396947;fill:#0f2435;stroke-width:1.11601;stroke-linecap:square;stroke-miterlimit:4.2"
         id="rect14"
         width="9.0521126"
         height="9.0521126"
         x="44.115078"
         y="66.184074" /></clipPath><filter
       style="color-interpolation-filters:sRGB"
       inkscape:label="Feather"
       id="filter20-4"
       x="-0.46162084"
       y="-0.46162084"
       width="1.9232417"
       height="1.9232417"><feGaussianBlur
         stdDeviation="1.2729698"
         result="blur"
         id="feGaussianBlur18-0" /><feComposite
         in="SourceGraphic"
         in2="blur"
         operator="atop"
         result="composite1"
         id="feComposite18-7" /><feComposite
         in2="composite1"
         operator="in"
         result="composite2"
         id="feComposite19-6" /><feComposite
         in2="composite2"
         operator="in"
         result="composite3"
         id="feComposite20-3" /></filter><clipPath
       clipPathUnits="userSpaceOnUse"
       id="clipPath11-2"><rect
         style="opacity:0.396947;fill:#0f2435;stroke-width:1.89517;stroke-linecap:square;stroke-miterlimit:4.2"
         id="rect11-0"
         width="15.372027"
         height="15.372027"
         x="40.955151"
         y="63.024132" /></clipPath><clipPath
       clipPathUnits="userSpaceOnUse"
       id="clipPath12-2"><rect
         style="opacity:0.396947;fill:#0f2435;stroke-width:1.89517;stroke-linecap:square;stroke-miterlimit:4.2"
         id="rect12-6"
         width="15.372027"
         height="15.372027"
         x="40.955151"
         y="63.024132" /></clipPath><clipPath
       clipPathUnits="userSpaceOnUse"
       id="clipPath13-0"><rect
         style="opacity:0.396947;fill:#0f2435;stroke-width:1.89517;stroke-linecap:square;stroke-miterlimit:4.2"
         id="rect13-1"
         width="15.372027"
         height="15.372027"
         x="40.955151"
         y="63.024132" /></clipPath><clipPath
       clipPathUnits="userSpaceOnUse"
       id="clipPath14-6"><rect
         style="opacity:0.396947;fill:#0f2435;stroke-width:1.11601;stroke-linecap:square;stroke-miterlimit:4.2"
         id="rect14-5"
         width="9.0521126"
         height="9.0521126"
         x="44.115078"
         y="66.184074" /></clipPath><filter
       style="color-interpolation-filters:sRGB"
       inkscape:label="Feather"
       id="filter20-7"
       x="-0.46162084"
       y="-0.46162084"
       width="1.9232417"
       height="1.9232417"><feGaussianBlur
         stdDeviation="1.2729698"
         result="blur"
         id="feGaussianBlur18-5" /><feComposite
         in="SourceGraphic"
         in2="blur"
         operator="atop"
         result="composite1"
         id="feComposite18-41" /><feComposite
         in2="composite1"
         operator="in"
         result="composite2"
         id="feComposite19-20" /><feComposite
         in2="composite2"
         operator="in"
         result="composite3"
         id="feComposite20-0" /></filter><linearGradient
       id="SVGID_2_-20"
       gradientUnits="userSpaceOnUse"
       x1="-1249.2573"
       y1="-1000.3318"
       x2="-1249.2573"
       y2="-999.22754"
       gradientTransform="matrix(-0.82988463,0,0,-0.82988463,-988.09828,-758.42311)"><stop
         offset="0"
         style="stop-color:#FDFDFF"
         id="stop12-97" /><stop
         offset="1"
         style="stop-color:#FCFEFF;stop-opacity:0"
         id="stop14-3" /></linearGradient><clipPath
       clipPathUnits="userSpaceOnUse"
       id="clipPath11-7"><rect
         style="opacity:0.396947;fill:#0f2435;stroke-width:1.89517;stroke-linecap:square;stroke-miterlimit:4.2"
         id="rect11-2"
         width="15.372027"
         height="15.372027"
         x="40.955151"
         y="63.024132" /></clipPath><linearGradient
       id="SVGID_1_-6"
       gradientUnits="userSpaceOnUse"
       x1="1.5"
       y1="0.27405"
       x2="1.5"
       y2="1.37839"
       gradientTransform="matrix(0.82988463,0,0,0.82988463,47.396309,69.455888)"><stop
         offset="0"
         style="stop-color:#FDFDFF"
         id="stop5-0" /><stop
         offset="1"
         style="stop-color:#FCFEFF;stop-opacity:0"
         id="stop7-16" /></linearGradient><clipPath
       clipPathUnits="userSpaceOnUse"
       id="clipPath12-5"><rect
         style="opacity:0.396947;fill:#0f2435;stroke-width:1.89517;stroke-linecap:square;stroke-miterlimit:4.2"
         id="rect12-7"
         width="15.372027"
         height="15.372027"
         x="40.955151"
         y="63.024132" /></clipPath><clipPath
       clipPathUnits="userSpaceOnUse"
       id="clipPath14-5"><rect
         style="opacity:0.396947;fill:#0f2435;stroke-width:1.11601;stroke-linecap:square;stroke-miterlimit:4.2"
         id="rect14-4"
         width="9.0521126"
         height="9.0521126"
         x="44.115078"
         y="66.184074" /></clipPath><filter
       style="color-interpolation-filters:sRGB"
       inkscape:label="Feather"
       id="filter20-1"
       x="-0.46162084"
       y="-0.46162084"
       width="1.9232417"
       height="1.9232417"><feGaussianBlur
         stdDeviation="1.2729698"
         result="blur"
         id="feGaussianBlur18-2" /><feComposite
         in="SourceGraphic"
         in2="blur"
         operator="atop"
         result="composite1"
         id="feComposite18-0" /><feComposite
         in2="composite1"
         operator="in"
         result="composite2"
         id="feComposite19-01" /><feComposite
         in2="composite2"
         operator="in"
         result="composite3"
         id="feComposite20-4" /></filter></defs><g
     id="layer1"
     transform="translate(0,-196.5)"
     inkscape:groupmode="layer"
     inkscape:label="Layer 1"><path
       id="rect485"
       style="display:none;fill:#ffffff;stroke-width:2"
       d="m 184.33203,534.88672 c -0.90121,0 -1.60116,0.24023 -2.09961,0.71875 -0.49448,0.47852 -0.74023,1.09033 -0.74023,1.83203 0,0.63402 0.19506,1.17637 0.58984,1.62695 0.39477,0.44659 0.969,0.71856 1.72266,0.82227 0.22731,0.0319 0.42814,0.0619 0.59961,0.0859 0.1715,0.024 0.35726,0.0484 0.55664,0.0723 0.75764,0.0998 1.13867,0.49186 1.13867,1.17774 0,0.36289 -0.15582,0.65559 -0.46289,0.8789 -0.30704,0.22333 -0.72924,0.33594 -1.26758,0.33594 -0.46655,0 -0.91316,-0.0808 -1.33984,-0.24023 -0.42667,-0.15944 -0.80387,-0.3716 -1.13086,-0.63477 l -0.8711,0.99414 c 0.90918,0.79751 2.01619,1.19531 3.32813,1.19531 0.9331,0 1.67816,-0.2195 2.23242,-0.66211 0.55427,-0.44263 0.83008,-1.06566 0.83008,-1.86718 0,-0.59416 -0.1932,-1.13647 -0.58399,-1.62696 -0.3868,-0.49047 -0.98729,-0.78508 -1.80078,-0.88476 -0.21133,-0.024 -0.39703,-0.0485 -0.56054,-0.0684 -0.16345,-0.024 -0.30624,-0.0445 -0.42188,-0.0645 -0.44263,-0.0677 -0.75782,-0.20846 -0.94922,-0.42382 -0.19139,-0.21532 -0.28711,-0.44612 -0.28711,-0.69336 0,-0.41469 0.1407,-0.72624 0.42383,-0.9336 0.28312,-0.20737 0.62843,-0.31054 1.03516,-0.31054 0.38282,0 0.75813,0.0599 1.125,0.18359 0.36689,0.12356 0.71028,0.28697 1.02929,0.48633 l 0.73438,-1.0918 c -0.39876,-0.26319 -0.83408,-0.47694 -1.30859,-0.64844 -0.47453,-0.1715 -0.98317,-0.25976 -1.52149,-0.25976 z m 4.37891,0.0781 v 8.7168 h 1.25 v -3.69922 c 0,-0.41871 0.1184,-0.74521 0.34961,-0.98047 0.23527,-0.23528 0.52979,-0.35156 0.88867,-0.35156 0.34693,0 0.63593,0.11622 0.86719,0.35156 0.23529,0.23526 0.35156,0.56176 0.35156,0.98047 v 3.69922 h 1.25195 v -4.12891 c 0,-0.7018 -0.22714,-1.23665 -0.67773,-1.60351 -0.4466,-0.36688 -0.90814,-0.55078 -1.39063,-0.55078 -0.68985,0 -1.23037,0.24781 -1.61718,0.73828 h -0.0234 v -3.17188 z m 52.46484,0 v 8.7168 H 246.75 v -1.24414 h -4.25195 v -7.47266 z m -33.67773,0.19922 -1.25,1.33203 v 0.97461 H 205.625 v 0.95703 h 0.62305 v 5.25977 h 1.25 v -5.25977 h 0.91015 v -0.95703 h -0.91015 z m 54.57031,2.14649 c -0.2211,0.0931 -0.47571,0.25804 -0.61328,0.34179 -0.27116,0.16345 -0.47958,0.33431 -0.61914,0.50977 -0.17943,0.23527 -0.30135,0.48104 -0.36914,0.74023 -0.0639,0.25919 -0.0957,0.81643 -0.0957,1.67774 0,0.86134 0.0319,1.42246 0.0957,1.68164 0.0677,0.25919 0.1897,0.50505 0.36914,0.73633 0.13965,0.17946 0.34798,0.35213 0.61914,0.51562 0.27514,0.1596 0.61474,0.24024 1.02148,0.24024 0.63404,0 1.16887,-0.24026 1.60352,-0.71875 v 0.63867 c 0,0.43064 -0.1333,0.76481 -0.40039,0.99609 -0.26318,0.23128 -0.60287,0.34375 -1.01758,0.34375 -0.23926,0 -0.46638,-0.0543 -0.67773,-0.16601 -0.20736,-0.11165 -0.38558,-0.24301 -0.53711,-0.39454 l -0.97071,0.76954 c 0.27515,0.31103 0.60546,0.56445 0.98828,0.75586 0.38281,0.1914 0.7731,0.2871 1.17188,0.2871 0.70581,0 1.33076,-0.22143 1.87305,-0.66406 0.54633,-0.44264 0.82031,-1.13134 0.82031,-2.06445 v -6.06641 h -1.25 v 0.66602 c -0.46258,-0.49047 -1.60352,-0.13213 -1.60352,-0.73828 0,-0.20337 -0.1871,-0.18102 -0.4082,-0.0879 z m -64.52344,0.0879 c -0.4865,0 -0.87859,0.0884 -1.18164,0.25976 -0.29907,0.1715 -0.53557,0.34971 -0.70703,0.53711 -0.23926,0.26319 -0.41,0.55778 -0.51367,0.88477 -0.10378,0.32697 -0.15625,0.82428 -0.15625,1.49023 0,0.67788 0.0527,1.18083 0.15625,1.50781 0.1036,0.327 0.27441,0.62157 0.51367,0.88477 0.1715,0.1914 0.40796,0.36964 0.70703,0.53711 0.30305,0.16748 0.69514,0.25391 1.18164,0.25391 0.4785,0 0.87076,-0.0864 1.17383,-0.25391 0.30304,-0.16747 0.53948,-0.34571 0.71094,-0.53711 0.23925,-0.2632 0.41194,-0.55777 0.51562,-0.88477 0.1036,-0.32699 0.1543,-0.82993 0.1543,-1.50781 0,-0.66595 -0.0505,-1.16326 -0.1543,-1.49023 -0.1036,-0.32699 -0.27636,-0.62158 -0.51562,-0.88477 -0.1715,-0.1874 -0.4079,-0.36564 -0.71094,-0.53711 -0.30307,-0.1715 -0.69533,-0.25976 -1.17383,-0.25976 z m 6.76172,0 c -0.68986,0 -1.23039,0.24781 -1.61719,0.73828 h -0.0234 v -0.66602 h -1.25196 v 6.21094 h 1.25196 v -3.73242 c 0,-0.45457 0.12579,-0.78491 0.37304,-0.98828 0.25122,-0.20734 0.5289,-0.31055 0.83594,-0.31055 0.27914,0 0.55306,0.10129 0.82422,0.30469 l 0.90234,-1.07813 c -0.41072,-0.31902 -0.84034,-0.47851 -1.29492,-0.47851 z m 45.83398,0 c -0.48648,0 -0.87858,0.0884 -1.18164,0.25976 -0.29908,0.1715 -0.53556,0.34971 -0.70703,0.53711 -0.23926,0.26319 -0.41,0.55778 -0.51367,0.88477 -0.10377,0.32697 -0.15625,0.82428 -0.15625,1.49023 0,0.67788 0.0525,1.18083 0.15625,1.50781 0.1036,0.327 0.27441,0.62157 0.51367,0.88477 0.1715,0.1914 0.40795,0.36964 0.70703,0.53711 0.30306,0.16748 0.69517,0.25391 1.18164,0.25391 0.47853,0 0.87077,-0.0864 1.17383,-0.25391 0.30305,-0.16747 0.54143,-0.34571 0.71289,-0.53711 0.23926,-0.2632 0.40999,-0.55777 0.51368,-0.88477 0.1036,-0.32699 0.15625,-0.82993 0.15625,-1.50781 0,-0.66595 -0.0527,-1.16326 -0.15625,-1.49023 -0.1036,-0.32699 -0.27442,-0.62158 -0.51368,-0.88477 -0.1715,-0.1874 -0.40984,-0.36564 -0.71289,-0.53711 -0.30306,-0.1715 -0.69531,-0.25976 -1.17383,-0.25976 z m 6.76172,0 c -0.68985,0 -1.23038,0.24781 -1.61718,0.73828 h -0.0234 v -0.66602 h -1.24805 v 6.21094 h 1.24805 v -3.69922 c 0,-0.4187 0.11645,-0.74522 0.34766,-0.98047 0.23527,-0.23529 0.53368,-0.35156 0.89257,-0.35156 0.34692,0 0.63396,0.11622 0.86524,0.35156 0.23527,0.23525 0.35547,0.56177 0.35547,0.98047 v 3.69922 h 1.24804 v -4.12891 c 0,-0.70181 -0.22322,-1.23666 -0.67382,-1.60351 -0.44662,-0.3669 -0.91203,-0.55078 -1.39454,-0.55078 z m -59.35742,1.25195 c 0.45059,0 0.78653,0.1501 1.00586,0.45313 0.11165,0.16748 0.18855,0.34392 0.23242,0.52734 0.0478,0.18343 0.0723,0.49865 0.0723,0.94922 0,0.45063 -0.0245,0.77167 -0.0723,0.95508 -0.0439,0.18346 -0.12075,0.35605 -0.23242,0.51953 -0.21933,0.30307 -0.55527,0.45508 -1.00586,0.45508 -0.45859,0 -0.79255,-0.15203 -1.0039,-0.45508 -0.1197,-0.16345 -0.20223,-0.33607 -0.2461,-0.51953 -0.0399,-0.18739 -0.0586,-0.51026 -0.0586,-0.96485 0,-0.44265 0.0187,-0.75602 0.0586,-0.93945 0.0439,-0.18342 0.12652,-0.35985 0.2461,-0.52734 0.21135,-0.30305 0.54531,-0.45313 1.0039,-0.45313 z m 52.5957,0 c 0.45062,0 0.78655,0.1501 1.00586,0.45313 0.11165,0.16748 0.19245,0.34392 0.23633,0.52734 0.0478,0.18343 0.0703,0.49865 0.0703,0.94922 0,0.45063 -0.0225,0.77167 -0.0703,0.95508 -0.0439,0.18346 -0.12473,0.35605 -0.23633,0.51953 -0.21931,0.30307 -0.55524,0.45508 -1.00586,0.45508 -0.45857,0 -0.79255,-0.15203 -1.0039,-0.45508 -0.1197,-0.16345 -0.19832,-0.33607 -0.24219,-0.51953 -0.0399,-0.18739 -0.0625,-0.51026 -0.0625,-0.96485 0,-0.44265 0.0228,-0.75602 0.0625,-0.93945 0.0439,-0.18342 0.12254,-0.35985 0.24219,-0.52734 0.21135,-0.30305 0.54533,-0.45313 1.0039,-0.45313 z m 12.71876,0 c 0.24324,0 0.44597,0.0525 0.60546,0.16016 0.16345,0.10378 0.28727,0.21072 0.375,0.31836 0.10763,0.1435 0.17528,0.29741 0.19922,0.46093 0.028,0.16345 0.041,0.49374 0.041,0.99219 0,0.49845 -0.0123,0.83067 -0.041,0.99414 -0.024,0.16345 -0.0915,0.31552 -0.19922,0.45508 -0.0877,0.11165 -0.21149,0.21664 -0.375,0.32031 -0.15942,0.10378 -0.36221,0.15821 -0.60546,0.15821 -0.25122,0 -0.4576,-0.0544 -0.6211,-0.15821 -0.16345,-0.1036 -0.2893,-0.20866 -0.37305,-0.32031 -0.11165,-0.13948 -0.18107,-0.29157 -0.20898,-0.45508 -0.024,-0.16345 -0.0332,-0.49569 -0.0332,-0.99414 0,-0.49845 0.01,-0.82872 0.0332,-0.99219 0.028,-0.16345 0.0973,-0.31736 0.20898,-0.46093 0.0836,-0.10762 0.20958,-0.21467 0.37305,-0.31836 0.16345,-0.10762 0.36989,-0.16016 0.6211,-0.16016 z m -57.2754,7.91211 v 13.69531 h 2.07618 v -5.34765 h 3.1582 c 1.40364,0 2.46843,-0.44068 3.19531,-1.32422 0.73316,-0.88356 1.09961,-1.81349 1.09961,-2.79102 0,-0.73943 -0.14146,-1.3876 -0.42969,-1.94531 -0.28824,-0.56394 -0.63915,-1.00656 -1.05273,-1.32617 -0.53263,-0.41358 -1.04598,-0.67627 -1.54102,-0.78906 -0.48876,-0.11289 -1.00252,-0.17188 -1.53515,-0.17188 z m 28.5,0 v 13.69531 h 4.66211 c 1.01514,0 1.87589,-0.21606 2.58399,-0.64843 0.71435,-0.43864 1.27434,-0.97802 1.68164,-1.61719 0.30703,-0.47621 0.51106,-0.96858 0.61133,-1.48242 0.10658,-0.5201 0.16015,-1.55223 0.16015,-3.09375 0,-1.43497 -0.0362,-2.40454 -0.11132,-2.91211 -0.0752,-0.50756 -0.28467,-1.05591 -0.62305,-1.63868 -0.90862,-1.53524 -2.30021,-2.30274 -4.17383,-2.30273 z m -26.42382,1.96484 h 3.00781 c 0.60157,0 1.09432,0.12982 1.47656,0.38672 0.59529,0.38852 0.89063,0.99513 0.89063,1.82227 0,0.54516 -0.18809,1.04999 -0.57032,1.51367 -0.37599,0.46371 -0.9519,0.69727 -1.72265,0.69727 h -3.08203 z m 28.49804,0 h 2.49219 c 1.059,0 1.87314,0.38397 2.44336,1.14844 0.27572,0.37597 0.4471,0.79957 0.50977,1.26953 0.069,0.46997 0.10156,1.31672 0.10156,2.54492 0,1.27204 -0.0331,2.10872 -0.0957,2.50977 -0.0564,0.39478 -0.19435,0.76669 -0.41993,1.11133 -0.55142,0.79582 -1.3986,1.1914 -2.53906,1.1914 h -2.49219 z m -14.77539,1.86328 c -1.02845,-0.34281 -1.92929,0.3855 -2.53711,1.15626 h -0.0371 v -1.04297 h -1.96484 v 9.7539 h 1.96484 v -5.86523 c 0,-0.71436 0.19349,-1.2312 0.58203,-1.55078 0.39476,-0.32585 0.83197,-0.48828 1.31446,-0.48828 0.43866,0 0.87274,0.16093 1.29883,0.48046 l 1.41992,-1.6914 c -0.64544,-0.50132 -1.3633,-0.52605 -2.04102,-0.75196 z m 6.43946,0 c -0.94621,0 -1.8536,0.36297 -2.72461,1.08985 -0.86475,0.72688 -1.29883,2.03882 -1.29883,3.9375 0,2.00521 0.47216,3.33465 1.41211,3.98633 0.93994,0.64545 1.90952,0.96679 2.91211,0.96679 0.65797,0 1.28906,-0.1174 1.89062,-0.35547 0.60783,-0.24437 1.15032,-0.64892 1.63281,-1.21289 l -1.41796,-1.21289 c -0.62036,0.62663 -1.33424,0.93946 -2.14258,0.93946 -0.67676,0 -1.23324,-0.20053 -1.67188,-0.60157 -0.43237,-0.40103 -0.65039,-1.00259 -0.65039,-1.80468 h 6.07031 v -1.61719 c 0,-1.2595 -0.40104,-2.25863 -1.20312,-2.99805 -0.80209,-0.74571 -1.73707,-1.1172 -2.80859,-1.11719 z m 0,1.84961 c 0.57648,0 1.05722,0.19545 1.43945,0.58399 0.38224,0.38848 0.58585,0.94851 0.61719,1.68164 h -4.11524 c 0.0187,-0.73313 0.2193,-1.29316 0.60156,-1.68164 0.3885,-0.38854 0.87427,-0.58399 1.45704,-0.58399 z" /><g
       id="text23"
       style="font-size:20.3719px;font-family:'Alte DIN 1451 Mittelschrift';-inkscape-font-specification:'Alte DIN 1451 Mittelschrift';text-align:center;text-anchor:middle;fill:#ffffff;stroke-width:1.38899"
       aria-label="Nested Diffusion"
       transform="translate(2.5e-4,-4)"><path
         d="m 165.18359,639.018 c -0.36607,0.008 -0.98266,0.54314 -1.33593,0.85155 -0.50244,0.43466 -0.75391,1.05394 -0.75391,1.85547 v 3.8457 c 0,0.80153 0.25147,1.4169 0.75391,1.85157 0.50244,0.43461 1.07665,0.65429 1.72265,0.65429 0.642,0 1.21436,-0.21968 1.7168,-0.65429 0.50643,-0.43467 0.75781,-1.05004 0.75781,-1.85157 v -3.8457 c 0,-0.80153 -0.25138,-1.42082 -0.75781,-1.85547 -0.50244,-0.43866 -1.0748,-0.65625 -1.7168,-0.65625 -0.0404,0 -0.0833,-0.002 -0.12304,0 -0.0473,-0.14177 -0.14165,-0.19813 -0.26368,-0.1953 z m 48.69727,0.19539 c -0.646,0 -1.22023,0.21759 -1.72266,0.65625 -0.50244,0.43466 -0.75586,1.05394 -0.75586,1.85547 v 3.8457 c 0,0.80153 0.25342,1.42082 0.75586,1.85547 0.50243,0.43467 1.07666,0.65039 1.72266,0.65039 0.642,0 1.2124,-0.21572 1.71484,-0.65039 0.50643,-0.43465 0.75977,-1.05394 0.75977,-1.85547 v -3.8457 c 0,-0.80153 -0.25334,-1.42082 -0.75977,-1.85547 -0.50244,-0.43866 -0.99585,-0.59403 -1.71484,-0.65625 z m -5.03125,0.0782 -1.24414,0.90233 v 1.32617 l 1.24414,-0.91014 v 7.41405 h 1.25781 v -8.73242 z m -43.2793,1.16796 c 0.36687,0 0.66147,0.12217 0.88477,0.35743 0.22729,0.23524 0.33984,0.56178 0.33984,0.98047 v 3.70117 c 0,0.42265 -0.11258,0.75299 -0.33984,0.98828 -0.2233,0.23128 -0.5179,0.34569 -0.88477,0.34569 -0.37084,0 -0.66732,-0.11439 -0.89062,-0.34569 -0.22332,-0.23529 -0.33594,-0.56562 -0.33594,-0.98828 v -3.70117 c 0,-0.41869 0.11262,-0.74523 0.33594,-0.98047 0.2233,-0.2353 0.51978,-0.35743 0.89062,-0.35743 z m 48.31055,0.004 c 0.36687,0 0.66148,0.11621 0.88476,0.35156 0.22731,0.23525 0.3418,0.56376 0.3418,0.98244 v 3.70117 c 0,0.42266 -0.11444,0.75299 -0.3418,0.98828 -0.22328,0.23128 -0.51789,0.34375 -0.88476,0.34375 -0.37084,0 -0.66928,-0.11245 -0.89258,-0.34375 -0.22332,-0.23529 -0.33594,-0.56562 -0.33594,-0.98828 v -3.70117 c 0,-0.41868 0.11262,-0.74719 0.33594,-0.98244 0.2233,-0.23529 0.52174,-0.35156 0.89258,-0.35156 z"
         style="font-size:17.7403px;font-family:AlteDIN1451Mittelschrift;-inkscape-font-specification:AlteDIN1451Mittelschrift;text-align:end;text-anchor:end;fill:#ffffff;fill-opacity:1;stroke-width:7.20027;stroke-linecap:square;stroke-miterlimit:4.2"
         id="path1"
         sodipodi:nodetypes="ccsssscsscsccccsssscssccccccccccscsscscssssscsscscssss" /><path
         d="m 236.30124,648.18956 v -9.44033 h 1.43193 v 8.09264 h 4.60678 v 1.34769 z"
         id="text3"
         style="font-size:13.2696px;stroke-width:0.904749"
         aria-label="L" /><path
         d="m 283.68765,639.88795 v 2.86385 h 2.16409 q 0.80343,0 1.20515,-0.44708 0.40172,-0.44707 0.40172,-1.04964 0,-0.7192 -0.47947,-1.07557 -0.40172,-0.29156 -1.04317,-0.29156 z m -1.43192,8.17039 V 638.618 h 3.6932 q 1.21163,0 1.91787,0.62202 0.39524,0.3434 0.66737,0.86174 0.27861,0.51835 0.27861,1.15332 0,0.91358 -0.49243,1.61982 -0.48595,0.69977 -1.34121,0.99133 l 2.19,4.19211 h -1.69758 l -1.95026,-4.03012 h -1.83365 v 4.03012 z"
         id="text4"
         style="font-size:13.2696px;stroke-width:0.904749"
         aria-label="R" /><path
         d="m 234.09017,663.68566 1.38646,-1.57638 q 0.7787,0.62675 1.7948,1.0066 1.0161,0.37985 2.12717,0.37985 1.282,0 2.01321,-0.53179 0.73121,-0.53179 0.73121,-1.39595 0,-1.63336 -1.80429,-1.87077 -0.47481,-0.057 -0.88316,-0.11396 -0.40834,-0.057 -0.94962,-0.13294 -1.7948,-0.24691 -2.73494,-1.31049 -0.94013,-1.07308 -0.94013,-2.58299 0,-1.76631 1.17754,-2.90587 1.18704,-1.13955 3.3332,-1.13955 1.282,0 2.41206,0.40834 1.13006,0.40834 2.07968,1.03509 l -1.16804,1.72833 q -0.7597,-0.47482 -1.63336,-0.7692 -0.87366,-0.29439 -1.7853,-0.29439 -0.96862,0 -1.64286,0.49381 -0.67424,0.49381 -0.67424,1.48142 0,0.58877 0.45582,1.10157 0.45583,0.5128 1.50991,0.67424 0.2754,0.0475 0.66474,0.10446 0.38935,0.0475 0.89266,0.10446 1.93724,0.2374 2.85838,1.40545 0.93063,1.16804 0.93063,2.58299 0,1.90875 -1.31998,2.96284 -1.31998,1.05409 -3.54212,1.05409 -3.12427,0 -5.28943,-1.89926 z m 11.70893,-3.15277 q 0,-1.58588 0.2469,-2.36457 0.2469,-0.7787 0.81668,-1.40545 0.40834,-0.44633 1.12056,-0.85467 0.72172,-0.40834 1.88027,-0.40834 1.13955,0 1.86127,0.40834 0.72172,0.40834 1.13006,0.85467 0.56978,0.62675 0.81668,1.40545 0.2469,0.77869 0.2469,2.36457 0,1.61437 -0.2469,2.39307 -0.2469,0.77869 -0.81668,1.40545 -0.40834,0.45582 -1.13006,0.85466 -0.72172,0.39885 -1.86127,0.39885 -1.15855,0 -1.88027,-0.39885 -0.71222,-0.39884 -1.12056,-0.85466 -0.56978,-0.62676 -0.81668,-1.40545 -0.2469,-0.7787 -0.2469,-2.39307 z m 6.1441,0.019 q 0,-1.07309 -0.11396,-1.50991 -0.10446,-0.43683 -0.37036,-0.83568 -0.52229,-0.72172 -1.59537,-0.72172 -1.09207,0 -1.59538,0.72172 -0.28489,0.39885 -0.38935,0.83568 -0.095,0.43682 -0.095,1.49091 0,1.08258 0.095,1.52891 0.10446,0.43682 0.38935,0.82617 0.50331,0.72172 1.59538,0.72172 1.07308,0 1.59537,-0.72172 0.2659,-0.38935 0.37036,-0.82617 0.11396,-0.43683 0.11396,-1.50991 z m 4.06441,1.61436 v -6.55244 h 1.98472 v 5.87821 q 0,1.0066 0.55079,1.56689 0.56028,0.55078 1.41494,0.55078 0.82618,0 1.37696,-0.55078 0.56029,-0.56029 0.56029,-1.56689 v -5.87821 h 1.98472 v 9.85715 h -1.98472 v -1.04459 h -0.038 q -0.92114,1.15855 -2.545,1.15855 -1.16805,0 -2.24113,-0.86416 -1.06358,-0.87366 -1.06358,-2.55451 z m 10.43642,3.30471 v -9.85715 h 1.98473 v 1.05409 h 0.038 q 0.92114,-1.16804 2.564,-1.16804 1.08258,0 2.06069,0.7597 l -1.43394,1.70933 q -0.64574,-0.48431 -1.31048,-0.48431 -0.73122,0 -1.32948,0.49381 -0.58877,0.48431 -0.58877,1.56689 v 5.92568 z m 13.35178,-2.89637 1.46243,1.31049 q -0.64575,0.74071 -1.5384,1.22502 -0.88315,0.47482 -2.00372,0.47482 -1.70933,0 -3.09579,-1.15855 -1.37696,-1.16804 -1.37696,-3.87448 0,-2.70645 1.37696,-3.87449 1.38646,-1.17754 3.09579,-1.17754 1.12057,0 2.00372,0.48431 0.89265,0.48431 1.5384,1.22502 l -1.46243,1.30099 q -0.83567,-1.0256 -2.00372,-1.0256 -2.56399,0 -2.56399,3.06731 0,3.0578 2.56399,3.0578 1.17754,0 2.00372,-1.0351 z m 10.42693,-1.28199 h -6.1346 q 0,1.21552 0.65524,1.82328 0.66474,0.60777 1.69034,0.60777 1.22502,0 2.16515,-0.94963 l 1.43394,1.22502 q -0.73121,0.85466 -1.65235,1.22502 -0.91164,0.36086 -1.90875,0.36086 -1.51941,0 -2.94385,-0.97812 -1.42445,-0.98761 -1.42445,-4.02643 0,-2.87737 1.31049,-3.97894 1.31998,-1.10157 2.75392,-1.10157 1.62387,0 2.83939,1.13006 1.21553,1.12056 1.21553,3.02931 z m -6.1346,-1.63337 h 4.15937 q -0.0475,-1.11106 -0.62675,-1.69983 -0.57928,-0.58877 -1.45294,-0.58877 -0.88315,0 -1.47192,0.58877 -0.57927,0.58877 -0.60776,1.69983 z"
         id="text4-8"
         style="font-size:19.4484px;stroke-width:1.32604"
         aria-label="Source" /><path
         d="M 169.20427,664.36299 V 650.5269 h 2.09868 v 13.83609 z m 4.84311,0 v -9.85715 h 1.98472 v 1.05409 h 0.038 q 0.92114,-1.16804 2.564,-1.16804 1.14905,0 2.21263,0.87366 1.07308,0.87366 1.07308,2.545 v 6.55244 h -1.98472 v -5.8687 q 0,-0.99712 -0.56028,-1.5574 -0.55079,-0.56028 -1.37696,-0.56028 -0.85467,0 -1.41495,0.56028 -0.55079,0.56028 -0.55079,1.5574 v 5.8687 z m 10.43642,3.98844 v -13.84559 h 1.98473 v 1.0351 q 1.03509,-1.14905 2.545,-1.14905 0.90215,0 1.55739,0.37035 0.65525,0.36086 1.08258,0.91165 0.40834,0.53179 0.55079,1.24401 0.15194,0.70273 0.15194,2.52601 0,1.8138 -0.15194,2.52602 -0.14245,0.71222 -0.55079,1.23451 -0.42733,0.56029 -1.08258,0.92114 -0.65524,0.35137 -1.55739,0.35137 -0.7692,0 -1.38646,-0.31338 -0.60776,-0.31338 -1.15854,-0.84517 v 5.03303 z m 3.93147,-5.84971 q 1.39595,0 1.67134,-0.95913 0.28489,-0.95912 0.28489,-2.09868 0,-1.13955 -0.28489,-2.09868 -0.27539,-0.96862 -1.67134,-0.96862 -1.39596,0 -1.67135,0.99711 -0.27539,0.99711 -0.27539,2.07019 0,1.07308 0.27539,2.0702 0.27539,0.98761 1.67135,0.98761 z m 6.15359,-1.44344 v -6.55244 h 1.98473 v 5.87821 q 0,1.0066 0.55078,1.56688 0.56028,0.55079 1.41495,0.55079 0.82617,0 1.37696,-0.55079 0.56028,-0.56028 0.56028,-1.56688 v -5.87821 h 1.98473 v 9.85715 h -1.98473 v -1.04459 h -0.038 q -0.92114,1.15855 -2.54501,1.15855 -1.16804,0 -2.24112,-0.86416 -1.06359,-0.87366 -1.06359,-2.55451 z m 10.55038,3.31421 v -8.34724 h -0.98761 v -1.51941 h 0.98761 v -1.54789 l 1.98473,-2.11767 v 3.66556 h 1.44343 v 1.51941 h -1.44343 v 8.34724 z"
         id="text5"
         style="font-size:19.4484px;stroke-width:1.32604"
         aria-label="Input" /><path
         d="m 165.18359,763.06759 c -0.36607,0.008 -0.98266,0.54314 -1.33593,0.85155 -0.50244,0.43466 -0.75391,1.05394 -0.75391,1.85547 v 3.8457 c 0,0.80153 0.25147,1.4169 0.75391,1.85157 0.50244,0.43461 1.07665,0.65429 1.72265,0.65429 0.642,0 1.21436,-0.21968 1.7168,-0.65429 0.50643,-0.43467 0.75781,-1.05004 0.75781,-1.85157 v -3.8457 c 0,-0.80153 -0.25138,-1.42082 -0.75781,-1.85547 -0.50244,-0.43866 -1.0748,-0.65625 -1.7168,-0.65625 -0.0404,0 -0.0833,-0.002 -0.12304,0 -0.0473,-0.14177 -0.14165,-0.19813 -0.26368,-0.1953 z m 0.38672,1.44155 c 0.36687,0 0.66147,0.12217 0.88477,0.35743 0.22729,0.23524 0.33984,0.56178 0.33984,0.98047 v 3.70117 c 0,0.42265 -0.11258,0.75299 -0.33984,0.98828 -0.2233,0.23128 -0.5179,0.34569 -0.88477,0.34569 -0.37084,0 -0.66732,-0.11439 -0.89062,-0.34569 -0.22332,-0.23529 -0.33594,-0.56562 -0.33594,-0.98828 v -3.70117 c 0,-0.41869 0.11262,-0.74523 0.33594,-0.98047 0.2233,-0.2353 0.51978,-0.35743 0.89062,-0.35743 z"
         style="font-size:17.7403px;font-family:AlteDIN1451Mittelschrift;-inkscape-font-specification:AlteDIN1451Mittelschrift;text-align:end;text-anchor:end;fill:#ffffff;fill-opacity:1;stroke-width:7.20027;stroke-linecap:square;stroke-miterlimit:4.2"
         id="path9"
         sodipodi:nodetypes="ccsssscsscsccscsscscssss" /><path
         d="m 236.30124,772.23917 v -9.44033 h 1.43193 v 8.09264 h 4.60678 v 1.34769 z"
         id="text9"
         style="font-size:13.2696px;stroke-width:0.904749"
         aria-label="L" /><path
         d="m 283.68765,763.93756 v 2.86385 h 2.16409 q 0.80343,0 1.20515,-0.44708 0.40172,-0.44707 0.40172,-1.04964 0,-0.7192 -0.47947,-1.07557 -0.40172,-0.29156 -1.04317,-0.29156 z m -1.43192,8.17039 v -9.44034 h 3.6932 q 1.21163,0 1.91787,0.62202 0.39524,0.3434 0.66737,0.86174 0.27861,0.51835 0.27861,1.15332 0,0.91358 -0.49243,1.61982 -0.48595,0.69977 -1.34121,0.99133 l 2.19,4.19211 h -1.69758 l -1.95026,-4.03012 h -1.83365 v 4.03012 z"
         id="text10"
         style="font-size:13.2696px;stroke-width:0.904749"
         aria-label="R" /><path
         d="m 250.33357,777.6692 v 4.46326 h 3.11479 q 1.16804,0 1.73782,-0.70273 0.57927,-0.70272 0.57927,-1.5289 0,-1.25351 -0.90215,-1.84228 -0.57927,-0.38935 -1.49091,-0.38935 z m -2.09868,11.85137 v -13.83609 h 5.02354 q 0.80719,0 1.5479,0.17093 0.7502,0.17094 1.55739,0.79769 0.62675,0.48431 1.06358,1.33898 0.43683,0.84517 0.43683,1.96573 0,1.48142 -1.11106,2.8204 -1.10157,1.33897 -3.22874,1.33897 h -3.19076 v 5.40339 z m 16.58053,0.038 v -0.87366 h -0.038 q -0.27539,0.5128 -0.82618,0.74071 -0.58877,0.2469 -1.5384,0.2469 -1.63336,-0.038 -2.46903,-0.87365 -0.91164,-0.83568 -0.91164,-2.13667 0,-1.23452 0.78819,-2.07019 0.78819,-0.83567 2.32659,-0.85467 h 2.66846 v -1.04459 q 0.009,-1.31049 -1.96574,-1.2725 -0.68373,0 -1.13955,0.15194 -0.44633,0.19942 -0.67424,0.61726 l -1.5194,-1.19653 q 1.10157,-1.47193 3.23823,-1.43394 1.7948,-0.019 2.88687,0.70272 1.07308,0.75021 1.09208,2.54501 v 6.75186 z m 0,-3.46615 v -0.72172 h -2.3076 q -1.69034,0.0475 -1.67135,1.19654 0,0.4938 0.43683,0.85466 0.41784,0.38935 1.37696,0.38935 1.21553,0.019 1.70933,-0.29438 0.45583,-0.31338 0.45583,-1.42445 z m 4.12139,3.42816 v -9.85715 h 1.98472 v 1.05409 h 0.038 q 0.92114,-1.16804 2.56399,-1.16804 1.14905,0 2.21264,0.87366 1.07308,0.87366 1.07308,2.545 v 6.55244 h -1.98472 v -5.8687 q 0,-0.99711 -0.56029,-1.5574 -0.55078,-0.56028 -1.37696,-0.56028 -0.85466,0 -1.41494,0.56028 -0.55079,0.56029 -0.55079,1.5574 v 5.8687 z"
         id="text11"
         style="font-size:19.4484px;stroke-width:1.32604"
         aria-label="Pan" /><path
         d="m 168.73421,788.4126 -3.46615,-13.83609 h 2.22213 l 2.17465,9.83815 h 0.038 l 2.68745,-9.83815 h 1.50991 l 2.68745,9.83815 h 0.038 l 2.17465,-9.83815 h 2.22213 l -3.46614,13.83609 h -1.74732 l -2.64946,-9.9711 h -0.038 l -2.63997,9.9711 z m 13.83609,0 v -9.85715 h 1.98472 v 9.85715 z m 0,-11.85137 v -1.98472 h 1.98472 v 1.98472 z m 10.4934,11.85137 v -1.0256 q -1.0351,1.13956 -2.54501,1.13956 -0.91164,0 -1.56689,-0.35137 -0.65524,-0.36085 -1.07308,-0.92114 -0.41783,-0.52229 -0.56028,-1.23451 -0.14244,-0.72172 -0.14244,-2.54501 0,-1.80429 0.14244,-2.50702 0.14245,-0.71222 0.56028,-1.24401 0.41784,-0.55079 1.07308,-0.91165 0.65525,-0.37035 1.56689,-0.37035 0.75971,0 1.37696,0.32287 0.61726,0.32288 1.16805,0.84517 v -5.03303 h 1.98472 v 13.83609 z m -1.93724,-7.98638 q -1.40546,0 -1.69034,0.95913 -0.2754,0.95912 -0.2754,2.08918 0,1.15855 0.2754,2.11767 0.28488,0.95913 1.69034,0.95913 1.37696,0 1.65235,-0.99711 0.28489,-0.99711 0.28489,-2.07969 0,-1.05409 -0.28489,-2.0512 -0.27539,-0.99711 -1.65235,-0.99711 z m 6.24855,7.99588 v -8.34724 h -0.98761 v -1.51941 h 0.98761 v -1.54789 l 1.98473,-2.11767 v 3.66556 h 1.44343 v 1.51941 h -1.44343 v 8.34724 z m 5.28944,-0.01 v -13.83609 h 1.98472 v 5.03303 h 0.038 q 0.92114,-1.16804 2.564,-1.16804 1.14905,0 2.21263,0.87366 1.07308,0.87366 1.07308,2.545 v 6.55244 h -1.98472 v -5.8687 q 0,-0.99712 -0.56028,-1.5574 -0.55079,-0.56028 -1.37697,-0.56028 -0.85466,0 -1.41494,0.56028 -0.55079,0.56028 -0.55079,1.5574 v 5.8687 z"
         id="text12"
         style="font-size:19.4484px;stroke-width:1.32604"
         aria-label="Width" /><path
         d="m 206.13936,772.48246 v -1.22172 l 3.55295,-4.44431 q 0.2057,-0.26179 0.26803,-0.47996 0.0623,-0.21816 0.0623,-0.42386 0,-0.47373 -0.33659,-0.87889 -0.3366,-0.41139 -0.91629,-0.41139 -0.52983,0 -0.91006,0.35529 -0.37399,0.34907 -0.41762,0.95992 h -1.30275 q 0.006,-1.10328 0.75422,-1.8575 0.74799,-0.76046 1.77648,-0.76046 1.13445,0 1.88867,0.76669 0.76046,0.76046 0.76046,1.83881 0,0.92252 -0.5423,1.59571 l -2.92339,3.66515 h 3.46569 v 1.29652 z m 10.06046,-2.61173 v -3.85839 q 0,-0.65449 -0.35529,-1.02225 -0.34906,-0.36776 -0.92252,-0.36776 -0.57969,0 -0.92876,0.36776 -0.34906,0.36776 -0.34906,1.02225 v 3.85839 q 0,0.66072 0.34906,1.02848 0.34907,0.36153 0.92876,0.36153 0.57346,0 0.92252,-0.36153 0.35529,-0.36776 0.35529,-1.02848 z m -3.85838,0.0748 v -4.00799 q 0,-1.25288 0.78539,-1.9323 0.78539,-0.68566 1.79518,-0.68566 1.00355,0 1.78894,0.68566 0.79162,0.67942 0.79162,1.9323 v 4.00799 q 0,1.25288 -0.79162,1.9323 -0.78539,0.67943 -1.78894,0.67943 -1.00979,0 -1.79518,-0.67943 -0.78539,-0.67942 -0.78539,-1.9323 z"
         id="text13"
         style="font-size:12.7657px;stroke-width:0.870387"
         aria-label="20" /><path
         d="m 204.67485,581.44396 v -13.94395 h 2.11504 v 13.94395 z m 4.88086,0 v -9.93399 h 2.0002 v 1.06231 h 0.0383 q 0.92832,-1.17715 2.58398,-1.17715 1.15801,0 2.22988,0.88047 1.08145,0.88047 1.08145,2.56484 v 6.60352 h -2.0002 v -5.91446 q 0,-1.00488 -0.56464,-1.56953 -0.55508,-0.56465 -1.3877,-0.56465 -0.86133,0 -1.42598,0.56465 -0.55507,0.56465 -0.55507,1.56953 v 5.91446 z m 10.51777,4.01953 v -13.95352 h 2.0002 v 1.04317 q 1.04316,-1.15801 2.56484,-1.15801 0.90918,0 1.56953,0.37324 0.66035,0.36367 1.09102,0.91875 0.41152,0.53594 0.55508,1.25371 0.15312,0.70821 0.15312,2.54571 0,1.82793 -0.15312,2.5457 -0.14356,0.71777 -0.55508,1.24414 -0.43067,0.56465 -1.09102,0.92832 -0.66035,0.3541 -1.56953,0.3541 -0.77519,0 -1.39726,-0.31582 -0.6125,-0.31582 -1.16758,-0.85176 v 5.07227 z m 3.96211,-5.89531 q 1.40684,0 1.68438,-0.96661 0.28711,-0.9666 0.28711,-2.11503 0,-1.14844 -0.28711,-2.11504 -0.27754,-0.97618 -1.68438,-0.97618 -1.40683,0 -1.68437,1.00489 -0.27754,1.00488 -0.27754,2.08633 0,1.08144 0.27754,2.08632 0.27754,0.99532 1.68437,0.99532 z m 6.20157,-1.45469 v -6.60352 h 2.00019 v 5.92403 q 0,1.01445 0.55508,1.5791 0.56465,0.55508 1.42598,0.55508 0.83261,0 1.38769,-0.55508 0.56465,-0.56465 0.56465,-1.5791 v -5.92403 h 2.0002 v 9.93399 h -2.0002 v -1.05274 h -0.0383 q -0.92832,1.16758 -2.56484,1.16758 -1.17715,0 -2.2586,-0.8709 -1.07187,-0.88047 -1.07187,-2.57441 z m 10.63261,3.34004 v -8.41231 h -0.99531 v -1.53125 h 0.99531 v -1.55996 l 2.0002,-2.13418 v 3.69414 h 1.45469 v 1.53125 h -1.45469 v 8.41231 z"
         id="text1"
         style="font-size:19.6px;text-align:start;text-anchor:start;stroke-width:1.34401"
         aria-label="Input" /><path
         d="m 198.26752,694.47717 q 0,-2.51699 0.13398,-3.24434 0.13399,-0.72734 0.47852,-1.33984 0.48809,-0.90918 1.59824,-1.71309 1.11973,-0.8039 2.76582,-0.8039 1.63653,0 2.74668,0.8039 1.11973,0.80391 1.62696,1.71309 0.33496,0.6125 0.46894,1.33984 0.13399,0.72735 0.13399,3.24434 0,2.51699 -0.13399,3.24434 -0.13398,0.72734 -0.46894,1.33984 -0.50723,0.91875 -1.62696,1.71309 -1.11015,0.78476 -2.74668,0.78476 -1.64609,0 -2.76582,-0.78476 -1.11015,-0.79434 -1.59824,-1.71309 -0.34453,-0.6125 -0.47852,-1.33984 -0.13398,-0.72735 -0.13398,-3.24434 z m 2.11504,0 q 0,2.15332 0.14355,2.79453 0.15313,0.64121 0.56465,1.15801 0.31582,0.42109 0.86133,0.72734 0.54551,0.29668 1.29199,0.29668 0.74649,0 1.29199,-0.29668 0.54551,-0.30625 0.86133,-0.72734 0.41153,-0.5168 0.55508,-1.15801 0.15313,-0.64121 0.15313,-2.79453 0,-2.14375 -0.15313,-2.78496 -0.14355,-0.64121 -0.55508,-1.17715 -0.31582,-0.40195 -0.86133,-0.7082 -0.5455,-0.30625 -1.29199,-0.30625 -0.74648,0 -1.29199,0.30625 -0.54551,0.30625 -0.86133,0.7082 -0.41152,0.53594 -0.56465,1.17715 -0.14355,0.64121 -0.14355,2.78496 z m 10.13496,3.63672 v -6.60352 h 2.0002 v 5.92403 q 0,1.01445 0.55507,1.5791 0.56465,0.55508 1.42598,0.55508 0.83262,0 1.3877,-0.55508 0.56464,-0.56465 0.56464,-1.5791 v -5.92403 h 2.0002 v 9.93399 h -2.0002 v -1.05274 h -0.0383 q -0.92832,1.16758 -2.56484,1.16758 -1.17715,0 -2.25859,-0.8709 -1.07188,-0.88047 -1.07188,-2.57441 z m 10.63262,3.34004 v -8.41231 h -0.99531 v -1.53125 h 0.99531 v -1.55996 l 2.00019,-2.13418 v 3.69414 h 1.45469 v 1.53125 h -1.45469 v 8.41231 z m 5.33066,4.00996 v -13.95352 h 2.0002 v 1.04317 q 1.04316,-1.15801 2.56484,-1.15801 0.90918,0 1.56953,0.37324 0.66035,0.36367 1.09102,0.91875 0.41152,0.53594 0.55508,1.25371 0.15312,0.70821 0.15312,2.54571 0,1.82793 -0.15312,2.5457 -0.14356,0.71777 -0.55508,1.24414 -0.43067,0.56465 -1.09102,0.92832 -0.66035,0.3541 -1.56953,0.3541 -0.77519,0 -1.39726,-0.31582 -0.6125,-0.31582 -1.16758,-0.85176 v 5.07227 z m 3.96211,-5.89531 q 1.40684,0 1.68438,-0.96661 0.28711,-0.9666 0.28711,-2.11503 0,-1.14844 -0.28711,-2.11504 -0.27754,-0.97618 -1.68438,-0.97618 -1.40683,0 -1.68437,1.00489 -0.27754,1.00488 -0.27754,2.08633 0,1.08144 0.27754,2.08632 0.27754,0.99532 1.68437,0.99532 z m 6.20157,-1.45469 v -6.60352 h 2.00019 v 5.92403 q 0,1.01445 0.55508,1.5791 0.56465,0.55508 1.42598,0.55508 0.83261,0 1.38769,-0.55508 0.56465,-0.56465 0.56465,-1.5791 v -5.92403 h 2.0002 v 9.93399 h -2.0002 v -1.05274 h -0.0383 q -0.92832,1.16758 -2.56484,1.16758 -1.17715,0 -2.2586,-0.8709 -1.07187,-0.88047 -1.07187,-2.57441 z m 10.63261,3.34004 v -8.41231 h -0.99531 v -1.53125 h 0.99531 v -1.55996 l 2.0002,-2.13418 v 3.69414 h 1.45469 v 1.53125 h -1.45469 v 8.41231 z"
         id="text15"
         style="font-size:19.6px;text-align:start;text-anchor:start;stroke-width:1.34401"
         aria-label="Output" /></g></g></svg>
