<?xml version="1.0" encoding="UTF-8" standalone="no"?>
<!-- Created with Inkscape (http://www.inkscape.org/) -->

<svg
   width="126.76173"
   height="116.92184"
   viewBox="0 0 33.53904 30.93557"
   version="1.1"
   id="svg1"
   inkscape:version="1.4 (86a8ad7, 2024-10-11)"
   sodipodi:docname="SendLabels.svg"
   xmlns:inkscape="http://www.inkscape.org/namespaces/inkscape"
   xmlns:sodipodi="http://sodipodi.sourceforge.net/DTD/sodipodi-0.dtd"
   xmlns="http://www.w3.org/2000/svg"
   xmlns:svg="http://www.w3.org/2000/svg">
  <sodipodi:namedview
     id="namedview1"
     pagecolor="#000000"
     bordercolor="#000000"
     borderopacity="0.25"
     inkscape:showpageshadow="2"
     inkscape:pageopacity="0.0"
     inkscape:pagecheckerboard="0"
     inkscape:deskcolor="#d1d1d1"
     inkscape:document-units="px"
     inkscape:zoom="4.5153252"
     inkscape:cx="28.347903"
     inkscape:cy="34.327539"
     inkscape:window-width="1920"
     inkscape:window-height="1017"
     inkscape:window-x="-8"
     inkscape:window-y="-8"
     inkscape:window-maximized="1"
     inkscape:current-layer="layer1" />
  <defs
     id="defs1" />
  <g
     inkscape:label="Layer 1"
     inkscape:groupmode="layer"
     id="layer1"
     transform="translate(-195.79166,-167.74583)">
    <path
       id="path1-4"
       style="font-size:17.7403px;font-family:AlteDIN1451Mittelschrift;-inkscape-font-specification:AlteDIN1451Mittelschrift;text-align:end;text-anchor:end;fill:#ffffff;fill-opacity:1;stroke-width:1.90507;stroke-linecap:square;stroke-miterlimit:4.2"
       d="m 215.93513,167.74583 c -0.26278,0 -0.46701,0.0697 -0.61236,0.20928 -0.14418,0.13954 -0.21601,0.31755 -0.21601,0.53382 0,0.18488 0.0575,0.343 0.1726,0.47439 0.11511,0.13023 0.28253,0.21007 0.5023,0.2403 0.0663,0.009 0.12415,0.0178 0.17415,0.0248 0.05,0.007 0.10412,0.0137 0.16226,0.0207 0.22093,0.0291 0.33176,0.14365 0.33176,0.34365 0,0.10581 -0.0448,0.1912 -0.13436,0.25632 -0.0895,0.0651 -0.21303,0.0977 -0.37,0.0977 -0.13604,0 -0.26626,-0.0233 -0.39067,-0.0698 -0.12442,-0.0465 -0.23435,-0.10826 -0.3297,-0.185 l -0.25476,0.2899 c 0.26511,0.23256 0.58896,0.34882 0.97151,0.34882 0.27209,0 0.48898,-0.0647 0.65061,-0.19379 0.16162,-0.12906 0.24236,-0.31043 0.24236,-0.54415 0,-0.17325 -0.0566,-0.33137 -0.17053,-0.47439 -0.11279,-0.14302 -0.28783,-0.22931 -0.52503,-0.25838 -0.0616,-0.007 -0.11614,-0.0133 -0.16382,-0.0191 -0.0477,-0.007 -0.0888,-0.0133 -0.12247,-0.0191 -0.12907,-0.0198 -0.22117,-0.0607 -0.27699,-0.12351 -0.0558,-0.0628 -0.0837,-0.13048 -0.0837,-0.20257 0,-0.12093 0.041,-0.21135 0.1235,-0.27182 0.0826,-0.0605 0.18319,-0.091 0.3018,-0.091 0.11162,0 0.22116,0.0182 0.32814,0.0543 0.10697,0.0361 0.2067,0.0829 0.29972,0.14108 l 0.21446,-0.31729 c -0.11628,-0.0767 -0.24352,-0.14017 -0.38189,-0.19017 -0.13837,-0.05 -0.28589,-0.0749 -0.44287,-0.0749 z m 11.72487,0.12195 v 2.54093 h 1.62522 v -0.36277 h -1.24023 v -2.17816 z m -31.24564,0.0858 c -0.0476,0.007 -0.0788,0.004 -0.1142,0.0145 -0.0969,0.002 -0.21556,0.0776 -0.30903,0.15916 -0.13293,0.11499 -0.19947,0.27886 -0.19947,0.49093 v 1.01751 c 0,0.21209 0.0665,0.37487 0.19947,0.48989 0.13294,0.11499 0.28487,0.17312 0.45579,0.17312 0.16986,0 0.3213,-0.0581 0.45424,-0.17312 0.13399,-0.11502 0.2005,-0.2778 0.2005,-0.48989 v -1.01751 c 0,-0.21207 -0.0665,-0.37594 -0.2005,-0.49093 -0.13294,-0.11607 -0.28438,-0.17363 -0.45424,-0.17363 -0.0107,0 -0.022,-5.3e-4 -0.0326,0 z m 12.81473,0 c -0.17079,-0.007 -0.32286,0.0576 -0.45579,0.17364 -0.13294,0.11501 -0.19999,0.27886 -0.19999,0.49092 v 1.01751 c 0,0.21207 0.067,0.37592 0.19999,0.49093 0.13293,0.11502 0.28486,0.17208 0.45579,0.17208 0.16986,0 0.32078,-0.0571 0.45371,-0.17208 0.134,-0.11501 0.20103,-0.27886 0.20103,-0.49093 v -1.01751 c 0,-0.21206 -0.067,-0.37591 -0.20103,-0.49092 -0.13293,-0.11605 -0.27269,-0.16638 -0.45371,-0.17364 z m -1.33119,0.0207 -0.32918,0.23874 v 0.35089 l 0.32918,-0.24082 v 1.96164 h 0.3328 v -2.31045 z m -11.45098,0.30902 c 0.0971,0 0.17501,0.0323 0.23409,0.0946 0.0601,0.0622 0.0899,0.14866 0.0899,0.25942 v 0.97927 c 0,0.11183 -0.0298,0.19922 -0.0899,0.26148 -0.0591,0.0612 -0.13702,0.0915 -0.23409,0.0915 -0.0981,0 -0.17656,-0.0303 -0.23564,-0.0915 -0.0591,-0.0623 -0.0889,-0.14965 -0.0889,-0.26148 v -0.97927 c 0,-0.11076 0.0298,-0.19719 0.0889,-0.25942 0.0591,-0.0623 0.13752,-0.0946 0.23564,-0.0946 z m 12.78217,0 c 0.0971,0 0.17501,0.0307 0.23409,0.093 0.0601,0.0622 0.0904,0.14915 0.0904,0.25993 v 0.97927 c 0,0.11184 -0.0303,0.19923 -0.0904,0.26149 -0.0591,0.0612 -0.13703,0.0909 -0.23409,0.0909 -0.0981,0 -0.17709,-0.0298 -0.23617,-0.0909 -0.0591,-0.0623 -0.0889,-0.14965 -0.0889,-0.26149 v -0.97927 c 0,-0.11078 0.0298,-0.1977 0.0889,-0.25993 0.0591,-0.0623 0.13805,-0.093 0.23617,-0.093 z m -10.93164,2.34663 c -0.38151,0 -0.67782,0.10129 -0.88883,0.30386 -0.20933,0.20257 -0.31419,0.46064 -0.31419,0.77463 0,0.2684 0.0835,0.49809 0.25062,0.68884 0.16713,0.18907 0.41063,0.30545 0.72968,0.34934 0.0962,0.0135 0.18062,0.0255 0.25321,0.0356 0.0726,0.0101 0.15072,0.0204 0.23513,0.0305 0.32074,0.0422 0.48111,0.20833 0.48111,0.49868 0,0.15362 -0.0648,0.27754 -0.19482,0.37207 -0.12999,0.0945 -0.30903,0.14211 -0.53692,0.14211 -0.19751,0 -0.38626,-0.0338 -0.56689,-0.10129 -0.18063,-0.0675 -0.3401,-0.1573 -0.47853,-0.26871 l -0.37,0.42064 c 0.38489,0.33762 0.85487,0.50643 1.41025,0.50643 0.39502,0 0.71,-0.0937 0.94465,-0.28112 0.23464,-0.18738 0.35191,-0.45082 0.35191,-0.79013 0,-0.25153 -0.0826,-0.48121 -0.24804,-0.68885 -0.16375,-0.20763 -0.41786,-0.33245 -0.76223,-0.37465 -0.0895,-0.0101 -0.1685,-0.0195 -0.23771,-0.0279 -0.0692,-0.0101 -0.1283,-0.0194 -0.17725,-0.0279 -0.18738,-0.0287 -0.32205,-0.0887 -0.40308,-0.17983 -0.081,-0.0912 -0.12144,-0.18886 -0.12144,-0.29353 0,-0.17556 0.06,-0.30702 0.17984,-0.3948 0.11985,-0.0878 0.26603,-0.13178 0.43821,-0.13178 0.16206,0 0.32064,0.0262 0.47594,0.0786 0.15531,0.0523 0.30058,0.12075 0.43563,0.20515 l 0.31161,-0.46095 c -0.16881,-0.11142 -0.35412,-0.20336 -0.555,-0.27595 -0.20089,-0.0726 -0.41496,-0.10904 -0.64286,-0.10904 z m 8.78396,0.0331 v 1.34204 c -0.0979,-0.0928 -0.20188,-0.16791 -0.31161,-0.22531 -0.10972,-0.0574 -0.23185,-0.0863 -0.3669,-0.0863 -0.16206,0 -0.30158,0.0329 -0.41806,0.0987 -0.11648,0.0642 -0.2115,0.14549 -0.28577,0.2434 -0.0743,0.0945 -0.12454,0.20464 -0.14986,0.33124 -0.0253,0.12492 -0.0377,0.34796 -0.0377,0.6687 0,0.32411 0.0124,0.55021 0.0377,0.67851 0.0253,0.12661 0.0756,0.23633 0.14986,0.32918 0.0743,0.0996 0.16929,0.18183 0.28577,0.24598 0.11648,0.0625 0.256,0.0935 0.41806,0.0935 0.26841,0 0.49451,-0.10128 0.67851,-0.30385 v 0.27336 h 0.52917 V 170.663 Z m 9.73946,0.0822 v 3.68918 h 1.25574 c 0.27347,0 0.50584,-0.0582 0.6966,-0.17467 0.19244,-0.11816 0.34347,-0.26344 0.4532,-0.43563 0.0827,-0.12829 0.13784,-0.26155 0.16484,-0.39997 0.0287,-0.14012 0.0429,-0.41776 0.0429,-0.83303 0,-0.38657 -0.0102,-0.64823 -0.0305,-0.78496 -0.0203,-0.13674 -0.0758,-0.28381 -0.16692,-0.4408 -0.24477,-0.41359 -0.61973,-0.62012 -1.12448,-0.62012 z m 5.8012,0 v 3.05356 c 0,0.23633 0.0639,0.40156 0.19223,0.49609 0.1283,0.0928 0.28867,0.13953 0.48111,0.13953 h 0.23306 v -0.49609 h -0.17983 c -0.13167,0 -0.19741,-0.0609 -0.19741,-0.18242 v -3.01067 z m -5.24155,0.52917 h 0.67077 c 0.28528,0 0.50474,0.10307 0.65835,0.30902 0.0743,0.10129 0.12007,0.21498 0.13695,0.34158 0.0186,0.12661 0.0279,0.3554 0.0279,0.68626 0,0.34269 -0.008,0.56789 -0.0253,0.67593 -0.0152,0.10635 -0.0534,0.20585 -0.11421,0.29869 -0.14855,0.21439 -0.37644,0.32195 -0.68367,0.32195 h -0.67077 z m -16.28996,0.41909 c -0.2549,0 -0.49967,0.0977 -0.73432,0.29352 -0.23295,0.19582 -0.34985,0.54994 -0.34985,1.06144 0,0.54019 0.12661,0.89775 0.37983,1.07332 0.25321,0.17387 0.51486,0.26096 0.78496,0.26096 0.17725,0 0.34695,-0.032 0.50901,-0.0961 0.16375,-0.0658 0.31082,-0.17466 0.4408,-0.32659 l -0.3824,-0.32711 c -0.16713,0.16881 -0.35946,0.25321 -0.57723,0.25321 -0.18231,0 -0.33245,-0.0537 -0.45062,-0.16175 -0.11648,-0.10803 -0.17518,-0.27019 -0.17518,-0.48627 h 1.63607 v -0.43563 c 0,-0.33931 -0.10793,-0.60851 -0.32401,-0.80771 -0.21607,-0.20088 -0.46839,-0.30127 -0.75706,-0.30127 z m 2.86133,0 c -0.29204,0 -0.51994,0.10397 -0.68368,0.31161 h -0.0104 v -0.28112 h -0.52916 v 2.62826 h 0.52916 v -1.56476 c 0,-0.17725 0.0489,-0.31588 0.14676,-0.41548 0.0996,-0.0996 0.22531,-0.14934 0.37724,-0.14934 0.14687,0 0.26951,0.0497 0.36742,0.14934 0.0996,0.0996 0.14935,0.23823 0.14935,0.41548 v 1.56476 h 0.52916 v -1.74718 c 0,-0.2971 -0.0955,-0.52321 -0.28629,-0.67851 -0.18906,-0.1553 -0.38536,-0.23306 -0.58962,-0.23306 z m 17.03203,0.0822 c -0.2549,0 -0.49967,0.0977 -0.73432,0.29352 -0.23296,0.19582 -0.34985,0.54942 -0.34985,1.06092 0,0.54019 0.12661,0.89827 0.37982,1.07383 0.25322,0.17388 0.51487,0.26097 0.78497,0.26097 0.17725,0 0.34695,-0.032 0.50901,-0.0961 0.16375,-0.0658 0.31082,-0.17518 0.4408,-0.32711 l -0.38241,-0.3266 c -0.16712,0.16881 -0.35946,0.25322 -0.57722,0.25322 -0.18231,0 -0.33245,-0.0537 -0.45062,-0.16175 -0.11648,-0.10804 -0.17467,-0.2702 -0.17467,-0.48627 h 1.63556 v -0.43564 c 0,-0.33931 -0.10793,-0.6085 -0.32401,-0.8077 -0.21607,-0.20088 -0.46839,-0.30127 -0.75706,-0.30127 z m 3.81838,0.003 c -0.37983,-0.007 -0.6677,0.12075 -0.86352,0.38241 l 0.40514,0.31884 c 0.0405,-0.0743 0.1005,-0.12888 0.17984,-0.16433 0.081,-0.027 0.18231,-0.0408 0.30386,-0.0408 0.3512,-0.007 0.52576,0.10655 0.524,0.33951 v 0.27854 h -0.71159 c -0.27347,0.003 -0.48,0.0793 -0.62012,0.22789 -0.14011,0.14855 -0.21032,0.33245 -0.21032,0.55191 0,0.23126 0.0808,0.42143 0.24288,0.56999 0.14855,0.14855 0.368,0.22579 0.65836,0.23254 0.16881,0 0.30565,-0.0217 0.41031,-0.0656 0.0979,-0.0405 0.17119,-0.10625 0.22014,-0.1974 h 0.0103 v 0.23306 h 0.5116 v -1.80041 c -0.003,-0.31905 -0.1007,-0.54567 -0.29145,-0.67903 -0.19414,-0.12829 -0.45042,-0.19043 -0.76947,-0.18707 z m 1.27123,0.0279 0.94155,2.52698 -0.14418,0.43821 c -0.0523,0.15193 -0.15758,0.2279 -0.31626,0.2279 h -0.15709 v 0.49867 h 0.17725 c 0.16036,0 0.30564,-0.0365 0.43563,-0.10903 0.12998,-0.0709 0.23216,-0.20774 0.30644,-0.41031 l 1.12913,-3.17242 h -0.55965 l -0.62271,1.84071 h -0.0103 l -0.6227,-1.84071 z m -24.98297,0.38602 c 0.15531,0 0.28409,0.0524 0.38706,0.1571 0.10297,0.10466 0.15898,0.2557 0.16743,0.4532 h -1.10949 c 0.005,-0.1975 0.0593,-0.34854 0.16226,-0.4532 0.10466,-0.10466 0.23575,-0.1571 0.39274,-0.1571 z m 5.47409,0.0305 c 0.24477,0 0.39184,0.0889 0.4408,0.26613 0.0506,0.17725 0.076,0.35936 0.076,0.54674 0,0.19244 -0.0253,0.37724 -0.076,0.55449 -0.049,0.17725 -0.19603,0.26613 -0.4408,0.26613 -0.24984,0 -0.39998,-0.0853 -0.45062,-0.2558 -0.049,-0.17049 -0.0734,-0.35887 -0.0734,-0.56482 0,-0.20088 0.0244,-0.38657 0.0734,-0.55707 0.0506,-0.1705 0.20078,-0.2558 0.45062,-0.2558 z m 14.41927,0.0517 c 0.15531,0 0.28408,0.0524 0.38706,0.15709 0.10298,0.10467 0.159,0.2557 0.16743,0.45321 h -1.10898 c 0.005,-0.19751 0.0588,-0.34854 0.16175,-0.45321 0.10466,-0.10466 0.23575,-0.15709 0.39274,-0.15709 z m 3.75223,1.05368 h 0.61547 v 0.19224 c 0,0.1975 -0.0404,0.32411 -0.12145,0.37982 -0.0878,0.0557 -0.23971,0.0819 -0.45578,0.0786 -0.1705,0 -0.29314,-0.0347 -0.36742,-0.10387 -0.0777,-0.0641 -0.11627,-0.14011 -0.11627,-0.2279 -0.003,-0.20425 0.14497,-0.31039 0.44545,-0.31884 z m -8.84339,18.43712 c -0.17092,0 -0.32285,0.0586 -0.45579,0.17467 -0.13293,0.11501 -0.19843,0.27834 -0.19843,0.4904 v 1.01801 c 0,0.21209 0.0655,0.37545 0.19843,0.49044 0.13294,0.11501 0.28487,0.17258 0.45579,0.17258 0.16987,0 0.32233,-0.0576 0.45527,-0.17258 0.13399,-0.11499 0.2005,-0.27835 0.2005,-0.49044 v -1.01801 c 0,-0.21206 -0.0665,-0.37539 -0.2005,-0.4904 -0.13294,-0.11606 -0.2854,-0.17467 -0.45527,-0.17467 z m -19.4784,10e-4 c -0.0352,0.003 -0.099,0.0116 -0.12815,0.0186 -0.0907,0.0104 -0.20161,0.0734 -0.29508,0.15503 -0.13293,0.11499 -0.19947,0.27885 -0.19947,0.49091 v 1.01751 c 0,0.21209 0.0665,0.37489 0.19947,0.4899 0.13294,0.11499 0.28487,0.17312 0.45579,0.17312 0.16986,0 0.3213,-0.0581 0.45424,-0.17312 0.13399,-0.11501 0.2005,-0.27781 0.2005,-0.4899 v -1.01751 c 0,-0.21206 -0.0665,-0.37592 -0.2005,-0.49091 -0.13294,-0.11608 -0.28438,-0.17364 -0.45424,-0.17364 -0.0107,0 -0.022,-5.3e-4 -0.0326,0 z m 12.81473,0 c -0.17079,-0.007 -0.32286,0.0576 -0.45579,0.17363 -0.13294,0.11502 -0.19999,0.27885 -0.19999,0.49091 v 1.01751 c 0,0.21206 0.067,0.37592 0.19999,0.49093 0.13293,0.11502 0.28486,0.17209 0.45579,0.17209 0.16986,0 0.32078,-0.0571 0.45371,-0.17209 0.134,-0.11501 0.20103,-0.27887 0.20103,-0.49093 v -1.01751 c 0,-0.21206 -0.067,-0.37589 -0.20103,-0.49091 -0.13293,-0.11605 -0.27269,-0.16637 -0.45371,-0.17363 z m 19.41483,0 c -0.15801,0.007 -0.29912,0.0648 -0.42375,0.17363 -0.13293,0.11502 -0.19999,0.27885 -0.19999,0.49091 v 1.01751 c 0,0.21206 0.0671,0.37489 0.19999,0.4899 0.13294,0.11499 0.28487,0.17312 0.45579,0.17312 0.16986,0 0.32078,-0.0581 0.45372,-0.17312 0.13399,-0.11501 0.20102,-0.27784 0.20102,-0.4899 v -1.01751 c 0,-0.21206 -0.067,-0.37589 -0.20102,-0.49091 -0.13294,-0.11605 -0.28386,-0.17363 -0.45372,-0.17363 -0.0107,0 -0.0418,0.004 -0.032,0 z m -1.29914,0.0196 -0.32918,0.23978 v 0.35089 l 0.32918,-0.24029 v 1.96059 h 0.33279 v -2.31097 z m -19.44688,10e-4 -0.32918,0.23875 v 0.35089 l 0.32918,-0.24082 v 1.96164 h 0.3328 v -2.31046 z m 1.33119,0.30852 c 0.0971,0 0.17501,0.0307 0.23409,0.093 0.0601,0.0622 0.0904,0.14917 0.0904,0.25995 v 0.97925 c 0,0.11184 -0.0303,0.19976 -0.0904,0.26202 -0.0591,0.0612 -0.13703,0.0904 -0.23409,0.0904 -0.0981,0 -0.17709,-0.0292 -0.23617,-0.0904 -0.0591,-0.0623 -0.0889,-0.15018 -0.0889,-0.26202 v -0.97925 c 0,-0.11078 0.0298,-0.19772 0.0889,-0.25995 0.0591,-0.0623 0.13805,-0.093 0.23617,-0.093 z m 6.66367,0 c 0.0971,0 0.17553,0.0318 0.23461,0.094 0.0601,0.0622 0.0904,0.14812 0.0904,0.25892 v 0.98028 c 0,0.11184 -0.0303,0.19873 -0.0904,0.26099 -0.0591,0.0612 -0.13754,0.092 -0.23461,0.092 -0.0981,0 -0.17553,-0.0308 -0.23461,-0.092 -0.0591,-0.0623 -0.0889,-0.14915 -0.0889,-0.26099 v -0.98028 c 0,-0.11078 0.0298,-0.19669 0.0889,-0.25892 0.0591,-0.0623 0.13649,-0.094 0.23461,-0.094 z m 12.7832,0 c 0.0971,0 0.17502,0.0328 0.2341,0.0951 0.0601,0.0622 0.0904,0.14814 0.0904,0.25893 v 0.97924 c 0,0.11184 -0.0303,0.19924 -0.0904,0.26149 -0.0591,0.0612 -0.13703,0.0915 -0.2341,0.0915 -0.0981,0 -0.17708,-0.0303 -0.23616,-0.0915 -0.0591,-0.0623 -0.0889,-0.14965 -0.0889,-0.26149 v -0.97924 c 0,-0.11079 0.0298,-0.1967 0.0889,-0.25893 0.0591,-0.0622 0.13804,-0.0951 0.23616,-0.0951 z m -32.22904,0 c 0.0971,0 0.17501,0.0323 0.23409,0.0946 0.0601,0.0622 0.0899,0.14867 0.0899,0.25943 v 0.97927 c 0,0.11184 -0.0298,0.19923 -0.0899,0.26149 -0.0591,0.0612 -0.13702,0.0915 -0.23409,0.0915 -0.0981,0 -0.17656,-0.0303 -0.23564,-0.0915 -0.0591,-0.0623 -0.0889,-0.14965 -0.0889,-0.26149 v -0.97927 c 0,-0.11076 0.0298,-0.1972 0.0889,-0.25943 0.0591,-0.0623 0.13752,-0.0946 0.23564,-0.0946 z m 1.72754,1.88722 v 3.62355 h 2.31769 v -0.51726 h -1.76785 v -3.10629 z m 19.0252,0 v 3.62355 h 0.54984 v -1.58128 h 1.43712 v 1.58128 h 0.54983 v -3.62355 h -0.54983 v 1.55186 h -1.43712 v -1.55186 z m 3.27267,0 v 0.51988 h 0.52038 v -0.51988 z m 3.85558,0 v 3.62355 h 0.51883 v -1.53736 c 0,-0.1741 0.0485,-0.30991 0.14469,-0.40773 0.0978,-0.0978 0.22182,-0.14626 0.37104,-0.14626 0.14424,0 0.26351,0.0484 0.35967,0.14626 0.0978,0.0978 0.14727,0.23363 0.14727,0.40773 v 1.53736 h 0.51935 v -1.71617 c 0,-0.29181 -0.0927,-0.51408 -0.28008,-0.66662 -0.18569,-0.15253 -0.37921,-0.22891 -0.57981,-0.22891 -0.28683,0 -0.51149,0.103 -0.67232,0.30694 h -0.01 v -1.31879 z m -22.42499,1.01185 c -0.20227,0 -0.36699,0.0368 -0.49299,0.108 -0.12435,0.0713 -0.22172,0.14528 -0.29301,0.22323 -0.0995,0.1094 -0.17084,0.23198 -0.21394,0.36793 -0.0431,0.13594 -0.0646,0.34271 -0.0646,0.6196 0,0.28186 0.0215,0.49091 0.0646,0.62685 0.0431,0.13597 0.11446,0.2585 0.21394,0.36793 0.0713,0.0796 0.16866,0.15359 0.29301,0.22323 0.126,0.0696 0.29072,0.1049 0.49299,0.1049 0.19895,0 0.3613,-0.0353 0.48731,-0.1049 0.126,-0.0696 0.22481,-0.14367 0.2961,-0.22323 0.0995,-0.10943 0.17032,-0.23196 0.21343,-0.36793 0.0431,-0.13594 0.0646,-0.34499 0.0646,-0.62685 0,-0.27689 -0.0215,-0.48366 -0.0646,-0.6196 -0.0431,-0.13595 -0.11395,-0.25853 -0.21343,-0.36793 -0.0713,-0.0779 -0.1701,-0.15193 -0.2961,-0.22323 -0.12601,-0.0713 -0.28836,-0.108 -0.48731,-0.108 z m 20.56205,0 c -0.16911,0 -0.3109,0.0353 -0.4253,0.10488 -0.11274,0.068 -0.19879,0.13893 -0.25683,0.21187 -0.0746,0.0978 -0.12529,0.20074 -0.15348,0.30851 -0.0265,0.10776 -0.0398,0.34001 -0.0398,0.69815 0,0.35812 0.0133,0.59143 0.0398,0.69919 0.0282,0.10779 0.0789,0.20926 0.15348,0.30541 0.058,0.0746 0.14409,0.14647 0.25683,0.21445 0.1144,0.0663 0.25619,0.0992 0.4253,0.0992 0.26361,0 0.48539,-0.0992 0.66611,-0.29815 v 0.26561 c 0,0.17907 -0.0548,0.31726 -0.16588,0.41341 -0.10943,0.0962 -0.25132,0.14364 -0.42375,0.14364 -0.0995,0 -0.19325,-0.0233 -0.28112,-0.0697 -0.0862,-0.0464 -0.15345,-0.21868 -0.22324,-0.1633 l -0.40308,0.31988 c 0.11441,0.12933 0.25115,0.23408 0.41031,0.31366 0.15916,0.0796 0.32152,0.11989 0.48731,0.11989 0.29346,0 0.55328,-0.0919 0.77877,-0.27594 0.22713,-0.18401 0.34106,-0.4704 0.34106,-0.85836 v -2.52232 h -0.52038 v 0.27699 c -0.19232,-0.20394 -0.4141,-0.30694 -0.66611,-0.30694 z m -19.27893,0.03 0.82579,2.58228 h 0.45734 l 0.5395,-1.8061 h 0.01 l 0.54001,1.8061 h 0.45734 l 0.82579,-2.58228 h -0.54984 l -0.49454,1.80869 h -0.0103 l -0.58395,-1.80869 h -0.37827 l -0.58394,1.80869 h -0.0103 l -0.49557,-1.80869 z m 17.28629,0 v 2.58228 h 0.52038 v -2.58228 z m -18.56941,0.4904 c 0.18734,0 0.32688,0.0631 0.41806,0.18915 0.0464,0.0696 0.0784,0.14235 0.0966,0.2186 0.0199,0.0763 0.03,0.20796 0.03,0.39531 0,0.18733 -0.0101,0.31957 -0.03,0.39585 -0.0182,0.0762 -0.0502,0.14856 -0.0966,0.21653 -0.0912,0.12602 -0.23072,0.1886 -0.41806,0.1886 -0.19067,0 -0.33019,-0.0626 -0.41806,-0.1886 -0.0497,-0.068 -0.0836,-0.14028 -0.10181,-0.21653 -0.0166,-0.0779 -0.0253,-0.21151 -0.0253,-0.4005 0,-0.18405 0.009,-0.31438 0.0253,-0.39066 0.0183,-0.0762 0.0521,-0.14899 0.10181,-0.2186 0.0879,-0.12602 0.22739,-0.18915 0.41806,-0.18915 z m 20.72121,0 c 0.10113,0 0.18483,0.022 0.25115,0.0667 0.068,0.0431 0.1201,0.0875 0.15658,0.13229 0.0448,0.0597 0.0722,0.12374 0.0822,0.19172 0.0116,0.068 0.017,0.20513 0.017,0.41237 0,0.20723 -0.005,0.34542 -0.017,0.41342 -0.01,0.068 -0.0374,0.13057 -0.0822,0.18862 -0.0365,0.0464 -0.0886,0.0907 -0.15658,0.13385 -0.0663,0.0431 -0.15002,0.0651 -0.25115,0.0651 -0.10445,0 -0.19092,-0.022 -0.2589,-0.0651 -0.068,-0.0431 -0.11969,-0.0874 -0.15451,-0.13385 -0.0464,-0.0581 -0.0752,-0.12065 -0.0868,-0.18862 -0.01,-0.068 -0.0145,-0.20619 -0.0145,-0.41342 0,-0.20724 0.005,-0.3444 0.0145,-0.41237 0.0116,-0.068 0.0404,-0.13206 0.0868,-0.19172 0.0348,-0.0448 0.0865,-0.0892 0.15451,-0.13229 0.068,-0.0448 0.15445,-0.0667 0.2589,-0.0667 z" />
  </g>
</svg>
