<?xml version="1.0" encoding="UTF-8" standalone="no"?>
<!-- Created with Inkscape (http://www.inkscape.org/) -->

<svg
   width="89.226997"
   height="17.208"
   viewBox="0 0 23.607977 4.5529499"
   version="1.1"
   id="svg595"
   sodipodi:docname="Send2To1.svg"
   inkscape:version="1.2.2 (732a01da63, 2022-12-09)"
   xmlns:inkscape="http://www.inkscape.org/namespaces/inkscape"
   xmlns:sodipodi="http://sodipodi.sourceforge.net/DTD/sodipodi-0.dtd"
   xmlns="http://www.w3.org/2000/svg"
   xmlns:svg="http://www.w3.org/2000/svg">
  <sodipodi:namedview
     id="namedview597"
     pagecolor="#000000"
     bordercolor="#000000"
     borderopacity="0.25"
     inkscape:showpageshadow="2"
     inkscape:pageopacity="0"
     inkscape:pagecheckerboard="0"
     inkscape:deskcolor="#d1d1d1"
     inkscape:document-units="mm"
     showgrid="false"
     inkscape:zoom="4.7572176"
     inkscape:cx="56.545659"
     inkscape:cy="31.95145"
     inkscape:window-width="1440"
     inkscape:window-height="837"
     inkscape:window-x="-8"
     inkscape:window-y="-8"
     inkscape:window-maximized="1"
     inkscape:current-layer="layer1" />
  <defs
     id="defs592" />
  <g
     inkscape:label="Layer 1"
     inkscape:groupmode="layer"
     id="layer1"
     transform="translate(-121.44654,-26.668513)">
    <g
       aria-label="Send 2 to 1"
       id="text416"
       style="font-size:5.1947px;font-family:AlteDIN1451Mittelschrift;-inkscape-font-specification:AlteDIN1451Mittelschrift;text-align:center;text-anchor:middle;opacity:0.96114;fill:#ffffff;stroke:#350404;stroke-width:0.79375;stroke-miterlimit:1.7;paint-order:stroke fill markers">
      <g
         id="path769">
        <path
           style="color:#000000;-inkscape-font-specification:AlteDIN1451Mittelschrift;fill:#350404;stroke:none;-inkscape-stroke:none"
           d="m 123.41016,26.667969 c -0.45241,0 -0.86845,0.130347 -1.16602,0.416015 -0.28332,0.274178 -0.43555,0.659781 -0.43555,1.0625 0,0.351239 0.1214,0.690694 0.34961,0.951172 v 0.002 c 0.23993,0.27143 0.58687,0.425095 0.97266,0.478516 0.0965,0.01354 0.18106,0.02694 0.25391,0.03711 0.0756,0.01055 0.15741,0.02084 0.24414,0.03125 0.0942,0.01371 0.12286,0.03692 0.12304,0.03711 1.9e-4,1.98e-4 0.01,-0.004 0.01,0.06836 0,0.04194 0.0143,0.01623 -0.0332,0.05078 -0.041,0.0298 -0.12934,0.06641 -0.30274,0.06641 -0.15262,0 -0.2932,-0.02515 -0.42969,-0.07617 -0.14501,-0.05421 -0.26565,-0.121787 -0.36914,-0.205078 l -0.29687,-0.238282 -0.88281,1.003907 0.29882,0.261718 c 0.45669,0.400602 1.03708,0.605469 1.67383,0.605469 0.45844,0 0.87346,-0.111725 1.19336,-0.367187 0.32632,-0.26059 0.50195,-0.670191 0.50195,-1.101563 0,-0.338339 -0.12034,-0.666747 -0.33398,-0.935547 -0.2397,-0.303947 -0.61192,-0.472529 -1.02734,-0.523437 h -0.002 v -0.002 c -0.085,-0.0096 -0.16068,-0.01739 -0.22656,-0.02539 l -0.01,-0.002 c -0.0619,-0.0091 -0.11651,-0.01624 -0.15821,-0.02344 l -0.004,-0.002 h -0.004 c -0.134,-0.02052 -0.17203,-0.05755 -0.16602,-0.05078 -0.0311,-0.03494 -0.0215,-0.02883 -0.0215,-0.03125 0,-0.08555 -7.3e-4,-0.06276 0.0176,-0.07617 0.047,-0.0344 0.10004,-0.05469 0.20508,-0.05469 0.11961,0 0.23362,0.01951 0.34961,0.05859 0.12737,0.04292 0.24495,0.09817 0.35351,0.166016 l 0.32422,0.201172 0.75,-1.111328 -0.33398,-0.220703 c -0.19644,-0.129649 -0.40982,-0.235667 -0.63868,-0.31836 -0.24634,-0.08901 -0.50888,-0.132812 -0.77929,-0.132812 z m -0.1875,2.353515 c 0.002,2.83e-4 0.004,-2.83e-4 0.006,0 8.8e-4,1.37e-4 0.001,0.0018 0.002,0.002 z"
           id="path19211" />
        <path
           style="color:#000000;-inkscape-font-specification:AlteDIN1451Mittelschrift;stroke:none;-inkscape-stroke:none"
           d="m 122.007,30.317149 0.37033,-0.421055 q 0.20799,0.167407 0.47939,0.268866 0.2714,0.101459 0.56817,0.101459 0.34242,0 0.53773,-0.142042 0.19531,-0.142043 0.19531,-0.372862 0,-0.436274 -0.48193,-0.499685 -0.12682,-0.01522 -0.23589,-0.03044 -0.10907,-0.01522 -0.25365,-0.03551 -0.47939,-0.06595 -0.7305,-0.350033 -0.25112,-0.286622 -0.25112,-0.689921 0,-0.471785 0.31453,-0.776162 0.31706,-0.304376 0.8903,-0.304376 0.34242,0 0.64426,0.109068 0.30185,0.109068 0.55549,0.276476 l -0.31198,0.461638 q -0.20292,-0.126824 -0.43628,-0.205454 -0.23335,-0.07863 -0.47685,-0.07863 -0.25872,0 -0.43881,0.131897 -0.18009,0.131896 -0.18009,0.39569 0,0.157261 0.12175,0.294231 0.12175,0.136969 0.4033,0.180089 0.0735,0.01268 0.17755,0.0279 0.10399,0.01268 0.23843,0.0279 0.51744,0.06341 0.76348,0.375398 0.24857,0.311986 0.24857,0.689921 0,0.509831 -0.35257,0.79138 -0.35257,0.281549 -0.9461,0.281549 -0.8345,0 -1.41282,-0.507295 z"
           id="path19213" />
      </g>
      <g
         id="path771">
        <path
           style="color:#000000;-inkscape-font-specification:AlteDIN1451Mittelschrift;fill:#350404;stroke:none;-inkscape-stroke:none"
           d="m 126.20703,27.734375 c -0.35697,0 -0.70091,0.145268 -0.99023,0.386719 -0.36364,0.305673 -0.49219,0.794569 -0.49219,1.367187 0,0.603126 0.1405,1.115929 0.55078,1.400391 l 0.002,0.002 c 0.30793,0.211446 0.656,0.330078 1.01172,0.330078 0.22543,0 0.44788,-0.04056 0.65625,-0.123047 l 0.002,-0.002 c 0.22833,-0.09181 0.42843,-0.244277 0.59375,-0.4375 l 0.25781,-0.300781 -0.33203,-0.283203 h 0.2207 v -0.396485 -0.435547 c 0,-0.423225 -0.15342,-0.82401 -0.45117,-1.099609 -0.281,-0.261235 -0.64808,-0.408203 -1.0293,-0.408203 z"
           id="path19217" />
        <path
           style="color:#000000;-inkscape-font-specification:AlteDIN1451Mittelschrift;stroke:none;-inkscape-stroke:none"
           d="m 127.29048,29.677957 h -1.63857 q 0,0.324669 0.17502,0.487003 0.17755,0.162335 0.45149,0.162335 0.32721,0 0.57832,-0.253648 l 0.38301,0.327206 q -0.19531,0.228282 -0.44135,0.327205 -0.2435,0.09639 -0.50983,0.09639 -0.40584,0 -0.78631,-0.261257 -0.38047,-0.263793 -0.38047,-1.075465 0,-0.768552 0.35003,-1.062783 0.35257,-0.294231 0.73558,-0.294231 0.43374,0 0.75841,0.30184 0.32467,0.299304 0.32467,0.809136 z m -1.63857,-0.436273 h 1.11098 q -0.0127,-0.296768 -0.16741,-0.454029 -0.15472,-0.157262 -0.38808,-0.157262 -0.23589,0 -0.39315,0.157262 -0.15473,0.157261 -0.16234,0.454029 z"
           id="path19219" />
      </g>
      <g
         id="path773">
        <path
           style="color:#000000;-inkscape-font-specification:AlteDIN1451Mittelschrift;fill:#350404;stroke:none;-inkscape-stroke:none"
           d="m 129.07422,27.734375 c -0.11576,0 -0.18861,0.109935 -0.29883,0.138672 v -0.109375 h -1.32422 v 3.427734 h 0.39649 0.92773 v -1.964844 c 0,-0.101359 0.016,-0.119236 0.0312,-0.134765 5e-5,-5.1e-5 0.002,5.1e-5 0.002,0 0.0271,-0.02709 0.0314,-0.0332 0.0957,-0.0332 0.0574,0 0.0555,2.8e-4 0.084,0.0293 l 0.002,0.002 v 0.002 c 0.0165,0.01653 0.0332,0.03155 0.0332,0.134765 v 1.964844 h 1.32422 v -2.148437 c 0,-0.38255 -0.14447,-0.752524 -0.43164,-0.986328 -0.24356,-0.200064 -0.53661,-0.322266 -0.8418,-0.322266 z m -0.69141,0.314453 0.004,0.0039 c -0.0964,0.06604 -0.23736,0.05173 -0.31055,0.144532 z"
           id="path19223" />
        <path
           style="color:#000000;-inkscape-font-specification:AlteDIN1451Mittelschrift;stroke:none;-inkscape-stroke:none"
           d="m 127.8485,30.794006 v -2.63286 h 0.53012 v 0.281548 h 0.0101 q 0.24604,-0.311986 0.68485,-0.311986 0.30691,0 0.591,0.233355 0.28662,0.233356 0.28662,0.679776 v 1.750167 h -0.53012 v -1.567541 q 0,-0.26633 -0.14966,-0.415982 -0.14711,-0.149652 -0.36779,-0.149652 -0.22828,0 -0.37793,0.149652 -0.14712,0.149652 -0.14712,0.415982 v 1.567541 z"
           id="path19225" />
      </g>
      <g
         id="path775">
        <path
           style="color:#000000;-inkscape-font-specification:AlteDIN1451Mittelschrift;fill:#350404;stroke:none;-inkscape-stroke:none"
           d="m 131.8125,26.701172 v 1.099609 c -0.0953,-0.02303 -0.18481,-0.06641 -0.2832,-0.06641 -0.21463,0 -0.42495,0.04519 -0.60938,0.148437 -0.15856,0.08732 -0.29912,0.203278 -0.4082,0.345704 -0.11412,0.145174 -0.19032,0.318559 -0.22656,0.5 -0.0382,0.189576 -0.0469,0.415239 -0.0469,0.746093 0,0.334991 0.009,0.567079 0.0469,0.757813 0.0359,0.179678 0.11307,0.350576 0.22656,0.49414 0.10886,0.144196 0.24879,0.26377 0.4082,0.351563 v 0.002 h 0.002 c 0.18424,0.0988 0.3941,0.140625 0.60743,0.140625 0.10745,0 0.18025,-0.100865 0.2832,-0.126953 v 0.09766 h 0.39648 0.92579 v -4.490234 z m 0.5293,1.855469 v 0.03125 c -0.006,-0.008 -0.0111,-0.01572 -0.0176,-0.02344 z m -0.65039,0.501953 c 0.0536,0 0.0568,0.0036 0.0645,0.0059 0.0357,0.133497 0.0566,0.267717 0.0566,0.410156 0,0.147612 -0.0214,0.285342 -0.0566,0.417969 -0.008,0.0023 -0.0108,0.0078 -0.0645,0.0078 -0.0578,0 -0.0651,-0.0065 -0.0762,-0.0098 -0.0312,-0.121819 -0.0527,-0.2569 -0.0527,-0.416016 0,-0.154175 0.0211,-0.28584 0.0527,-0.408203 0.0111,-0.0032 0.0185,-0.0078 0.0762,-0.0078 z m 0.65039,1.310547 v 0.02734 h -0.0195 c 0.008,-0.0088 0.0124,-0.01817 0.0195,-0.02734 z"
           id="path19229" />
        <path
           style="color:#000000;-inkscape-font-specification:AlteDIN1451Mittelschrift;stroke:none;-inkscape-stroke:none"
           d="m 132.2087,30.794006 v -0.273939 q -0.27648,0.304377 -0.67977,0.304377 -0.24351,0 -0.41852,-0.09385 -0.17502,-0.09639 -0.28662,-0.246038 -0.11161,-0.139506 -0.14966,-0.329742 -0.038,-0.192772 -0.038,-0.679775 0,-0.48193 0.038,-0.669629 0.038,-0.190236 0.14966,-0.332278 0.1116,-0.147116 0.28662,-0.243502 0.17501,-0.09892 0.41852,-0.09892 0.20291,0 0.36778,0.08624 0.16487,0.08624 0.31199,0.225746 v -1.344331 h 0.53012 v 3.695643 z m -0.51744,-2.133175 q -0.3754,0 -0.45149,0.256184 -0.0736,0.256184 -0.0736,0.558024 0,0.30945 0.0736,0.565634 0.0761,0.256184 0.45149,0.256184 0.36779,0 0.44135,-0.26633 0.0761,-0.26633 0.0761,-0.555488 0,-0.281548 -0.0761,-0.547878 -0.0736,-0.26633 -0.44135,-0.26633 z"
           id="path19231" />
      </g>
      <g
         id="path777">
        <path
           style="color:#000000;-inkscape-font-specification:AlteDIN1451Mittelschrift;fill:#350404;stroke:none;-inkscape-stroke:none"
           d="m 135.42773,26.667969 c -0.37682,0 -0.73917,0.156604 -1.00586,0.427734 -0.27022,0.272896 -0.41928,0.644958 -0.42187,1.033203 l -0.002,0.398438 h 1.29882 l 0.0273,-0.369141 c 0.006,-0.0907 0.0223,-0.107754 0.0449,-0.128906 0.036,-0.03361 0.0446,-0.03711 0.0996,-0.03711 0.0634,0 0.0438,-0.0037 0.0644,0.02148 l 0.002,0.002 c 0.0427,0.05143 0.0469,0.07095 0.0469,0.105469 0,0.01565 -0.004,0.03502 -0.0117,0.0625 0.003,-0.01136 -0.004,0.01437 -0.0391,0.05859 L 134,30.158203 v 1.033203 h 0.39844 2.5039 v -1.322265 h -0.98242 l 0.67383,-0.845704 0.002,-0.002 c 0.20164,-0.251288 0.30664,-0.569311 0.30664,-0.896484 0,-0.384947 -0.15237,-0.752945 -0.42382,-1.025391 -0.27437,-0.278908 -0.65362,-0.43164 -1.05079,-0.43164 z m -0.51367,3.61914 0.0527,0.109375 h -0.14063 z"
           id="path19235" />
        <path
           style="color:#000000;-inkscape-font-specification:AlteDIN1451Mittelschrift;stroke:none;-inkscape-stroke:none"
           d="m 134.39768,30.794006 v -0.497149 l 1.44579,-1.808506 q 0.0837,-0.106532 0.10907,-0.195309 0.0254,-0.08878 0.0254,-0.17248 0,-0.192772 -0.13697,-0.357643 -0.13697,-0.167407 -0.37286,-0.167407 -0.2156,0 -0.37033,0.144579 -0.15218,0.142042 -0.16994,0.390617 h -0.53012 q 0.003,-0.448956 0.30691,-0.75587 0.30438,-0.309449 0.7229,-0.309449 0.46164,0 0.76855,0.311986 0.30945,0.30945 0.30945,0.74826 0,0.375398 -0.22067,0.649337 l -1.18961,1.491447 h 1.41028 v 0.527587 z"
           id="path19237" />
      </g>
      <g
         id="path779">
        <path
           style="color:#000000;-inkscape-font-specification:AlteDIN1451Mittelschrift;fill:#350404;stroke:none;-inkscape-stroke:none"
           d="m 138.58594,26.910156 -0.63867,0.679688 v 0.173828 h -0.26368 v 1.199219 h 0.26368 v 2.230468 h 0.39648 0.92773 v -2.230468 h 0.38477 v -1.199219 h -0.38477 v -0.582031 z"
           id="path19241" />
        <path
           style="color:#000000;-inkscape-font-specification:AlteDIN1451Mittelschrift;stroke:none;-inkscape-stroke:none"
           d="m 138.34443,30.796543 v -2.229562 h -0.26379 v -0.405835 h 0.26379 V 27.7477 l 0.53013,-0.565634 v 0.97908 h 0.38554 v 0.405835 h -0.38554 v 2.229562 z"
           id="path19243" />
      </g>
      <g
         id="path781">
        <path
           style="color:#000000;-inkscape-font-specification:AlteDIN1451Mittelschrift;fill:#350404;stroke:none;-inkscape-stroke:none"
           d="m 140.71289,27.734375 c -0.25293,0 -0.48953,0.04262 -0.69727,0.160156 h -0.002 c -0.15256,0.08747 -0.28493,0.1849 -0.39453,0.304688 v 0.002 c -0.13735,0.151043 -0.24148,0.328169 -0.30273,0.521484 -0.0674,0.212614 -0.0859,0.448978 -0.0859,0.751953 0,0.307685 0.0181,0.545824 0.0859,0.759766 0.0613,0.193267 0.16543,0.370456 0.30273,0.521484 0.11051,0.122802 0.24442,0.222348 0.39844,0.308594 h 0.002 c 0.2072,0.114507 0.44152,0.15625 0.69336,0.15625 0.24922,0 0.48354,-0.04246 0.68945,-0.15625 0.15596,-0.08619 0.29277,-0.184665 0.4043,-0.308594 0.13735,-0.151043 0.24148,-0.328168 0.30273,-0.521484 0.0679,-0.214025 0.084,-0.45205 0.084,-0.759766 0,-0.303006 -0.0165,-0.539258 -0.084,-0.751953 -0.0613,-0.193267 -0.16543,-0.370456 -0.30273,-0.521484 l -0.002,-0.002 c -0.11063,-0.120916 -0.24391,-0.217255 -0.39844,-0.304688 -0.20643,-0.116798 -0.44304,-0.160156 -0.69336,-0.160156 z m 0,1.324219 c 0.0981,0 0.0871,0.0038 0.10156,0.02539 0.019,0.03055 0.0326,0.05889 0.0391,0.08594 v 0.0039 l 0.002,0.0039 c 2.7e-4,0.0011 0.0176,0.125686 0.0176,0.302735 0,0.17705 -0.0173,0.301676 -0.0176,0.302734 l -0.002,0.0039 v 0.0039 c -0.006,0.02627 -0.0177,0.05245 -0.0352,0.08008 -3e-4,4.11e-4 -0.002,-4e-4 -0.002,0 -0.016,0.02288 -0.003,0.0293 -0.10352,0.0293 -0.10704,0 -0.087,-0.0054 -0.0996,-0.02344 l -0.002,-0.0039 -0.004,-0.0039 c -0.0215,-0.02934 -0.0292,-0.05117 -0.0351,-0.07422 -0.004,-0.01921 -0.0176,-0.142406 -0.0176,-0.320313 0,-0.17138 0.0124,-0.286639 0.0156,-0.304687 0.006,-0.02496 0.0168,-0.05202 0.041,-0.08594 v -0.002 l 0.002,-0.002 c 0.0126,-0.01804 -0.007,-0.02148 0.0996,-0.02148 z"
           id="path19247" />
        <path
           style="color:#000000;-inkscape-font-specification:AlteDIN1451Mittelschrift;stroke:none;-inkscape-stroke:none"
           d="m 139.62789,29.475039 q 0,-0.423591 0.0659,-0.631582 0.0659,-0.207991 0.21813,-0.375398 0.10907,-0.119214 0.29931,-0.228283 0.19277,-0.109068 0.50222,-0.109068 0.30438,0 0.49715,0.109068 0.19277,0.109069 0.30184,0.228283 0.15219,0.167407 0.21813,0.375398 0.066,0.207991 0.066,0.631582 0,0.431201 -0.066,0.639192 -0.0659,0.207991 -0.21813,0.375398 -0.10907,0.121751 -0.30184,0.228283 -0.19277,0.106532 -0.49715,0.106532 -0.30945,0 -0.50222,-0.106532 -0.19024,-0.106532 -0.29931,-0.228283 -0.15219,-0.167407 -0.21813,-0.375398 -0.0659,-0.207991 -0.0659,-0.639192 z m 1.6411,0.0051 q 0,-0.286621 -0.0304,-0.403299 -0.0279,-0.116678 -0.0989,-0.22321 -0.13951,-0.192772 -0.42613,-0.192772 -0.2917,0 -0.42613,0.192772 -0.0761,0.106532 -0.10399,0.22321 -0.0254,0.116678 -0.0254,0.398226 0,0.289158 0.0254,0.408373 0.0279,0.116678 0.10399,0.220673 0.13443,0.192772 0.42613,0.192772 0.28662,0 0.42613,-0.192772 0.071,-0.103995 0.0989,-0.220673 0.0304,-0.116678 0.0304,-0.4033 z"
           id="path19249" />
      </g>
      <g
         id="path783">
        <path
           style="color:#000000;-inkscape-font-specification:AlteDIN1451Mittelschrift;fill:#350404;stroke:none;-inkscape-stroke:none"
           d="m 143.99609,26.701172 -0.79492,0.578125 v 0.765625 l 0.52735,0.267578 v 2.886719 h 0.39648 0.92969 v -4.498047 z m 0.25782,0.794922 h 0.008 v 0.0293 l -0.0293,-0.01367 z"
           id="path19253" />
        <path
           style="color:#000000;-inkscape-font-specification:AlteDIN1451Mittelschrift;stroke:none;-inkscape-stroke:none"
           d="m 144.12506,30.801615 v -3.142691 l -0.52759,0.385544 V 27.48137 l 0.52759,-0.383007 h 0.53266 v 3.703252 z"
           id="path19255" />
      </g>
    </g>
  </g>
</svg>
