<?xml version="1.0" encoding="UTF-8" standalone="no"?>
<!-- Created with Inkscape (http://www.inkscape.org/) -->

<svg
   width="22.782616mm"
   height="3.7590551mm"
   viewBox="0 0 22.782616 3.7590551"
   version="1.1"
   id="svg595"
   inkscape:version="1.2.2 (732a01da63, 2022-12-09)"
   sodipodi:docname="Send1To2.svg"
   xmlns:inkscape="http://www.inkscape.org/namespaces/inkscape"
   xmlns:sodipodi="http://sodipodi.sourceforge.net/DTD/sodipodi-0.dtd"
   xmlns="http://www.w3.org/2000/svg"
   xmlns:svg="http://www.w3.org/2000/svg">
  <sodipodi:namedview
     id="namedview597"
     pagecolor="#000000"
     bordercolor="#000000"
     borderopacity="0.25"
     inkscape:showpageshadow="2"
     inkscape:pageopacity="0"
     inkscape:pagecheckerboard="0"
     inkscape:deskcolor="#d1d1d1"
     inkscape:document-units="mm"
     showgrid="false"
     inkscape:zoom="10.158701"
     inkscape:cx="44.592314"
     inkscape:cy="8.2687735"
     inkscape:window-width="1440"
     inkscape:window-height="837"
     inkscape:window-x="-8"
     inkscape:window-y="-8"
     inkscape:window-maximized="1"
     inkscape:current-layer="layer1" />
  <defs
     id="defs592" />
  <g
     inkscape:label="Layer 1"
     inkscape:groupmode="layer"
     id="layer1"
     transform="translate(-122.007,-27.065389)">
    <g
       aria-label="Send 1 to 2"
       id="text416"
       style="font-size:5.1947px;font-family:AlteDIN1451Mittelschrift;-inkscape-font-specification:AlteDIN1451Mittelschrift;text-align:center;text-anchor:middle;opacity:0.96114;fill:#ffffff;stroke-width:0.907664;stroke-miterlimit:1.7">
      <path
         d="m 122.007,30.317149 0.37033,-0.421055 q 0.20799,0.167407 0.47939,0.268866 0.2714,0.101459 0.56817,0.101459 0.34242,0 0.53773,-0.142042 0.19531,-0.142043 0.19531,-0.372862 0,-0.436274 -0.48193,-0.499685 -0.12682,-0.01522 -0.23589,-0.03044 -0.10907,-0.01522 -0.25365,-0.03551 -0.47939,-0.06595 -0.7305,-0.350033 -0.25112,-0.286622 -0.25112,-0.689921 0,-0.471785 0.31453,-0.776162 0.31706,-0.304376 0.8903,-0.304376 0.34242,0 0.64426,0.109068 0.30185,0.109068 0.55549,0.276476 l -0.31198,0.461638 q -0.20292,-0.126824 -0.43628,-0.205454 -0.23335,-0.07863 -0.47685,-0.07863 -0.25872,0 -0.43881,0.131897 -0.18009,0.131896 -0.18009,0.39569 0,0.157261 0.12175,0.294231 0.12175,0.136969 0.4033,0.180089 0.0735,0.01268 0.17755,0.0279 0.10399,0.01268 0.23843,0.0279 0.51744,0.06341 0.76348,0.375398 0.24857,0.311986 0.24857,0.689921 0,0.509831 -0.35257,0.79138 -0.35257,0.281549 -0.9461,0.281549 -0.8345,0 -1.41282,-0.507295 z"
         id="path733" />
      <path
         d="m 127.29048,29.677957 h -1.63857 q 0,0.324669 0.17502,0.487003 0.17755,0.162335 0.45149,0.162335 0.32721,0 0.57832,-0.253648 l 0.38301,0.327206 q -0.19531,0.228282 -0.44135,0.327205 -0.2435,0.09639 -0.50983,0.09639 -0.40584,0 -0.78631,-0.261257 -0.38047,-0.263793 -0.38047,-1.075465 0,-0.768552 0.35003,-1.062783 0.35257,-0.294231 0.73558,-0.294231 0.43374,0 0.75841,0.30184 0.32467,0.299304 0.32467,0.809136 z m -1.63857,-0.436273 h 1.11098 q -0.0127,-0.296768 -0.16741,-0.454029 -0.15472,-0.157262 -0.38808,-0.157262 -0.23589,0 -0.39315,0.157262 -0.15473,0.157261 -0.16234,0.454029 z"
         id="path735" />
      <path
         d="m 127.8485,30.794006 v -2.63286 h 0.53012 v 0.281548 h 0.0101 q 0.24604,-0.311986 0.68485,-0.311986 0.30691,0 0.591,0.233355 0.28662,0.233356 0.28662,0.679776 v 1.750167 h -0.53012 v -1.567541 q 0,-0.26633 -0.14966,-0.415982 -0.14711,-0.149652 -0.36779,-0.149652 -0.22828,0 -0.37793,0.149652 -0.14712,0.149652 -0.14712,0.415982 v 1.567541 z"
         id="path737" />
      <path
         d="m 132.2087,30.794006 v -0.273939 q -0.27648,0.304377 -0.67977,0.304377 -0.24351,0 -0.41852,-0.09385 -0.17502,-0.09639 -0.28662,-0.246038 -0.11161,-0.139506 -0.14966,-0.329742 -0.038,-0.192772 -0.038,-0.679775 0,-0.48193 0.038,-0.669629 0.038,-0.190236 0.14966,-0.332278 0.1116,-0.147116 0.28662,-0.243502 0.17501,-0.09892 0.41852,-0.09892 0.20291,0 0.36778,0.08624 0.16487,0.08624 0.31199,0.225746 v -1.344331 h 0.53012 v 3.695643 z m -0.51744,-2.133175 q -0.3754,0 -0.45149,0.256184 -0.0736,0.256184 -0.0736,0.558024 0,0.30945 0.0736,0.565634 0.0761,0.256184 0.45149,0.256184 0.36779,0 0.44135,-0.26633 0.0761,-0.26633 0.0761,-0.555488 0,-0.281548 -0.0761,-0.547878 -0.0736,-0.26633 -0.44135,-0.26633 z"
         id="path739" />
      <path
         d="m 135.10028,30.801615 v -3.142691 l -0.52759,0.385544 V 27.48137 l 0.52759,-0.383007 h 0.53266 v 3.703252 z"
         id="path741" />
      <path
         d="m 137.60378,30.796543 v -2.229562 h -0.26379 v -0.405835 h 0.26379 V 27.7477 l 0.53012,-0.565634 v 0.97908 h 0.38555 v 0.405835 h -0.38555 v 2.229562 z"
         id="path743" />
      <path
         d="m 138.88724,29.475039 q 0,-0.423591 0.066,-0.631582 0.0659,-0.207991 0.21813,-0.375398 0.10907,-0.119214 0.29931,-0.228283 0.19277,-0.109068 0.50222,-0.109068 0.30438,0 0.49715,0.109068 0.19277,0.109069 0.30184,0.228283 0.15219,0.167407 0.21813,0.375398 0.0659,0.207991 0.0659,0.631582 0,0.431201 -0.0659,0.639192 -0.0659,0.207991 -0.21813,0.375398 -0.10907,0.121751 -0.30184,0.228283 -0.19277,0.106532 -0.49715,0.106532 -0.30945,0 -0.50222,-0.106532 -0.19024,-0.106532 -0.29931,-0.228283 -0.15219,-0.167407 -0.21813,-0.375398 -0.066,-0.207991 -0.066,-0.639192 z m 1.6411,0.0051 q 0,-0.286621 -0.0304,-0.403299 -0.0279,-0.116678 -0.0989,-0.22321 -0.13951,-0.192772 -0.42613,-0.192772 -0.2917,0 -0.42613,0.192772 -0.0761,0.106532 -0.10399,0.22321 -0.0254,0.116678 -0.0254,0.398226 0,0.289158 0.0254,0.408373 0.0279,0.116678 0.10399,0.220673 0.13443,0.192772 0.42613,0.192772 0.28662,0 0.42613,-0.192772 0.071,-0.103995 0.0989,-0.220673 0.0304,-0.116678 0.0304,-0.4033 z"
         id="path745" />
      <path
         d="m 142.6818,30.794006 v -0.497149 l 1.44579,-1.808506 q 0.0837,-0.106532 0.10907,-0.195309 0.0254,-0.08878 0.0254,-0.17248 0,-0.192772 -0.13697,-0.357643 -0.13697,-0.167407 -0.37286,-0.167407 -0.2156,0 -0.37033,0.144579 -0.15219,0.142042 -0.16994,0.390617 h -0.53013 q 0.003,-0.448956 0.30692,-0.75587 0.30437,-0.309449 0.72289,-0.309449 0.46164,0 0.76855,0.311986 0.30945,0.30945 0.30945,0.74826 0,0.375398 -0.22067,0.649337 l -1.18961,1.491447 h 1.41028 v 0.527587 z"
         id="path747" />
    </g>
  </g>
</svg>
